<?xml version="1.0" encoding="UTF-8" standalone="no"?>
<!-- Created with Inkscape (http://www.inkscape.org/) -->

<svg
   width="118.01881mm"
   height="107.46308mm"
   viewBox="0 0 118.01881 107.46308"
   version="1.1"
   id="svg5"
   inkscape:version="1.1.2 (0a00cf5339, 2022-02-04)"
   sodipodi:docname="cowkit_logo.svg"
   xmlns:inkscape="http://www.inkscape.org/namespaces/inkscape"
   xmlns:sodipodi="http://sodipodi.sourceforge.net/DTD/sodipodi-0.dtd"
   xmlns="http://www.w3.org/2000/svg"
   xmlns:svg="http://www.w3.org/2000/svg">
  <sodipodi:namedview
     id="namedview7"
     pagecolor="#ffffff"
     bordercolor="#666666"
     borderopacity="1.0"
     inkscape:pageshadow="2"
     inkscape:pageopacity="0.0"
     inkscape:pagecheckerboard="0"
     inkscape:document-units="mm"
     showgrid="false"
     inkscape:zoom="0.89729807"
     inkscape:cx="66.867412"
     inkscape:cy="241.27991"
     inkscape:window-width="1920"
     inkscape:window-height="1016"
     inkscape:window-x="0"
     inkscape:window-y="27"
     inkscape:window-maximized="1"
     inkscape:current-layer="g921" />
  <defs
     id="defs2">
    <rect
       x="163.61681"
       y="454.07574"
       width="230.46045"
       height="200.0742"
       id="rect6524" />
    <linearGradient
       x1="0"
       y1="0"
       x2="1"
       y2="0"
       gradientUnits="userSpaceOnUse"
       gradientTransform="matrix(3760.93,-3986.82,-3986.82,-3760.93,7627.52,4186.97)"
       spreadMethod="pad"
       id="linearGradient933">
      <stop
         style="stop-opacity:1;stop-color:#b9973d"
         offset="0"
         id="stop925" />
      <stop
         style="stop-opacity:1;stop-color:#562013"
         offset="0.413953"
         id="stop927" />
      <stop
         style="stop-opacity:1;stop-color:#7b421a"
         offset="0.689944"
         id="stop929" />
      <stop
         style="stop-opacity:1;stop-color:#d3a627"
         offset="1"
         id="stop931" />
    </linearGradient>
    <linearGradient
       x1="0"
       y1="0"
       x2="1"
       y2="0"
       gradientUnits="userSpaceOnUse"
       gradientTransform="matrix(3404.69,-1471.6,-1471.6,-3404.69,196.542,6455.38)"
       spreadMethod="pad"
       id="linearGradient945">
      <stop
         style="stop-opacity:1;stop-color:#b9973d"
         offset="0"
         id="stop937" />
      <stop
         style="stop-opacity:1;stop-color:#562013"
         offset="0.350157"
         id="stop939" />
      <stop
         style="stop-opacity:1;stop-color:#7b421a"
         offset="0.858471"
         id="stop941" />
      <stop
         style="stop-opacity:1;stop-color:#d3a627"
         offset="1"
         id="stop943" />
    </linearGradient>
    <linearGradient
       x1="0"
       y1="0"
       x2="1"
       y2="0"
       gradientUnits="userSpaceOnUse"
       gradientTransform="matrix(3828.7,2575.05,2575.05,-3828.7,7576.07,4342.18)"
       spreadMethod="pad"
       id="linearGradient957">
      <stop
         style="stop-opacity:1;stop-color:#b9973d"
         offset="0"
         id="stop949" />
      <stop
         style="stop-opacity:1;stop-color:#562013"
         offset="0.413953"
         id="stop951" />
      <stop
         style="stop-opacity:1;stop-color:#7b421a"
         offset="0.689944"
         id="stop953" />
      <stop
         style="stop-opacity:1;stop-color:#d3a627"
         offset="1"
         id="stop955" />
    </linearGradient>
    <linearGradient
       x1="0"
       y1="0"
       x2="1"
       y2="0"
       gradientUnits="userSpaceOnUse"
       gradientTransform="matrix(4351.43,1364.35,1364.35,-4351.43,3875.23,4530.71)"
       spreadMethod="pad"
       id="linearGradient971">
      <stop
         style="stop-opacity:1;stop-color:#b9973d"
         offset="0"
         id="stop961" />
      <stop
         style="stop-opacity:1;stop-color:#562013"
         offset="0.413953"
         id="stop963" />
      <stop
         style="stop-opacity:1;stop-color:#7b421a"
         offset="0.689944"
         id="stop965" />
      <stop
         style="stop-opacity:1;stop-color:#d3a627"
         offset="0.998575"
         id="stop967" />
      <stop
         style="stop-opacity:1;stop-color:#d3a627"
         offset="1"
         id="stop969" />
    </linearGradient>
    <linearGradient
       x1="0"
       y1="0"
       x2="1"
       y2="0"
       gradientUnits="userSpaceOnUse"
       gradientTransform="matrix(287.515,-3614.47,-3614.47,-287.515,5658.05,3706.43)"
       spreadMethod="pad"
       id="linearGradient983">
      <stop
         style="stop-opacity:1;stop-color:#b9973d"
         offset="0"
         id="stop975" />
      <stop
         style="stop-opacity:1;stop-color:#562013"
         offset="0.413953"
         id="stop977" />
      <stop
         style="stop-opacity:1;stop-color:#7b421a"
         offset="0.689944"
         id="stop979" />
      <stop
         style="stop-opacity:1;stop-color:#d3a627"
         offset="1"
         id="stop981" />
    </linearGradient>
    <linearGradient
       x1="0"
       y1="0"
       x2="1"
       y2="0"
       gradientUnits="userSpaceOnUse"
       gradientTransform="matrix(4619.28,3580.23,3580.23,-4619.28,-546.957,231.4)"
       spreadMethod="pad"
       id="linearGradient995">
      <stop
         style="stop-opacity:1;stop-color:#b9973d"
         offset="0"
         id="stop987" />
      <stop
         style="stop-opacity:1;stop-color:#562013"
         offset="0.413953"
         id="stop989" />
      <stop
         style="stop-opacity:1;stop-color:#7b421a"
         offset="0.689944"
         id="stop991" />
      <stop
         style="stop-opacity:1;stop-color:#d8b24b"
         offset="1"
         id="stop993" />
    </linearGradient>
    <clipPath
       clipPathUnits="userSpaceOnUse"
       id="clipPath1150">
      <rect
         style="fill:#00bbc2;fill-opacity:0.186203;stroke:#ffffff;stroke-width:0.825;stroke-linejoin:round;stroke-miterlimit:10;paint-order:fill markers stroke"
         id="rect1152"
         width="3860.0676"
         height="3561.2771"
         x="141.12527"
         y="-7310.894"
         transform="scale(1,-1)" />
    </clipPath>
    <rect
       x="163.61681"
       y="454.07574"
       width="230.46045"
       height="200.0742"
       id="rect6524-1" />
    <clipPath
       clipPathUnits="userSpaceOnUse"
       id="clipPath54458">
      <rect
         style="fill:#00bbc2;fill-opacity:0.186203;stroke:#000000;stroke-width:8.50395;stroke-linejoin:round;stroke-miterlimit:4;stroke-dasharray:none;stroke-opacity:1;paint-order:fill markers stroke"
         id="rect54460"
         width="3507.6201"
         height="2814.2041"
         x="69.026161"
         y="-7085.8403"
         transform="scale(1,-1)" />
    </clipPath>
  </defs>
  <g
     inkscape:label="Layer 1"
     inkscape:groupmode="layer"
     id="layer1"
     transform="translate(-42.044753,-65.924176)">
    <g
       id="g921"
       transform="matrix(0.03527778,0,0,-0.03527778,34.406388,315.1168)"
       clip-path="url(#clipPath1150)">
      <path
         d="M 11310.2,0 H 0 V 7540.16 H 11310.2 V 0"
         style="fill:#ffffff;fill-opacity:1;fill-rule:evenodd;stroke:none"
         id="path923"
         clip-path="url(#clipPath54458)" />
      <path
         d="m 10188.7,2116.42 c -38.9,-8.9 -61.4,35.67 -42.2,63.38 7.1,10.39 18.8,12.06 31.6,17.16 52.8,0.49 54.9,-70.4 10.6,-80.54 z m 76.6,-60.74 c -16.2,-39.27 -46.2,-74.4 -92.4,-83.18 -50.2,-9.53 -96.2,13.49 -146.6,2.64 -44.92,-9.67 -61.82,-44.06 -95.07,-58.1 l -2.64,1.32 c 28.13,65.16 63.32,131.64 92.41,198.06 16.8,38.37 32.6,87.56 63.4,112.23 13.6,10.91 31.9,23.72 50.2,29.05 8.8,1.32 17.6,2.64 26.4,3.95 57.5,1.07 105.3,-5.18 114.8,-50.16 -14.9,3.51 -29.9,7.04 -44.8,10.55 -142.6,25.08 -203.5,-129.45 -244.31,-212.57 v -1.32 c 15.01,5.28 29.91,10.56 44.91,15.85 30.8,5.53 64.8,-4.91 91.1,-9.25 88.4,-14.58 143.5,47.89 154.5,112.23 0.8,0.45 1.7,0.89 2.6,1.32 8.9,-22.64 -8.2,-57.23 -14.5,-72.62 z m -42.3,-364.42 c -22,-105.77 -39.9,-203.62 -69.9,-298.39 -16.9,-53.34 -45.5,-102.99 -60.8,-153.17 l -2.6,-1.32 c 0.9,65.35 10.8,133.06 22.4,191.46 33.8,169.99 51.9,292.68 132.1,414.59 h 2.6 c -7.9,-51.06 -15.8,-102.12 -23.8,-153.17 z m -130.7,-914.998 c -7.6,-44.043 -11.4,-83 -30.3,-114.871 -54.6,-91.68 -227.91,-81.442 -353.9,-60.731 -24.44,4.012 -54.61,1.961 -73.95,-3.969 -7.92,-3.519 -15.84,-7.043 -23.76,-10.562 -13.2,4.84 -26.41,9.68 -39.61,14.531 -43.99,7.75 -123.61,-8.039 -163.73,-14.531 -78.96,-12.789 -191.62,2.113 -236.34,35.652 -22.27,16.711 -34.75,50.379 -44.89,79.219 -54.62,155.359 3.85,338.52 22.44,483.25 13.2,0.88 26.42,1.76 39.61,2.64 42.73,8.34 86.66,25.5 109.59,54.14 50.15,62.63 81.9,250.59 62.06,373.65 -6.6,55.01 -13.2,110.04 -19.8,165.05 -38.4,183.76 -77.84,366.12 -170.33,496.45 -23.46,33.07 -55.3,72.38 -97.71,85.83 -33.95,10.76 -88.11,-5.91 -106.94,19.8 -27.56,37.6 24.23,138.83 39.61,165.04 24.28,41.43 52.81,76.93 87.14,108.27 22.81,20.83 49.81,40.2 80.54,52.81 161.28,66.22 271.08,-112.93 326.12,-205.97 33.21,-56.1 50.33,-129.92 153.17,-110.91 161.74,29.89 173.33,221.85 257.47,330.09 16.87,21.71 40.78,31.07 64.7,46.21 6.16,-0.44 12.32,-0.88 18.48,-1.32 2.74,-2.16 11.13,-87.07 14.53,-96.39 23.9,-66.4 104.4,-90.47 118.8,-162.4 -13.5,-16.05 -41.6,-21.9 -56.7,-40.93 -33.3,-41.61 -55.7,-93.2 -88.51,-134.68 -31.28,-39.55 -75.71,-67.08 -96.39,-117.51 -14.91,-36.35 -12.9,-81.45 -21.12,-124.11 -11.95,-61.96 -21.57,-122.09 -42.26,-176.93 -48.98,-129.91 -118.33,-345.36 -62.05,-520.21 18.27,-56.78 47.55,-101.29 104.31,-120.15 34.18,-11.37 71.56,-5.17 96.38,-23.77 26.59,-19.92 43.54,-59.08 60.74,-88.47 52.9,-90.13 98.1,-236.429 72.6,-384.218 z M 8938.33,2171.87 c 5.32,13.09 18.49,19.51 30.37,26.41 57.3,2.62 69.44,-64.97 25.09,-80.54 -34.93,-12.27 -69.12,20.55 -55.46,54.13 z m 51.49,-200.69 c -75.78,12.57 -120.6,67.48 -120.15,154.48 h 2.64 c 13.42,-57.71 48.96,-99.07 109.59,-109.59 71.38,-12.37 112.4,23.45 174.29,-10.56 h 1.32 c -6.68,27.84 -26.11,56.11 -39.61,79.22 -56.71,97.1 -93.82,156.92 -245.59,126.76 6.99,32.76 34.86,38.81 64.7,50.16 30.49,0.27 64.74,1.37 87.14,-7.92 41.4,-17.15 62.4,-56.61 80.55,-97.7 34.85,-78.99 75.04,-159.66 110.91,-236.35 -0.88,-0.88 -1.77,-1.76 -2.65,-2.64 -29.29,17.14 -47.98,45.26 -85.82,55.46 -44.74,12.05 -97.61,-7.91 -137.32,-1.32 z m 84.51,-705.07 h -1.32 c -18.49,16.2 -25.77,56.46 -35.66,80.54 -33.64,82.02 -52.58,175.58 -73.93,270.68 -5.71,25.37 -23.03,91.42 -15.85,116.19 15.02,-8.33 32.47,-73.6 40.94,-93.75 26.44,-62.91 42.81,-140.17 58.09,-212.58 9.24,-51.92 18.49,-103.87 27.73,-155.8 z m -270.68,1654.4 c -127.11,23.81 -64.26,175.82 -39.61,256.15 l 2.64,1.32 c 6.29,-39.94 1.81,-81.16 19.8,-110.91 77.41,-127.94 229.48,29.48 298.41,58.1 31.47,13.07 66.42,11.87 106.95,18.49 28.79,4.68 55.76,-2.11 77.9,6.6 54.53,21.43 83.62,70.37 129.39,100.34 14.52,7.04 29.05,14.08 43.58,21.12 10.11,1.33 20.24,2.65 30.37,3.97 79.67,-0.58 113.36,-40.05 175.6,-51.5 29.35,-5.4 44.42,10.29 62.05,17.17 33.04,12.89 85.46,20.7 122.8,6.6 58.63,-22.15 81.96,-75.72 130.71,-105.63 29.53,-18.12 76.76,-14.21 112.26,-27.73 50.7,-19.33 85.6,-60.68 138.6,-77.9 73,-23.7 105.9,13.79 118.8,72.62 3.2,14.18 7.4,39.98 2.7,56.78 0.9,0.44 1.7,0.88 2.6,1.32 53.8,-90.76 3.6,-186.3 -73.9,-213.9 -15.9,-5.65 -38.5,-12.89 -60.7,-7.92 -65.7,14.67 -99.6,66.52 -140,106.94 -11.8,11.77 -35.7,37.18 -59.4,19.82 -17.68,-12.93 -16.66,-46.63 -7.95,-68.66 10.25,-25.9 63.55,-117.7 48.85,-153.17 l -1.3,-3.95 c -27.3,2.47 -45.04,30.97 -58.11,48.84 -39.79,54.42 -57.74,127.03 -81.87,198.06 -13.08,38.55 -21.93,79.14 -59.41,92.42 -100.85,35.75 -111.34,-181.99 -97.7,-270.67 h -5.29 c -10.12,20.24 -20.24,40.5 -30.37,60.74 -19.02,46.32 -27.86,112.75 -68.65,137.31 -20.85,12.56 -59.02,8.18 -77.9,-2.63 -45.35,-25.97 -112.77,-97.74 -129.4,-150.53 -1.75,-0.44 -3.52,-0.88 -5.28,-1.32 3.22,74.46 48.64,120.63 71.3,175.61 8.91,21.61 10.05,52.83 -10.57,62.06 -47.64,21.33 -74.18,-42.96 -88.45,-67.35 -28.58,-48.78 -55.01,-97.65 -88.47,-141.26 -18.62,-24.28 -43.13,-43.89 -62.06,-67.35 L 9209,2876.94 h -1.32 c 22.45,47.09 44.9,94.19 67.34,141.28 6.41,14.13 16.37,43.38 1.32,55.46 -37.8,6.85 -63.73,-43.82 -80.54,-64.7 -35.6,-44.23 -133.94,-138.27 -187.49,-159.77 l -2.65,-2.63 h -1.31 c 16.3,59.92 80.78,100.11 81.86,172.95 -3.96,3.09 -7.93,6.17 -11.88,9.25 -23.72,-1.62 -41.38,-20.16 -58.1,-30.37 -36.67,-22.39 -151.4,-89.35 -212.58,-77.9 z M 11171,2608.91 c -139.8,86.03 -425.6,139.5 -596.8,38.29 -22.2,-13.14 -47.5,-30.39 -63.3,-50.17 -26.4,-33.08 -50.5,-88.25 -95.1,-101.67 -54.5,-16.39 -112.5,55.15 -133.3,84.5 h -5.3 c 2.7,-37.1 21,-72.84 34.3,-102.98 v -6.6 h -1.3 c -38.5,23.19 -71.1,140.43 -81.9,198.04 -4.1,21.9 -8.3,65.98 0,85.82 6.2,9.34 73.9,30.55 88.5,36.98 62,27.33 130.3,71.62 163.7,128.07 25.4,42.96 28.8,126.39 11.9,182.21 -33.4,109.95 -101,192.13 -173,264.07 -22.4,22.38 -75.7,79.08 -112.2,81.86 -11.5,-19.89 22.5,-51.92 31.7,-67.34 27.8,-46.46 114.9,-244.45 23.7,-289.16 -21.8,-10.73 -53.9,6.28 -69.9,13.21 -29.5,14.97 -59,29.93 -88.5,44.89 -24.6,10.22 -50.1,13.16 -77.9,21.13 -66.5,19.07 -88.13,89.42 -147.88,116.19 -45.52,20.4 -116.96,20.23 -170.32,6.61 -20.31,-5.19 -44.03,-17.47 -73.95,-11.89 -58.21,10.85 -106.27,55.3 -186.16,40.93 -112.21,-20.19 -121.14,-93.77 -200.7,-128.08 -34.01,-14.66 -84.98,-6.26 -126.75,-14.52 -46.53,-9.21 -80.74,-27.44 -114.88,-48.85 -29.76,-18.68 -124,-87.42 -172.95,-51.49 -83.72,61.42 -2.03,245.59 31.68,298.4 11.3,17.7 32.39,38.83 35.65,62.05 v 1.32 c -5.74,4.02 -8.11,6.5 -18.49,6.6 -117.01,-74.5 -205.33,-170.8 -261.42,-306.32 -26.94,-65.06 -32.9,-166.51 3.95,-225.78 54.53,-87.67 196.81,-131.94 289.16,-184.85 -7.92,-39.96 -96.89,-145.51 -129.39,-165.04 -12.45,-7.48 -40.11,-14 -60.73,-7.92 -31.59,9.29 -50.84,37.25 -73.95,55.45 -27.18,21.42 -60.76,42.1 -93.74,56.77 -141.95,63.16 -344.76,75.36 -503.06,15.85 h -5.28 c 21.09,19 62.41,23.99 92.42,33.01 110.3,33.13 286.03,25.59 396.12,-2.64 59.06,-15.15 110.09,-37.38 172.95,-48.85 60.27,-11.01 91.07,25.94 128.08,38.29 0.44,2.19 0.88,4.4 1.32,6.6 -16.28,6.6 -32.57,13.2 -48.85,19.8 -25.92,5.29 -42.55,-11.58 -60.74,-15.84 -22.29,-5.22 -40.58,3.54 -56.77,7.92 -0.44,1.76 -0.88,3.52 -1.33,5.29 12.33,12.75 24.65,25.52 36.98,38.28 v 3.96 l -47.53,47.53 h -1.32 c -27.43,-3.96 -52.38,-51.5 -76.58,-63.37 -17.75,-6.41 -54.67,10.36 -72.62,14.52 -41.47,9.6 -136.86,20.33 -188.82,11.89 -34.77,-3.97 -69.54,-7.93 -104.31,-11.89 -112.46,-24.88 -236.33,-65.87 -297.08,-141.28 -11.87,-16.27 -23.76,-32.56 -35.64,-48.85 7.61,-55.66 93.11,-148.37 129.39,-182.21 123.41,-115.11 366.14,-288.48 624.53,-216.53 55.31,15.4 80.15,44.48 121.47,68.65 25.97,-24.64 51.93,-49.29 77.9,-73.94 3.09,-43.12 6.16,-86.27 9.25,-129.39 10.99,-90.66 22,-181.34 33.01,-271.99 34.13,-171.13 59.58,-337.6 117.51,-484.57 17.14,-43.51 34.88,-89.41 58.09,-128.08 11.89,-16.28 23.77,-32.57 35.65,-48.85 -0.44,-7.48 -0.88,-14.97 -1.32,-22.45 -1.1,-50.77 -9.96,-88.37 -19.81,-128.07 -21.36,-86.18 -22.59,-219.891 14.52,-287.84 v -1.309 c -15.38,-1.652 -73.89,34.27 -89.77,43.571 -66.15,38.699 -127.02,76.75 -186.17,121.457 -19.37,17.171 -38.73,34.343 -58.1,51.504 -48.7,39.078 -92.1,86.808 -130.71,135.987 -133.21,169.64 -212.08,315.85 -274.64,559.84 -11.16,43.55 -16.91,93.61 -25.09,141.28 -1.76,31.24 -3.51,62.5 -5.28,93.74 -0.44,31.69 -0.88,63.38 -1.32,95.07 2.65,34.32 5.28,68.66 7.92,102.98 6.6,44.01 13.21,88.03 19.81,132.04 -11.25,13.51 -56.14,25.66 -75.26,29.05 h -1.32 c -56.05,-175.01 -42.09,-460.07 2.64,-633.77 107.38,-417.03 332.24,-700.249 661.49,-893.882 70.47,-41.437 151.63,-78.136 235.03,-104.308 31.69,-9.949 65.41,-10.75 97.71,-23.758 7.48,-9.691 14.96,-19.371 22.44,-29.062 16.67,-20.758 47.07,-43.028 72.62,-54.129 37.3,-16.192 77.01,-15.719 126.75,-23.77 h 211.26 c 33.44,1.32 66.9,2.649 100.35,3.969 51.35,11.269 98.74,37.461 126.75,72.609 9.35,11.731 18,36.953 31.69,43.582 24.64,8.36 49.34,16.731 73.94,25.09 66.7,27.129 131.9,58.34 191.5,93.738 193.7,115.121 336.8,267.7 463.4,450.241 103.7,149.47 165.1,327.26 211.3,536.07 12.5,56.92 7,114.73 17.1,176.92 13.4,82.28 1.2,186.17 -11.9,258.79 -6.7,37.48 -5.3,82.63 -21.1,113.55 -7.3,7.63 -61,-16.38 -77.9,-18.48 -5.7,-26.77 10.5,-72.2 15.9,-100.35 11.1,-58.22 11.8,-119.03 11.8,-186.18 -0.4,-25.95 -0.9,-51.93 -1.3,-77.9 -14.7,-97.8 -18.9,-186.52 -42.2,-270.66 -14.1,-44.01 -28.2,-88.04 -42.3,-132.04 -9.7,-24.2 -19.4,-48.42 -29,-72.62 h -1.4 c -5.7,26.41 -11.4,52.81 -17.1,79.22 -14,46.24 -33.6,98.08 -64.7,128.08 h -6.6 c -5.7,-8.3 -8.4,-17.94 -7.9,-33.01 -1.8,-0.44 -3.6,-0.88 -5.3,-1.32 -65.7,35.86 -112.8,142.25 -147.9,211.25 -16.2,31.88 -33.9,89.82 -71.3,99.03 -64.6,15.88 -69.1,-152.01 -58.1,-209.94 30.2,-159.44 77.5,-287.52 110.9,-446.28 8.3,-39.18 24.1,-156.88 11.9,-203.332 -4.4,-16.898 -56.4,-56.726 -71.3,-68.656 -80.3,-64.293 -158.1,-137 -256.2,-183.531 l -2.6,2.641 c 13.6,37.3 15.4,79.828 23.8,122.789 16.5,84.558 18.4,179.659 33,269.359 2.2,31.68 4.4,63.38 6.6,95.06 0.9,55.9 1.7,111.8 2.6,167.68 17.6,59.86 35.2,119.72 52.8,179.57 22.6,89.09 33.4,181.84 51.5,277.28 7.9,85.37 15.9,170.77 23.8,256.15 1.3,36.09 2.6,72.18 4,108.26 25.9,24.21 51.9,48.42 77.9,72.62 34.3,-17.71 63.5,-40.61 106.9,-51.48 48.1,-12.04 117.3,-14.43 170.3,-5.29 205.7,35.43 301.4,99.22 433.1,204.65 27.9,22.34 122.2,119.09 128.1,154.48 -16.2,21.49 -44,35.8 -67.4,50.18 z M 9797.88,1122.19 c -60.37,-9.21 -119.62,-15.84 -187.49,-15.84 h -54.14 c -70.54,10.79 -138.65,16.3 -217.85,15.84 -12.33,-2.2 -24.65,-4.39 -36.97,-6.6 -38.3,-11.67 -67.66,-36.86 -80.54,-73.94 -37.37,-107.58 40.59,-171.81 101.66,-202.009 17.72,-8.77 55.88,-33.239 84.5,-22.45 35.19,13.258 14.07,62.7 0,81.872 -22.35,30.449 -124.71,88.296 -113.54,135.987 3.3,14.09 14.9,21.74 22.44,31.69 1.32,0.44 2.64,0.88 3.96,1.32 0.44,-0.88 0.88,-1.76 1.32,-2.65 -19.3,-39.58 13.17,-59.82 38.29,-75.25 43.89,-26.961 95.9,-51.14 106.94,-110.91 17.95,-97.07 -67.64,-125.668 -118.82,-155.801 -19.99,-11.777 -77.57,-30.238 -58.1,-69.98 14.84,-30.258 87.52,-35.047 134.68,-27.719 109.45,16.969 236.24,18.422 345.93,1.309 43.95,-6.848 116.52,-4.879 139.96,15.839 23.44,20.743 7.34,47.383 -11.89,60.754 -57.58,40.008 -148.03,53.52 -162.4,135.989 -14.89,85.531 48.34,117.019 93.75,143.922 26.42,15.636 66.54,32.117 51.49,76.577 1.76,0.88 3.52,1.76 5.28,2.64 63.06,-48.36 -33.49,-107.96 -63.37,-132.03 -12.01,-9.68 -20.52,-23.719 -29.05,-36.98 -7.98,-12.399 -25.52,-44.27 -11.89,-64.688 20.31,-30.41 82.11,2.297 102.99,14.52 59.46,34.789 126.48,106 83.18,207.288 -22.05,51.59 -85.88,84.18 -170.32,71.3 z m 645.62,1674.21 c 13.2,-14.08 26.4,-28.17 39.6,-42.26 -30.2,-33.14 -78.9,-5.66 -113.5,0 -26.8,4.4 -40.9,-13.91 -59.4,-19.8 -1.3,-1.76 -2.7,-3.52 -4,-5.27 26.7,-29.9 98.7,-52.68 154.5,-35.66 143.1,43.7 314.6,91.2 505.7,54.13 45.7,-8.85 89.6,-17.51 129.4,-33.01 21.5,-10.11 43.1,-20.24 64.7,-30.36 v 1.32 c -19.6,23.07 -60.5,37.34 -89.8,50.18 -62,27.18 -128.8,43.47 -207.3,58.08 -19.8,0.89 -39.6,1.77 -59.4,2.65 -24.2,0.44 -48.4,0.88 -72.6,1.32 -30.4,-3.08 -60.8,-6.16 -91.1,-9.24 -20.1,-3.96 -38.4,-10.24 -62.1,-10.57 -15.1,14.85 -69,71.14 -88.5,73.95 -11.7,-19.48 -40.2,-32.17 -46.2,-55.46"
         style="fill:url(#linearGradient933);fill-opacity:1;fill-rule:evenodd;stroke:none"
         id="path935" />
      <path
         d="m 1913.25,4192.25 c -15.28,42.49 -26.11,87.26 -36.27,134.07 -7.05,32.49 -6.13,67.92 -20.88,92.31 -26.67,44.13 -79.76,67.96 -123.07,95.61 -29.14,18.59 -54.81,42.33 -81.33,63.73 -23.1,18.65 -46.2,46.23 -63.73,70.33 -5.74,7.9 -8.71,19.51 -17.58,24.18 l -5.5,1.1 c -5.86,-1.1 -11.72,-2.2 -17.58,-3.3 -2.55,-15.67 13.01,-38.9 18.68,-52.75 16.48,-39.92 32.97,-79.86 49.45,-119.78 43.34,-102.4 87.6,-201.97 131.87,-302.19 26.37,-54.58 52.75,-109.17 79.12,-163.74 16.91,-11.08 123.48,-3.05 153.85,-5.5 3.61,11.02 -13.22,34.74 -18.68,46.15 -16.12,39.93 -32.24,79.86 -48.35,119.78 z m 1489.02,2140.68 c -12.74,-54.99 -92.63,-112.24 -142.86,-131.87 -30.77,-8.42 -61.54,-16.85 -92.31,-25.27 -29.85,-12.83 -23.12,-23.58 -38.46,-48.35 -12.45,-11.72 -24.91,-23.45 -37.36,-35.17 -33.36,-23.57 -69.65,-41.79 -118.68,-49.45 -67.47,-10.53 -141.82,67.83 -161.55,108.8 v 1.09 c 13.93,-10.62 27.85,-21.25 41.76,-31.87 32.13,-21.38 69.03,-40.33 106.6,-54.94 5.34,0.08 7.06,0.5 9.89,2.19 -10.13,22.52 -22.94,40.55 -26.38,70.34 10.26,-2 14.55,-8.67 21.98,-13.19 26.3,-16 61.32,-26.51 98.9,-16.49 0.74,1.1 1.47,2.2 2.2,3.3 -16.01,21.27 -43.23,51.26 -68.13,62.64 -3.29,3.66 -6.6,7.33 -9.89,10.99 16.85,-4.76 33.7,-9.52 50.55,-14.28 39.52,-7.87 71.85,5.54 95.61,15.38 0.36,1.47 0.73,2.93 1.09,4.4 -42.07,9.62 -76.45,27.08 -113.18,38.46 v 1.1 c 0.36,0.73 0.73,1.46 1.09,2.19 37.22,-12.82 98.13,-16.78 137.37,-4.39 29.98,9.46 54.02,25.58 87.91,32.96 31.07,6.77 89.38,9.66 94.51,40.66 4.59,17.19 -20.37,29.17 -31.87,35.17 -26.93,14.05 -106.65,37.86 -117.58,62.63 v 8.8 c 13.26,8.43 28.45,6.61 46.15,13.19 66.62,0.53 179.41,-16.63 162.64,-89.02 z m -685.72,-69.23 c -0.37,0.73 -0.73,1.47 -1.1,2.2 42.06,2.48 126.97,17.59 142.86,42.86 5.79,9.21 0.45,25.62 0,36.26 11.48,8.61 22.82,9.11 38.46,15.38 90.5,-1.07 133.96,-31.27 189.01,-65.93 20.03,-12.61 41.06,-30.63 65.94,-37.36 0.36,-0.73 0.73,-1.47 1.1,-2.2 -30.56,1.64 -57.04,16.37 -82.42,25.27 -33.28,11.68 -64.84,17.21 -103.3,25.28 -13.35,2.8 -33.26,7.31 -50.55,4.4 -41.86,-7.06 -51.48,-23.06 -82.42,-35.17 -32.56,-12.74 -74.54,-11.21 -117.58,-10.99 z m -291.21,-174.73 c 21.24,-0.84 38.34,-13.32 39.56,-34.06 -18.09,-4.59 -55.73,1.98 -78.02,0 -0.37,1.83 -0.74,3.66 -1.1,5.49 13.74,13.28 20.1,19.42 39.56,28.57 z m 139.56,0 c -23.09,6.74 -38.54,22.96 -63.74,28.58 -48.15,10.73 -102.48,-15.78 -120.88,-40.66 -32.71,-44.25 -13.22,-135.37 60.44,-116.49 57.81,14.82 66.46,113.74 8.79,132.97 -0.36,0.74 -0.73,1.47 -1.1,2.2 v 1.1 c 27.32,0 67.5,-22.41 75.83,-39.56 5.08,-20.96 -55.87,-124.62 -70.33,-130.77 -14.01,-3.36 -45.84,7.05 -69.23,0 -14.79,-4.46 -31.35,-12.26 -42.86,-20.88 -6.55,-4.91 -9.78,-12.54 -18.68,-15.39 21.78,72.74 24.18,193.54 64.83,247.26 21.27,28.09 40.39,26.79 74.73,40.66 50.27,-0.6 58.27,-45.39 90.11,-64.84 21.22,-12.96 51.31,-1.6 74.73,2.2 -5.76,-17.67 -35.41,-34.31 -62.64,-26.38 z m -146.15,-696.71 c -13.55,-56.03 -27.11,-112.09 -40.66,-168.13 -0.74,-0.36 -1.47,-0.73 -2.2,-1.09 -2.93,28.93 -5.87,57.87 -8.8,86.81 -16.39,91.11 -31.01,218.36 1.1,303.3 27.19,71.9 80.78,120.75 101.11,200 h 3.29 c -0.65,-146.96 -23.05,-298.03 -53.84,-420.89 z m -156.05,453.86 c -5.86,-23.81 -11.72,-47.63 -17.58,-71.43 h -1.1 c -5.98,16.86 3.31,82.77 6.59,102.19 15.02,88.97 21.79,168.45 49.45,242.86 v 3.3 c -16.03,-4.06 -32.14,-12.25 -47.25,-1.1 -8.9,34.63 9.41,66.42 23.08,89.02 26.98,44.6 62.35,84.08 112.08,105.49 15.02,4.03 30.04,8.06 45.06,12.09 55.53,1.28 62.84,-20.23 75.83,-60.44 -0.18,-4.85 0.13,-5.41 -2.2,-7.7 -12.09,-2.93 -24.18,-5.86 -36.27,-8.78 -18.86,-5.94 -37.32,-18.36 -51.64,-29.68 -47.71,-37.67 -68.67,-108.75 -89.02,-173.63 -21.14,-67.41 -45.93,-131.44 -67.03,-202.19 z m 124.18,870.33 v 1.1 c 31.13,4.03 62.27,8.06 93.4,12.09 104.25,25.54 202.36,59.2 256.05,135.16 h 2.2 c -4.78,-35.66 -32.06,-66.23 -50.55,-90.1 -57.74,-74.54 -149.4,-125.54 -243.96,-162.65 -5.72,1.01 -53.35,92.95 -57.14,104.4 z M 1351.7,6643.93 c -13.55,-21.98 -27.11,-43.97 -40.66,-65.94 -15.38,6.96 -30.77,13.92 -46.15,20.88 -84.77,37.11 -163.62,84.7 -215.39,154.95 -12.11,16.43 -48.52,63.97 -47.25,85.71 11.39,-5.56 17.21,-20.5 25.27,-29.67 19.51,-22.2 46.47,-40.61 72.53,-56.04 49.11,-29.09 109.32,-48.44 172.53,-62.64 29.67,-4.03 59.34,-8.06 89.01,-12.09 h 13.19 c -2.9,-13.74 -16.05,-24.46 -23.08,-35.16 z m 74.73,-407.7 c 9.62,-15.35 43.63,-75.53 7.69,-84.61 -9.52,1.09 -19.05,2.19 -28.57,3.29 -0.36,-0.73 -0.74,-1.46 -1.1,-2.2 36.68,-88.94 77.18,-215.82 82.42,-331.87 -11.36,27.1 -22.71,54.22 -34.07,81.32 -19.78,42.49 -39.56,84.99 -59.34,127.47 -38.86,91.72 -61.43,204.26 -174.72,220.89 -5.05,34.38 31.33,78.69 54.94,91.2 66.87,0.84 126.55,-63.71 152.75,-105.49 z m 94.51,-515.39 c -3.34,-79.79 -54.6,-223.53 -105.5,-248.36 59.09,90.72 103.82,212.67 101.1,362.65 11.06,-20.23 5.58,-85.94 4.4,-114.29 z M 1355,5491.17 c -37.69,85.47 -82.85,176.9 -97.8,283.52 17.4,-8.76 36.23,-58.52 46.15,-78.03 28.63,-56.29 45.39,-122.18 65.94,-186.81 11.35,-36.99 22.71,-74 34.06,-110.99 -18.52,14.77 -37.63,68 -48.35,92.31 z m -312.09,763.74 c -33.97,-1.51 -79.004,-1.05 -102.195,13.19 -5.867,5.86 -11.727,11.72 -17.586,17.58 -15.613,12.3 -36.156,18.21 -60.441,21.98 -92.153,14.31 -151.969,-45.03 -223.079,-52.75 h -1.097 c -0.367,0.73 -0.735,1.47 -1.102,2.2 47.977,22.16 84.488,57.71 131.871,79.12 22.961,10.37 48.313,11.78 73.629,21.98 35.52,0.04 57.426,-4.28 80.219,-13.19 5.676,-11.05 0.172,-30.21 7.691,-40.66 19.176,-26.65 114.76,-45.15 162.64,-45.05 -16.85,-1.47 -33.7,-2.93 -50.55,-4.4 z M 762.688,6042.82 c -46.575,13.34 -97.715,38.34 -124.176,72.53 -9.696,12.52 -11.52,36.62 -24.176,46.15 -29.481,22.2 -71.098,26.07 -107.695,41.76 -35.219,15.1 -65.883,44.05 -94.508,67.04 -25.078,20.13 -70.547,61.75 -50.547,110.98 20.914,51.49 82.992,71.55 143.957,83.52 20.512,1.83 41.027,3.67 61.535,5.5 39.192,-1.1 78.395,-2.2 117.586,-3.3 -16.848,-2.2 -33.703,-4.39 -50.547,-6.6 -44.918,-8.72 -92.754,-12.73 -131.871,-26.37 -20.43,-7.12 -45.746,-11.17 -46.152,-38.46 33.258,-35.25 154.297,-37.29 224.176,-36.26 -12.704,-7.03 -32.832,-3.73 -49.45,-6.6 -39.769,-6.85 -144.582,-6.59 -159.343,-34.06 0.597,-31.53 39.414,-43.15 62.632,-52.75 42.008,-17.35 84.551,-33.58 134.075,-41.76 31.507,-5.21 60.179,5.36 86.812,7.69 -16.187,-18.58 -102.73,-38.78 -138.465,-39.56 v -1.09 c 21.727,-23.36 94.43,-29.31 129.668,-12.09 0.371,-0.37 0.735,-0.74 1.106,-1.1 -19.539,-23.99 -44.168,-38.13 -61.543,-65.94 3.156,-13.17 30.586,-13.05 46.156,-9.89 21.074,4.28 41.125,12.06 58.242,20.88 8.516,4.39 14.274,11.37 25.274,13.19 -1.543,-32.27 -20.379,-45.77 -24.172,-71.43 17.703,-4.6 37.054,11.27 49.445,17.58 41.856,21.3 75.66,44.2 110.992,70.33 h 1.098 C 939.34,6104.09 839.68,6020.78 762.688,6042.82 Z m 571.432,16.49 c -0.73,-1.1 -1.46,-2.2 -2.2,-3.3 -13.08,-2.81 -20.55,7.84 -34.06,4.39 -11.87,-3.02 -13.87,-13.73 -30.78,-14.28 -2.56,2.93 -5.12,5.86 -7.69,8.79 -0.36,3.3 -0.73,6.59 -1.09,9.89 8.69,9.89 16.82,13.69 28.57,20.88 26.34,0.73 40.09,-8.25 47.25,-26.37 z m 2219.8,336.26 c -56.85,143.72 -348.78,233.46 -552.75,169.23 -73.47,-23.13 -141.12,-55.65 -202.21,-92.31 -31.49,-19.77 -63,-39.56 -94.5,-59.34 -20.54,-6.46 -59.16,-2.93 -79.12,2.2 -55.07,14.15 -147.52,80.47 -156.04,139.56 27.83,13.55 55.68,27.11 83.51,40.66 106.36,62.36 187.54,128.64 227.47,258.25 15.67,50.83 26.12,155.43 -2.19,202.2 -0.37,1.09 -0.74,2.19 -1.1,3.29 -15.01,-5.26 -22.2,-40.4 -28.57,-54.94 -17.99,-41.03 -40.73,-78.31 -67.04,-110.99 -51.42,-63.9 -130.32,-88.12 -229.67,-105.5 -19.45,-3.4 -69.98,-11.51 -92.31,-5.49 -7.32,5.86 -14.65,11.72 -21.97,17.58 -12.83,6.96 -25.65,13.92 -38.47,20.88 -17.21,5.86 -34.43,11.72 -51.65,17.58 -8.78,0.73 -17.58,1.46 -26.37,2.2 -6.64,2.6 -8.43,51.34 -10.99,61.54 -8.22,32.78 -32.41,98.28 -60.44,107.69 7.68,-45.33 1.59,-60.22 -12.09,-94.5 -1.1,-0.73 -2.2,-1.47 -3.29,-2.2 -4.59,14.43 -1.95,34.31 -7.69,48.35 -24.72,60.33 -92,103.21 -180.23,102.2 -12.45,-2.93 -24.91,-5.86 -37.36,-8.79 -11.72,-6.23 -23.44,-12.46 -35.16,-18.69 -0.74,-1.46 -1.47,-2.93 -2.2,-4.39 37.59,2.84 65.87,-16.27 75.82,-45.05 -0.37,-1.1 -0.73,-2.2 -1.1,-3.3 -12.92,0.78 -20.08,7.1 -29.67,10.99 -24.04,9.75 -62.99,19.45 -96.7,13.18 -92.06,-17.11 -173.45,-105.89 -280.22,-84.61 -27.48,5.47 -46.49,21.13 -69.23,27.47 1.5,-19.88 6.79,-38.13 8.78,-54.95 -0.73,-0.36 -1.46,-0.73 -2.19,-1.09 -47.07,17.98 -88.61,-19.37 -128.57,-27.47 -56,-11.36 -90.89,17.71 -123.08,32.96 -1.47,0.73 -2.93,1.46 -4.4,2.2 2.74,-19.47 15.97,-37.63 25.28,-51.65 29.22,-44.03 62.97,-79.83 136.26,-73.63 -2.61,-7.09 -7.77,-6.94 -13.18,-10.99 -7.7,-6.95 -15.39,-13.92 -23.08,-20.88 -25.8,-8.31 -117.87,17.49 -136.27,24.18 -136.83,49.78 -195.44,141.25 -236.264,285.72 h -4.395 c -8.672,-26.57 -16.453,-54.49 -21.976,-86.81 -5.008,-29.33 -1.602,-69.43 3.297,-94.51 28.386,-145.29 97.898,-222.6 204.398,-287.92 28.56,-15.01 57.14,-30.04 85.71,-45.05 11.32,-4.96 25.67,-7.43 34.07,-15.39 -1.82,-20.24 -19.17,-34.92 -31.87,-45.05 -41.33,-32.99 -58.27,-54.38 -123.08,-67.04 -11.57,-2.26 -33.69,-4.62 -45.05,0 -38.1,23.81 -76.194,47.63 -114.288,71.43 -62.238,37.22 -131.836,66.27 -207.695,89.01 -167.598,50.24 -356.281,-21.23 -452.746,-92.3 -31.961,-23.55 -62.535,-52.65 -76.926,-93.41 -22.273,-63.08 16.809,-112.51 42.855,-145.06 47.364,-59.19 121.754,-97.01 189.008,-136.26 30.77,-15.02 61.543,-30.04 92.313,-45.06 37.781,-24.73 62.816,-64.58 103.301,-85.72 34.796,-18.16 92.636,-40.1 151.644,-29.66 76.484,13.52 128.02,36.62 176.926,75.82 27.738,22.23 50.808,74.78 96.708,75.83 12.9,-12.7 26.36,-29.89 43.95,-37.37 7.69,-1.83 15.39,-3.66 23.08,-5.49 -23.34,-19.86 -73.03,10.33 -87.91,14.28 3.98,-12.98 19.95,-20.87 30.77,-27.47 86.39,-52.69 118.71,29.11 178.02,49.46 h 3.29 c -6.04,-13.53 -24.29,-18.56 -30.76,-34.07 -21.49,-51.5 18.68,-95.61 57.14,-103.3 16.43,-3.28 28.19,4.37 36.27,9.89 37.67,25.74 36.66,85.52 6.59,118.68 -20.65,22.77 -81.03,36.47 -121.98,20.88 -16.48,-8.42 -32.97,-16.85 -49.45,-25.27 -22.52,-8.57 -53.68,1.15 -61.54,17.58 -1.75,2.17 -1.49,1.5 -2.2,5.49 19.05,4.58 33.18,-15.46 54.95,-6.59 35.41,14.44 47.31,59.77 86.81,68.13 36.95,7.83 64.67,-14.21 80.22,-29.67 53.04,-52.73 54.29,-158.79 82.42,-236.27 v -1.09 c -15.27,4.95 -28.43,24.94 -51.65,31.87 -21.23,6.33 -45.35,-2.4 -68.13,2.19 -31.88,6.43 -57.95,52.21 -65.94,83.52 -0.73,0.37 -1.46,0.73 -2.19,1.1 -0.74,-0.37 -1.47,-0.73 -2.2,-1.1 11.59,-30.59 10.35,-88.38 4.39,-125.28 v -93.4 c 7.25,-44.75 2.12,-86.41 9.9,-127.47 15.89,-83.92 32.51,-159.95 58.24,-232.97 23.09,-65.56 50.2,-126.72 63.73,-202.2 8.44,-47.04 -3.48,-99.75 -9.89,-137.37 10.27,4.01 14.99,24.12 20.88,32.97 19.78,26.73 39.57,53.48 59.34,80.22 74.14,92.88 190.86,138.66 253.85,243.96 14.97,25.02 69.3,145.84 13.19,161.54 -48.78,13.64 -94.75,-64.04 -127.47,-78.02 l -4.4,-2.2 v 1.1 c 29.22,40.29 52.33,86.94 68.13,140.66 18.26,62.06 15.51,160.54 2.2,225.27 -32.4,157.51 -85.64,276.3 -167.04,382.42 -32.42,42.28 -97.14,110.72 -156.04,123.08 -0.73,1.1 -1.47,2.2 -2.2,3.3 23.02,7.1 42.28,10 59.34,21.98 50.3,35.31 58.32,96.12 90.11,150.55 22.58,38.65 53.09,69.35 95.61,87.91 36.42,15.89 78.71,22.07 124.17,29.67 91.39,15.28 212.58,-11.45 223.09,82.42 5.91,2.26 69.55,-25.45 89,-29.67 50.24,-10.92 105.34,2.56 134.07,24.18 5.87,6.59 11.73,13.18 17.58,19.77 15.93,-22.13 24.78,-40.4 51.66,-51.64 26.4,-11.05 63.35,-7.45 91.21,-19.79 h 2.19 c -6.55,-19.04 -29.23,-24.23 -34.06,-47.25 -5.34,-25.38 16.53,-37.94 29.67,-46.15 28.47,-17.79 62.12,-29.64 94.5,-43.96 20.15,-10.25 40.3,-20.51 60.44,-30.77 0.73,-1.1 1.47,-2.2 2.2,-3.3 -4.66,-3.01 -16.17,-1.09 -25.28,-1.09 -42.24,0.02 -101.25,11.76 -115.38,-20.88 1.59,-41.33 76.41,-27.39 101.1,-47.25 v -1.1 c -69.11,-9.28 -127.77,-47.7 -163.74,-91.21 -21.79,-26.36 -46.33,-50.03 -64.83,-80.22 -71.37,-116.47 -120.93,-306.72 -140.66,-472.54 19.77,57.51 39.56,115.03 59.34,172.53 66.62,162.98 177.81,418.22 398.9,415.39 -24.17,-7.32 -48.35,-14.65 -72.53,-21.98 -38.19,-16.33 -69.81,-39.44 -100,-63.74 -40.61,-32.68 -68.44,-82.27 -95.6,-128.57 -111.11,-189.36 -164.42,-589.29 -65.94,-839.57 20.02,-50.86 44.46,-94.96 75.83,-134.06 17.58,-17.22 35.16,-34.44 52.74,-51.65 26.23,-32.63 45.57,-63.43 62.64,-106.6 6.95,-17.56 16.52,-36.86 16.49,-60.43 0.73,-0.37 1.46,-0.74 2.2,-1.1 5.86,12.45 11.72,24.91 17.58,37.36 18.46,42.18 35.7,85.71 50.55,132.97 53.6,170.64 95.77,366.02 92.31,591.21 h 2.19 c 29.12,-216.23 23.22,-473.63 -32.96,-657.15 -18.18,-59.34 -39.02,-115.67 -62.64,-169.23 -13.19,-24.17 -26.38,-48.35 -39.56,-72.53 0.73,-19.04 1.46,-38.09 2.19,-57.14 -7.18,-43.58 -15.01,-76.12 -36.26,-104.39 -22.4,-29.81 -56.13,-46.29 -101.1,-53.85 -15.09,-2.54 -34.3,4.48 -46.15,1.1 -16.49,-15.38 -32.97,-30.78 -49.46,-46.16 -53.63,-41.78 -124.15,-78.81 -152.74,-145.05 -57.23,-132.57 58.43,-282.07 107.69,-360.45 10.68,-16.99 49.53,-92.39 63.74,-97.8 -7.76,39.67 -48.61,114.6 -30.77,164.84 15.44,43.49 79.58,25 113.18,49.45 52.43,38.14 70.27,152.71 107.7,209.89 11.61,17.74 36.96,52.74 71.43,35.16 76.41,-38.95 50.04,-222.27 34.07,-314.28 -4.65,-26.75 -12.03,-84.68 1.09,-107.7 1.1,-1.1 2.2,-2.2 3.3,-3.29 40.68,37.44 73.07,104.25 102.2,153.84 74.62,127.03 115.57,269.64 147.25,442.86 3.67,45.05 7.33,90.12 10.99,135.17 v 38.46 c 7.11,43.86 3.27,117.85 -3.3,159.34 -11.07,69.99 -6.54,135.94 -18.68,202.21 -21.68,118.36 -39.54,233.68 -70.33,337.36 17.17,-15.16 25.68,-49.07 36.27,-70.33 30.63,-61.51 57.64,-124.95 85.71,-191.21 53.18,-125.54 91.74,-263.1 128.57,-405.5 18.68,-84.24 37.37,-168.51 56.05,-252.75 16.48,-55.3 32.97,-110.63 49.45,-165.93 11.72,-33.33 23.44,-66.67 35.17,-100 0.73,-0.37 1.46,-0.74 2.19,-1.1 0.74,0.73 1.47,1.46 2.2,2.19 -14.93,44.76 -19.24,220.85 10.99,243.96 32.47,4.46 56.38,-66.14 65.94,-93.4 41.22,-117.68 49.97,-257.03 79.12,-387.92 h 1.1 c 0.73,0.73 1.46,1.47 2.19,2.2 -5.49,57.14 -10.99,114.29 -16.48,171.42 -21.14,122.25 -30.12,241.63 -62.64,350.56 -25.84,86.58 -54.67,169.91 -96.7,240.66 -38.46,64.74 -87.42,123.5 -118.68,194.51 -19.91,45.19 -35.85,95.06 -48.36,147.25 -14.37,59.96 -22.1,119.66 -42.86,172.53 -38.62,98.42 -85.44,187.33 -138.46,271.43 -49.07,77.85 -108.52,145.84 -134.06,247.25 -11.37,45.13 -5.18,104.61 -6.6,154.95 0.74,0.37 1.47,0.74 2.2,1.1 37.31,-19.26 74.55,-21.66 112.09,1.1 8.79,6.23 17.58,12.45 26.37,18.68 1.47,1.83 2.93,3.67 4.4,5.5 v 1.1 c -8.43,-4.4 -16.85,-8.8 -25.28,-13.19 -23.05,-8.01 -53.1,-8.53 -75.82,-2.2 v 3.3 c 45.45,-4.24 64.77,32.49 91.21,51.65 56.83,-3.98 79.17,-65.24 114.29,-93.41 48.56,-38.97 97.6,-62.09 173.62,-75.83 60.58,-10.94 121.63,11.47 160.44,29.68 45.05,21.12 71.86,61.21 113.19,85.71 21.98,9.52 43.96,19.05 65.94,28.57 74.75,38.05 170.99,90.44 220.88,152.75 27.02,33.75 62.61,88.4 38.46,149.45 z m -1616.5,-1709.9 c -112.47,-17.08 -231.46,11.12 -337.36,3.29 -0.37,-1.09 -0.73,-2.19 -1.1,-3.29 58.58,-85.89 213.09,-213.84 357.14,-128.58 44.41,26.29 75.91,64.59 115.39,95.61 12.32,9.68 24.44,23.12 39.56,29.67 0.73,2.2 1.46,4.4 2.2,6.59 -18.6,6.35 -44.27,5.91 -69.24,5.5 -35.52,-2.93 -71.06,-5.86 -106.59,-8.79 z m -123.07,74.72 c 38.82,6.62 86.66,0.42 120.87,-6.59 85.08,-17.44 154.91,-45.55 235.17,-64.84 40.15,-9.64 94.35,-9.23 124.18,8.8 38.26,23.11 54.48,57.91 64.83,109.89 5.01,25.14 6.06,63.98 1.1,91.21 -6.73,36.94 -10.44,73.83 -20.88,107.69 -16.33,53 -43.61,96.15 -61.53,143.96 -1.1,0.73 -2.2,1.46 -3.3,2.19 -0.37,-0.73 -0.74,-1.46 -1.1,-2.19 15.63,-32.08 17.5,-90.98 17.58,-135.17 0.15,-82.8 9.1,-193.16 -28.57,-240.66 -9.25,-11.66 -26.1,-16.57 -41.76,-21.98 -103.57,-35.74 -199.23,30.48 -275.83,50.55 -0.36,0.73 -0.73,1.47 -1.1,2.2 49.17,7.52 137.62,-12.7 151.65,35.16 6.19,21.08 -12.57,33.05 -24.17,40.66 -33.56,22.03 -82.75,35.25 -106.6,67.03 -21.59,28.79 -11.46,74.98 4.4,101.11 36.34,59.88 98.79,102.98 169.23,128.57 3.3,-0.74 6.6,-1.47 9.89,-2.2 20.79,-80.31 -175.64,-114.44 -149.45,-198.9 12.81,-41.31 88.31,-38.04 124.18,-19.78 50.38,25.64 65.94,86.32 65.93,162.64 0,30.88 -2.62,56.5 -14.28,75.82 -19.39,32.11 -72.01,39.73 -123.08,29.67 -74.66,-14.71 -194.96,-38.52 -285.72,-23.08 -64.82,11.04 -114.15,31.44 -186.81,30.77 -10.63,-3.29 -21.25,-6.59 -31.87,-9.88 -27.69,-16.65 -38.13,-52.8 -46.16,-89.02 -18.79,-84.77 35.47,-213.52 127.48,-187.91 33.51,9.33 50.63,45.65 29.67,80.22 -28.71,47.36 -98.53,74.73 -98.91,147.25 0.38,0.74 0.74,1.47 1.11,2.2 16.97,6.12 45.86,-22.01 58.24,-30.77 41.11,-29.09 118.62,-93.71 94.5,-173.62 -21.41,-70.96 -140.03,-67.99 -153.85,-129.68 -12.41,-55.41 99.15,-56.54 148.36,-56.04 -16.64,-15.94 -60.44,-30.86 -84.62,-39.56 -53.34,-19.2 -156.89,-39.89 -195.6,8.79 -43.59,54.8 -35.5,244.75 -19.78,328.57 5.36,28.57 5.25,57.65 16.48,79.12 v 3.3 c -21.73,-13.64 -32.97,-51.18 -46.15,-73.63 -46.6,-79.32 -139.66,-316.16 -29.67,-393.4 36.8,-25.85 112.11,-31.29 168.13,-18.69 65.07,14.64 119.12,39.57 179.12,58.25 37.01,11.52 77,14.87 118.69,21.97 z m 49.44,1471.44 c 61.42,18.88 101.78,140.22 75.83,226.38 -20.92,69.47 -88.54,130.9 -179.12,129.67 -16.81,-7.1 -30.79,-7.51 -40.66,-20.88 -14.17,-19.18 -9.9,-53.05 -1.1,-74.73 20.5,-50.49 56.02,-88.22 72.53,-142.85 13.13,-43.48 4.14,-138.61 72.52,-117.59"
         style="fill:url(#linearGradient945);fill-opacity:1;fill-rule:evenodd;stroke:none"
         id="path947" />
      <path
         d="m 9406.18,4823.62 c -20.83,-0.42 -41.66,-0.85 -62.49,-1.28 -47.36,-7.48 -87,-9.21 -119.88,-29.33 -47.74,-29.21 -109.79,-137.69 -59.94,-209.15 24.65,-35.35 74.49,-39.99 112.22,-62.49 14.71,-8.78 20.07,-25.54 33.17,-34.44 81.25,41.93 78.99,150.21 -8.93,183.65 -26.27,9.99 -114.82,3.92 -82.9,54.84 15.9,25.36 71.69,39.29 118.61,31.88 51.54,-8.14 104.8,-27.56 161.97,-22.96 51.68,4.16 93.55,13.85 140.28,21.69 49.4,8.28 110.05,-1.6 128.81,-29.34 8.66,-12.8 4.76,-36.09 -6.38,-43.36 -20.91,-13.65 -67,-6.31 -89.26,-20.4 -65.55,-41.49 -60.09,-140.38 7.64,-174.72 10.21,9.77 20.41,19.55 30.61,29.33 35.77,22 87.09,27.53 112.23,59.94 30.68,39.54 21.36,106.12 0,147.94 -61.46,120.35 -237.63,99.48 -415.76,98.2 z m 58.66,802.19 c 11.82,-39.89 29.41,-86.5 29.34,-133.91 1.7,-0.43 3.4,-0.85 5.1,-1.28 1.97,42.25 14.37,80.08 24.24,116.06 37.11,135.48 82.91,254.03 154.31,354.54 23.8,29.76 47.61,59.52 71.42,89.28 11.08,13.76 34.87,27.36 40.81,44.64 -40.38,-21.26 -80.77,-42.52 -121.15,-63.77 -46.52,-20.28 -95.26,-31.63 -154.32,-40.81 -87.36,-13.58 -208.1,45.73 -258.9,75.24 -19.13,10.63 -38.26,21.26 -57.39,31.88 6.82,-17.65 28.29,-28.08 39.53,-42.08 21.68,-26.36 43.37,-52.72 65.05,-79.07 73.68,-100.33 121.93,-215.6 161.96,-350.72 z M 10934,5907.66 c -56.8,-34.03 -120.1,-69.49 -211.7,-67.59 2.6,-22.33 29.5,-50.96 12.8,-73.97 -16.2,-22.33 -57.4,-22.31 -90.6,-28.06 -83.5,-14.51 -228.9,39.54 -244.8,90.55 52.5,-4.37 94.4,-24.74 155.6,-24.23 0.4,0.42 0.8,0.85 1.2,1.27 -11.4,38.51 -71.2,79.63 -88,117.33 -0.8,0.85 -1.7,1.7 -2.5,2.55 v 1.28 c 37,-3.74 147.3,-58.28 176,-48.47 7,7.77 2.1,38.82 3.8,48.47 15.9,11.14 74,-6.92 100.8,-11.48 72.3,-12.34 166.9,-2.15 223.1,16.58 0.5,-0.43 0.9,-0.85 1.3,-1.28 -8.7,-10.88 -24.6,-15.57 -37,-22.95 z m -686.1,-211.71 c -95,67.65 -207.9,-4.54 -241,-79.07 -15.15,-34.04 -18.38,-91.35 -53.6,-105.85 -8.03,8.96 4.79,47.64 8.93,61.21 12.2,39.98 44.77,130.31 75.27,147.94 0.8,1.28 1.7,2.55 2.5,3.83 -5.5,3.44 -23.1,7.47 -30.6,10.2 -0.8,2.98 -1.7,5.95 -2.5,8.93 24.2,38.21 44.1,70.97 85.4,91.82 17.9,5.53 35.7,11.06 53.6,16.59 14.4,-0.86 28.9,-1.71 43.3,-2.56 34,-14.56 63.8,-96.82 62.5,-150.49 z m -130.1,-84.17 c 1.5,26.41 27.9,31.83 45.9,42.09 5.6,-0.85 11.1,-1.7 16.6,-2.55 15.8,-24.97 -22.8,-68.86 -52.3,-51.02 -5.7,2.7 -7.5,5.85 -10.2,11.48 z m 84.2,-167.07 c 35.6,-22.84 3.9,-129.97 -7.7,-154.32 -29.1,-61.44 -60.7,-118.94 -81.6,-190.02 -18.5,-62.9 -11.4,-143.48 -25.5,-212.98 -10.8,-53.6 -22.7,-105.87 -42.1,-151.77 -9.3,-18.7 -18.7,-37.41 -28,-56.11 h -5.1 c -3.2,62.98 -55,137.65 -76.55,192.57 -51.84,132.09 -68.38,345.6 -25.51,501.21 20.99,76.18 42.13,117.35 116.06,140.29 82.9,25.73 151.5,-23.5 183.6,61.21 7,18.27 11.8,39.92 6.4,61.22 13.5,-7.24 17,-28.09 20.4,-45.91 11.3,-59.12 -19.6,-104.91 -51,-130.09 -8.1,-6.8 -16.1,-13.6 -24.2,-20.4 v -1.28 c 13.6,2.13 27.2,4.26 40.8,6.38 z M 9982.64,4390 c -16.75,-73.69 -95.22,-80.63 -169.62,-54.84 -78.46,27.2 -187.97,102.64 -218.09,176 -8.77,21.37 -11.03,61.43 -3.83,86.72 -11.52,7.54 -50.97,-6.21 -66.31,-8.92 -45.86,-8.11 -85.94,6.86 -126.26,11.47 2.28,-22.33 7.74,-53.37 1.27,-76.52 -21.29,-76.28 -134.97,-154.48 -206.6,-183.64 -83.08,-33.83 -165.26,-29.13 -184.93,58.66 -14.67,65.5 6.07,160.58 19.13,212.98 19.95,80 47.07,142.17 73.98,210.43 8.92,27.21 17.85,54.42 26.77,81.63 39,65.73 79.48,109.84 105.86,193.85 47.93,152.61 36.81,385.35 -20.41,516.51 -16.68,38.25 -39.75,74.13 -63.77,105.85 -11.47,14.03 -22.95,28.06 -34.43,42.09 -9.77,9.35 -19.55,18.71 -29.33,28.06 h -1.28 c 5.87,-23.04 30.62,-52.96 40.82,-77.8 21.81,-53.13 35.52,-111.12 49.73,-172.17 28.22,-121.24 34.59,-316.36 5.11,-439.99 -11.06,-39.53 -22.11,-79.08 -33.16,-118.61 -10.2,-23.38 -20.41,-46.76 -30.61,-70.14 -0.85,-0.42 -1.7,-0.85 -2.55,-1.27 20.67,60.4 9.31,134.71 20.4,205.32 5.1,32.42 6.41,80.1 1.28,113.51 -7.69,50.1 1.48,97.28 -6.38,144.11 -31.65,188.74 -58.73,409.73 -192.57,493.56 -54.28,33.99 -93.93,28.97 -168.34,24.23 -21.35,67.11 18.28,119.39 75.24,131.36 -0.58,14.49 -17.6,36.47 -21.69,57.39 -11.46,58.7 16.94,116.27 33.16,156.87 -14.59,10.48 -86.79,-1.86 -113.5,2.55 -71.81,11.85 -140.19,9.72 -202.78,26.78 -133.2,36.29 -255.99,87.13 -329.04,183.65 -30.21,39.93 -63.39,101.05 -45.91,176 23.93,102.66 73.27,184.39 113.5,270.37 11.65,-7.97 10.63,-33.44 14.03,-49.74 7.19,-34.34 13.31,-86.07 6.38,-127.54 -3.51,-20.97 -9.18,-50.29 -5.1,-75.24 16.14,-98.71 64.74,-149.33 136.46,-191.3 101.41,-59.35 263.91,-57.4 423.42,-57.39 55.68,-0.43 111.38,-0.85 167.07,-1.28 27.19,14.88 54.41,29.76 81.62,44.64 38.15,16.65 82.44,22.49 130.08,30.61 61.71,10.52 133.8,-1.77 186.2,-12.75 22.16,-4.65 55.62,-13.31 82.9,-8.93 44.63,5.95 89.27,11.9 133.9,17.85 29.37,5.51 73.27,12.36 109.69,6.38 50.94,-8.37 96.28,-13.02 136.46,-30.61 25.92,-15.3 51.86,-30.61 77.79,-45.91 59.5,-0.43 119,-0.85 178.6,-1.28 178.1,0.02 341.5,4.55 450.1,72.7 61.2,38.38 96.9,90.4 111,177.27 -1.7,26.36 -3.4,52.72 -5.1,79.07 -7,43.37 0.5,94.58 8.9,128.81 3.4,13.76 2.5,31.35 10.2,40.81 17.4,-11.41 39.9,-74.61 49.8,-96.92 47.8,-108.31 108.9,-227.5 24.2,-345.62 -110.7,-154.25 -380.7,-215.4 -654.3,-211.71 -0.4,-0.85 -0.8,-1.7 -1.2,-2.55 20,-40.21 60.4,-166.89 11.5,-205.33 v -3.83 c 58.4,-32.6 86.2,-42.19 79,-133.9 -0.4,-0.43 -0.8,-0.85 -1.3,-1.28 -25.3,3.26 -55.8,12.01 -86.7,6.37 -130.4,-23.8 -179.67,-128.5 -216.78,-246.13 -24.87,-78.85 -38.74,-162.78 -54.85,-255.07 -2.11,-37.41 -4.24,-74.83 -6.37,-112.23 -0.42,-43.79 -0.85,-87.58 -1.27,-131.36 1.7,-30.61 3.4,-61.22 5.1,-91.83 5.52,-46.33 11.05,-92.68 16.58,-139.01 h -1.28 c -20.23,50.82 -43.7,102.13 -58.66,160.69 -37.43,146.52 -30.99,356.7 5.09,501.21 13.11,52.47 30.01,102.59 51.02,147.94 11.47,20.4 22.96,40.81 34.43,61.22 h -1.27 c -50.86,-40.4 -93.92,-107.44 -123.71,-168.35 -21.65,-44.26 -35.84,-94.6 -47.18,-150.49 -30.84,-151.84 -0.69,-329.04 47.18,-438.71 22.24,-50.96 61.97,-88.54 86.72,-135.19 6.38,-21.68 12.76,-43.36 19.13,-65.04 13.19,-32.31 26.36,-64.62 39.54,-96.93 29.69,-72.38 80.58,-240.66 56.12,-348.17 z m -633.85,-109.67 v 3.82 c 32.23,14.69 93.17,-5.35 127.54,7.65 55.09,-0.15 107.31,-4.06 158.13,-5.1 0.85,-1.28 1.71,-2.55 2.56,-3.83 -46.99,-41.67 -236.73,-37.26 -288.23,-2.54 z m 391.53,-66.32 c -98.89,-149.54 -467.64,-135.81 -520.34,44.64 v 1.27 c 7,3.93 26.33,13.96 36.98,11.48 13.19,-8.51 26.36,-17.01 39.54,-25.51 24.78,-14.3 57.06,-22.61 86.72,-30.61 117.09,-31.54 279.7,-2.83 343.07,57.39 11.9,-2.97 23.81,-5.95 35.71,-8.93 1.28,-0.85 2.55,-1.7 3.83,-2.54 -2.78,-18.67 -16.56,-33.67 -25.51,-47.19 z m -762.65,464.22 c -22.17,9.64 -45.89,95.77 -54.84,124.99 -12.32,40.23 -18.82,85.61 -26.79,132.63 -9.02,53.26 -3.91,106.32 -15.3,154.31 -18.77,79.14 -54.34,138.26 -82.9,205.34 -8.83,20.74 -40.27,126.03 -6.38,144.11 9.05,3.96 25.77,0.17 33.17,-2.55 0.85,0.42 1.7,0.85 2.55,1.27 -6.18,17.78 -32.2,26.68 -43.36,40.81 -31.35,39.66 -43.61,96.02 -16.58,150.49 h 3.82 c -8.42,-62.92 33.35,-101.87 85.45,-110.95 30.6,-0.42 61.21,-0.85 91.82,-1.27 39.6,-7.25 82.22,-28.36 100.75,-57.4 23.9,-37.42 29.78,-90.52 40.81,-140.28 33.92,-152.92 10.88,-342.28 -38.25,-461.67 -15.3,-31.88 -30.61,-63.78 -45.92,-95.66 -11.07,-25.11 -15.21,-55.06 -28.05,-81.62 z m -107.13,938.65 c -0.95,-9.22 -3.57,-9.95 -7.65,-15.3 -26.23,-7.59 -71.94,9.24 -56.12,44.63 1.28,1.7 2.56,3.4 3.83,5.11 34.42,0.41 45.36,-15.42 59.94,-34.44 z m -126.26,77.8 h -5.1 c -0.28,76.12 22.98,134.97 76.52,158.14 62.18,0.3 110.59,-28.26 137.74,-63.77 4.6,-6.02 30.82,-44.69 26.77,-54.84 -8.49,-4.25 -17,-8.5 -25.5,-12.75 3.53,-19.42 33.17,-53.79 43.37,-73.97 19.7,-39.06 27.72,-83.25 40.81,-130.08 -0.85,-1.7 -1.7,-3.41 -2.56,-5.11 -32.6,2.7 -34.19,54.92 -44.63,80.35 -24.43,59.52 -59.65,107.71 -127.54,123.71 -41.32,9.74 -100.64,3.09 -119.88,-21.68 z m -156.87,132.63 c -28.34,-49.13 -144.29,-103.8 -232.11,-90.55 -39.72,6 -103.81,3.91 -109.67,42.09 -4.6,16.34 14.76,44.57 20.4,59.94 -11.86,5.49 -32.44,1.21 -47.19,3.83 -22.95,5.52 -45.92,11.05 -68.87,16.58 -49.66,16.2 -87.13,48.82 -131.36,66.31 -0.43,1.71 -0.85,3.4 -1.28,5.1 23.81,-4.67 47.62,-9.35 71.42,-14.02 70.86,-13.08 196.78,-7.11 249.97,16.58 2.13,-0.85 4.25,-1.71 6.38,-2.56 3.87,-14.72 2.85,-31.24 2.55,-51.01 21.07,-9.37 142.66,37.04 165.79,47.19 h 5.1 c -2.94,-15.48 -17.25,-24.9 -25.5,-35.71 -20.4,-28.48 -40.81,-56.97 -61.22,-85.45 24.59,-17.48 129.34,20.95 155.59,22.96 z m 2581.29,145.39 c -10.9,56.21 -99.6,92.11 -149.2,113.5 -42,18.08 -89.7,33.56 -139,44.64 -27.2,3.83 -54.4,7.65 -81.7,11.48 h -84.1 c -35.5,-5.75 -64.6,-3.62 -95.7,-11.48 -85.7,-21.66 -157.2,-57.66 -221.9,-100.75 -25.9,-18.7 -51.8,-37.41 -77.8,-56.11 h -3.8 c -0.5,45.36 7,92.83 37,107.13 v 3.82 c -47.7,-11.98 -109.9,-23.73 -109.7,43.36 22.5,1.28 45.1,2.55 67.6,3.83 53.4,8.56 106.9,8.76 156.9,20.4 181.1,42.21 313.3,120.78 395.3,261.45 88.7,152.1 -6,334.2 -63.8,447.65 -15.6,30.76 -47.2,112.02 -80.3,119.88 -33.7,8 -52.6,-35.08 -61.2,-54.84 -17.2,-39.59 -21,-82.7 -29.3,-135.19 -9.1,-57.3 15.3,-114.94 1.2,-165.79 -19.9,-71.8 -86.3,-109.83 -156.8,-131.36 -97.5,-29.78 -227.1,-25.52 -352,-25.51 h -141.59 c -21.68,12.75 -43.36,25.51 -65.04,38.26 -52.64,23.09 -157.17,55.39 -239.77,42.09 -55.2,-8.89 -148.03,-30.5 -210.43,-20.41 -74.86,12.11 -163.9,31.38 -247.42,16.58 -55.39,-9.82 -105.28,-20.2 -149.21,-40.81 -19.13,-11.9 -38.26,-23.81 -57.39,-35.71 h -121.16 c -98.61,0.01 -203.06,-6.94 -290.77,8.93 -108,19.52 -213.33,53.03 -235.94,156.86 -6.71,30.81 -2.01,75.38 2.55,104.58 10.87,69.66 -7.81,148.73 -29.34,191.3 -11.97,23.68 -22.13,49.34 -56.11,51.02 -53.65,-28.12 -95.13,-137.5 -121.15,-196.41 -20.63,-46.66 -43.46,-92.72 -57.4,-147.94 -25.99,-102.92 9.65,-198.33 52.29,-258.89 86.23,-122.48 207.92,-183.83 376.23,-225.74 49.1,-12.22 103.49,-11.61 156.87,-20.4 19.55,-0.85 39.11,-1.7 58.66,-2.55 h 2.55 c -0.03,-63.21 -57.44,-54.89 -107.13,-47.19 8.07,-12.33 16.16,-24.66 24.24,-36.99 7.35,-18.07 3.43,-40.08 8.92,-62.49 v -6.37 c -20.48,3.59 -41.15,27.45 -57.39,38.26 -42.36,28.2 -88.08,56.95 -136.47,77.79 -170.92,73.62 -390.68,54.65 -543.29,-22.95 -40.41,-20.55 -100.11,-45.43 -113.5,-91.83 -16.76,-58.08 78.4,-165.11 105.85,-192.57 91.34,-91.36 205.67,-160.07 353.27,-195.13 119.3,-28.34 223.39,-7.76 300.98,40.81 19.84,12.42 43.27,25.3 57.39,43.36 21.26,-4.25 42.52,-8.5 63.77,-12.75 1.28,-0.85 2.55,-1.7 3.82,-2.55 -17.31,-38.59 -82.2,-43.64 -86.72,-68.87 14.88,-29.99 47.79,-36.08 79.07,-49.74 4.68,-21.25 9.35,-42.51 14.03,-63.76 3.83,-10.63 7.66,-21.26 11.48,-31.89 -3.82,-13.6 -7.65,-27.21 -11.48,-40.81 -6.37,-26.52 -3.43,-66.63 2.55,-90.55 7.67,-30.69 18.58,-61.46 33.16,-86.73 9.35,-16.15 18.71,-32.3 28.06,-48.46 -5.96,-51.43 -11.9,-102.88 -17.86,-154.31 -12.61,-80.81 2.92,-193.62 19.13,-257.62 18.13,-71.56 44.21,-135.93 79.07,-191.3 17.28,-27.44 51.95,-58.8 65.05,-84.17 5.71,-11.05 -5.75,-85.34 -1.28,-109.68 12.55,-68.32 53.93,-114.04 116.06,-132.64 17.43,-2.12 34.86,-4.25 52.28,-6.38 19.87,-9.78 71.68,-99.92 86.73,-123.7 79.23,-125.25 156.37,-252.74 218.09,-396.64 27.17,-63.35 45.2,-189.63 109.67,-211.7 69.27,-23.72 97.74,37.69 114.78,81.62 52.67,135.74 94.31,273.08 150.49,401.73 26.25,60.11 54.66,121.24 86.73,176 12.13,20.71 23.28,57.48 42.09,71.42 19.55,2.97 39.11,5.95 58.66,8.93 36.71,11.14 66.87,34.33 86.67,62.49 16,22.55 22.8,50.71 28.1,84.17 -1.3,30.61 -2.5,61.22 -3.8,91.83 17.8,23.38 35.7,46.76 53.6,70.14 32,45.63 58.2,101.22 76.5,159.42 13.3,42.5 20.9,87.23 29.3,135.18 1.3,21.68 2.5,43.37 3.8,65.05 0.4,31.88 0.9,63.77 1.3,95.65 -5.5,55.68 -11,111.38 -16.6,167.07 8.1,12.75 16.2,25.5 24.3,38.25 17.8,30.46 31.4,66.67 39.5,105.86 8.6,41.44 -4.6,81.3 -10.2,112.23 7.6,34.85 15.3,69.72 22.9,104.57 28,6.77 74.6,25.46 77.8,56.12 -24.1,24.56 -72.3,24.27 -84.1,61.22 0.4,1.27 0.8,2.55 1.2,3.82 16.6,5.1 34.4,11.56 54.9,11.48 41.9,-37.38 95.5,-69.81 155.6,-88 52,-15.73 140.1,-9.39 191.3,1.28 113.4,23.64 205.5,64.25 285.7,121.15 28.1,20.02 51.2,46.29 77.7,67.6 42.5,34.11 72.6,81.52 98.2,132.63 7.4,14.62 22.5,40.37 17.9,63.77"
         style="fill:url(#linearGradient957);fill-opacity:1;fill-rule:evenodd;stroke:none"
         id="path959" />
      <path
         d="m 6856.88,5811.04 c -2.54,4.07 -5.09,8.14 -7.63,12.22 2.95,25.12 21.3,33.09 38.18,44.29 3.06,-0.51 6.11,-1.02 9.16,-1.53 3.57,-2.54 7.13,-5.09 10.7,-7.63 9.26,-32.21 -17.66,-57.81 -50.41,-47.35 z m -195.5,3.05 c -25.6,-7.1 -41.37,9.13 -48.88,29.02 1.02,5.6 2.03,11.21 3.06,16.81 3.56,2.54 7.13,5.08 10.68,7.63 26.77,0.48 41.08,-15.34 42.77,-39.71 -2.55,-4.58 -5.09,-9.16 -7.63,-13.75 z m 255.07,119.14 c -10.75,6.71 -74.86,-6.26 -88.59,-9.16 -27.92,-5.91 -69.07,-16.94 -103.87,-10.7 -37.51,6.73 -70.06,21.47 -113.02,21.38 -46.31,-30.45 -61.79,-151.15 1.53,-174.12 45.26,-16.42 126.27,4.87 184.81,3.06 55.07,-1.71 125.64,-15.78 145.1,29.02 13.43,30.89 -9.28,130.1 -25.96,140.52 z m -39.71,-328.39 c -19.86,-0.51 -39.72,-1.02 -59.57,-1.53 -1.02,-0.51 -2.03,-1.02 -3.06,-1.53 -27.14,-139.48 -119.56,-196.46 -158.85,-322.27 -27.58,-88.35 -19.54,-206.44 -42.76,-299.37 -21.04,-84.21 -57.62,-150.55 -103.87,-209.26 -33.63,-42.7 -112.1,-124.14 -157.32,-152.74 -14.2,-8.98 -40.2,-21.68 -65.68,-16.8 -111.25,21.29 -86.24,230.97 -51.93,323.81 v 4.58 h -4.58 c -27.21,-20.25 -47.52,-48.48 -65.67,-77.9 -59.01,-95.58 -64.82,-201.91 6.1,-291.73 13.95,-17.66 36.83,-35.71 56.51,-47.35 9.68,-4.58 19.35,-9.16 29.03,-13.75 15.76,-20.72 32.22,-112.86 39.71,-145.1 20.59,-88.62 22.4,-208.93 -7.63,-288.68 -14.03,-37.22 -62.82,-102.76 -53.47,-151.21 10.54,-54.53 58.34,-89.9 80.96,-137.46 18.86,-39.68 23.7,-90.69 59.57,-113.03 54.96,-34.24 183.03,-10.07 261.18,-16.8 0.51,1.02 1.02,2.03 1.52,3.05 -32.55,42.77 -72.29,73.8 -94.69,128.31 -26.59,64.68 -26.73,147.8 -50.4,215.36 -22,62.74 -70.72,126.39 -53.46,227.58 16.76,98.3 48.45,167.32 71.79,252.02 5.08,33.6 10.17,67.21 15.27,100.81 v 62.62 c 23.93,27.49 47.86,54.99 71.79,82.48 43.14,57.29 78.76,123.56 102.33,200.09 29.7,96.44 17.47,228.27 48.88,328.39 40.98,130.66 146.21,166.16 142.05,354.35 -4.59,1.02 -9.17,2.04 -13.75,3.06 z m 100.81,241.33 c 4.66,-25.6 6.21,-68.53 -4.59,-88.59 -23.48,-43.64 -91.13,-53.98 -154.27,-39.71 -21.88,4.07 -43.78,8.14 -65.67,12.21 -55.99,-6.93 -146.83,-43.57 -200.09,-4.58 -62.11,45.47 -5.63,225.91 42.76,247.44 32.35,14.39 72.52,19.41 111.51,25.97 15.27,1.02 30.54,2.03 45.82,3.05 69.06,-2.54 167.55,-24.25 197.03,-64.15 17.92,-24.25 20.9,-55.42 27.5,-91.64 z m 632.33,586.51 c -15.18,81.54 -203.68,131.39 -307,100.81 -54.73,-16.19 -95.17,-48.88 -143.57,-68.73 -21.39,-3.05 -42.78,-6.11 -64.15,-9.16 -3.7,-4.47 -1.24,-5.69 0,-13.75 -25.44,-14.8 -52.39,-25.38 -74.85,-42.76 -75.09,-58.15 -91.53,-151.94 -119.14,-259.66 1.27,-4.26 0.8,-2.62 -1.52,-6.12 h -1.52 c -17.91,77.09 -30.62,180.98 -9.17,265.78 18.76,74.2 61.52,161 33.6,247.43 v 1.53 c 1.01,0.51 2.04,1.02 3.06,1.52 31.24,-30.08 74.28,-59.59 116.08,-77.89 177.79,-77.85 353.37,36.02 421.56,151.21 21.28,35.96 24.4,76.47 36.65,123.72 v 6.11 h -6.1 c -29.53,-24.43 -59.06,-48.88 -88.6,-73.32 -73.94,-58.84 -161.88,-169.34 -307,-125.24 -46.59,14.15 -78.76,47.98 -114.56,73.31 -59.69,42.24 -118.66,67.22 -209.25,80.96 -121.81,18.46 -245.14,-89.23 -314.64,-132.89 -49.38,-31.01 -111.19,-51.51 -175.65,-16.8 -20.9,11.25 -41.61,28.08 -58.05,44.3 -26.47,29.01 -52.94,58.04 -79.42,87.06 h -6.1 c -1.11,-29.13 -4.85,-57.82 3.04,-84.01 25.68,-85.15 139.84,-194.06 268.83,-161.9 46.52,11.59 87.63,32.13 122.19,56.51 15.78,12.22 31.57,24.44 47.35,36.66 l 6.11,6.1 h 1.53 c -8.23,-111.46 31.91,-179.31 50.4,-279.51 4.37,-23.67 8.65,-58.13 4.58,-84 -7.24,-46.01 -4.35,-122.04 -27.49,-149.69 -5.6,30.54 -11.2,61.1 -16.8,91.65 -22.02,79.69 -56.41,166.09 -134.41,189.39 -16.8,1.02 -33.6,2.04 -50.4,3.06 2.03,17.3 4.07,34.62 6.1,51.93 -26.92,6.23 -58.62,2.01 -82.48,10.69 -51.83,18.86 -94.46,49.95 -154.27,62.62 -84.55,17.92 -212.19,-30.18 -224.52,-87.06 -8.79,-40.55 21.1,-69.88 38.19,-87.06 44.47,-44.7 160.02,-115.05 262.71,-97.75 29.23,4.92 54.68,11.74 76.37,24.44 12.72,7.12 25.46,14.25 38.18,21.38 h 4.58 c 18.24,-11.65 24.67,-42.96 42.78,-56.52 20.52,-15.37 51.83,-15.26 82.47,-21.38 h 1.53 c 9.12,28.58 3.87,73.67 -13.75,85.54 -24.67,16.63 -45.36,-2.38 -45.82,-27.49 -1.52,-1.03 -3.06,-2.05 -4.58,-3.06 -5.19,3.22 -6.73,4.61 -9.17,10.69 -9.36,26.1 40.36,52.4 68.74,44.29 41.94,-11.98 46.35,-80.22 33.6,-128.3 -19.87,-11.92 -69.14,-6.66 -99.28,-6.11 -14.1,-53.31 33.63,-155.05 42.77,-206.2 8.41,-47.1 -8.42,-89.65 -16.81,-123.71 -23.13,-93.87 -5.24,-199.51 56.52,-236.75 43.65,-26.32 136.12,-15.21 186.33,-1.53 17.49,4.77 38.97,18.61 62.63,13.75 59.64,-12.25 167.86,-40.57 227.59,-4.58 59.65,35.94 71.41,136.3 51.92,224.52 -6.61,29.98 -21.43,68.59 -15.27,106.92 13.41,83.4 45.28,137.96 44.3,229.11 -35.64,-0.51 -71.28,-1.02 -106.92,-1.53 -1.53,0.51 -3.05,1.02 -4.59,1.53 3.06,7.79 8.82,8.17 13.75,13.75 1.02,22.4 2.04,44.8 3.06,67.21 19.58,71.41 74.32,59.38 113.03,16.8 0.5,-2.55 1.01,-5.1 1.52,-7.64 -4.58,-3.06 -9.16,-6.11 -13.74,-9.16 -10.23,12.21 -9.38,28.86 -27.5,33.6 -33.51,8.76 -59.38,-40.96 -42.76,-68.74 4.98,-10.5 13.75,-13.49 29.02,-13.74 53.22,-0.89 75.42,31.16 94.7,64.15 18.76,-2.24 29.34,-16.25 42.76,-24.44 23.72,-14.48 52.64,-28.34 82.48,-35.13 114.89,-26.13 240.25,50.13 297.84,96.22 19.41,15.53 57.67,48.08 50.4,87.06 z M 6006.12,5838.53 c 5.45,34.33 0.32,62.98 7.64,91.64 9.93,38.85 27.31,70.96 45.82,100.81 2.04,-0.51 4.07,-1.02 6.11,-1.53 -6.79,-111.44 62.36,-189.22 42.77,-319.22 -11.25,-74.68 -19.41,-138.05 -42.77,-198.56 -18.33,-42.76 -36.66,-85.54 -54.99,-128.3 -1.52,-1.02 -3.05,-2.04 -4.58,-3.06 -0.5,56 -1.01,112.02 -1.53,168.01 0.52,96.73 1.03,193.49 1.53,290.21 z m 35.13,-1878.7 c -8.65,19.35 -17.3,38.7 -25.97,58.04 -22.43,55.19 -28.32,146.34 -13.74,215.37 20.99,99.42 67.32,168.11 85.53,267.29 10.87,59.14 -12.32,111.68 -21.38,160.38 -15.44,83 11.28,167.75 41.24,218.42 81.23,137.38 272.52,215.94 319.22,375.73 1.54,1.02 3.06,2.04 4.59,3.06 6.52,-42.86 -13.08,-104.44 -4.59,-157.32 9.72,-60.48 12.92,-113.68 33.61,-160.38 11.7,-17.82 23.42,-35.64 35.13,-53.46 h 6.11 c 20.64,46.86 44.95,88.62 58.04,148.16 10.61,48.25 14.52,121.5 6.11,174.12 -1.53,23.93 -3.06,47.86 -4.58,71.79 -14.35,77.54 -25.28,152.64 -47.36,223 -30.5,97.23 -75.31,179.84 -100.8,279.51 -19.29,75.44 -8.4,172.63 -24.44,255.08 -6.1,33.6 -12.22,67.21 -18.33,100.81 -7.35,28.32 -18.75,57.08 -16.8,90.11 -33.55,-4.43 -66.81,-18.08 -105.39,-24.43 -124.89,-20.58 -251,73.45 -297.84,134.41 -18.33,27.49 -36.66,54.99 -54.99,82.48 -42.25,-1.53 -84.52,-3.06 -126.77,-4.59 -113.7,0 -229.03,-7.7 -332.97,9.17 -101.51,16.47 -202.29,18.01 -299.37,38.18 -139.82,29.05 -278.95,55.64 -444.47,53.46 -12.73,-1.02 -25.46,-2.03 -38.19,-3.06 -32.07,-7.12 -64.15,-14.25 -96.22,-21.38 -99.94,-35.03 -178.7,-98.62 -230.64,-181.76 -69.97,-112 -68.75,-245.02 -68.73,-429.19 1.01,-60.59 2.03,-121.19 3.05,-181.77 3.05,-91.63 6.11,-183.29 9.16,-274.93 6.62,-58.54 13.24,-117.1 19.86,-175.65 5.1,-23.38 21.64,-59.38 15.27,-87.06 -12.21,-24.44 -24.43,-48.88 -36.66,-73.31 -16.79,-37.17 -33.6,-74.34 -50.4,-111.5 -47.27,-121.95 -42.34,-314.01 -12.22,-452.11 4.58,-25.46 9.17,-50.92 13.75,-76.37 1.02,-1.53 2.04,-3.06 3.05,-4.58 13.75,29.52 27.5,59.06 41.24,88.58 27.39,62 58.29,123 79.43,193.98 10.85,36.44 11.77,76.66 18.33,117.61 13.88,86.73 -23.36,177.82 -10.7,258.13 2.55,25.97 5.1,51.93 7.64,77.9 7.88,33.75 18.35,64.08 24.44,102.34 -3.05,44.28 -6.11,88.59 -9.17,132.88 -2.54,80.94 -5.08,161.91 -7.63,242.85 -1.02,103.86 -2.04,207.74 -3.05,311.59 -0.01,66.86 -4.98,141.45 10.68,193.98 15.62,52.32 41.6,95.08 71.8,132.89 82.4,103.17 253.26,136.05 435.3,102.33 267.72,-49.6 540.9,-89.52 862.98,-87.06 -23.93,-4.58 -47.86,-9.17 -71.79,-13.75 -42.76,-11.2 -85.54,-22.4 -128.3,-33.6 -115.51,-36.13 -218.12,-85.39 -340.61,-116.08 -41.97,-10.52 -101.24,-26.97 -157.32,-18.33 -62.51,9.63 -115.65,19.75 -164.96,41.24 -63.64,27.74 -116.68,70.26 -183.29,96.23 -82.8,32.28 -168.93,0.15 -209.25,-50.41 -23.54,-29.52 -44.73,-66.39 -54.98,-108.45 -14.69,-60.21 -7.65,-141.38 -7.64,-212.3 -0.51,-100.8 -1.02,-201.63 -1.53,-302.43 5.13,-82.81 -2.31,-172.06 12.22,-247.43 25.32,-131.35 62.47,-244.74 84.01,-380.33 20.59,-129.67 -50.88,-185.57 -67.21,-274.93 -10.71,-58.62 21.3,-106.07 36.66,-143.57 25.25,-61.68 47.19,-125.36 64.15,-193.98 17.76,-71.85 26.06,-180.44 4.58,-253.55 -11.71,-39.88 -57.49,-107.05 -39.71,-157.32 14.92,-42.21 55.56,-67.87 77.9,-103.86 30.39,-48.99 34.18,-127.95 94.7,-146.63 66.22,-20.45 161.77,11.98 232.16,-6.12 0.51,2.04 1.02,4.08 1.53,6.12 -36.28,47.99 -82.85,85.81 -108.45,145.1 -27.06,62.69 -33.99,138.53 -61.09,203.14 -11.81,28.15 -37.46,44.26 -48.88,71.79 -37.06,89.35 -41.56,251.65 -18.33,361.99 13.66,64.9 24.95,130.41 47.35,187.87 28.09,72.09 60.51,134.32 74.84,219.95 13.38,79.96 -24.55,146.78 -10.69,230.63 17.59,106.43 27.78,183.79 62.62,267.3 8.57,20.54 39,100.81 54.99,106.91 -0.05,-62.6 22.65,-113.24 44.29,-155.79 78.15,-153.65 205.4,-251.41 381.85,-307 82.79,-26.09 251.44,-60.17 307.01,13.74 57.71,76.77 -27.84,215.59 -9.17,328.39 28.3,170.94 74.66,266.62 155.8,380.32 24.25,33.99 52.57,83.91 88.59,105.39 l 1.52,-1.53 c -54.42,-88.66 -100.6,-183.14 -129.82,-297.84 -4.58,-32.58 -9.17,-65.17 -13.75,-97.75 -5.96,-34.64 -7.82,-89.65 -1.53,-126.77 20.07,-118.28 38.92,-223.88 59.58,-343.67 8.59,-49.86 7.08,-122.35 -3.06,-168.01 -5.51,-24.8 -20.82,-54.04 -15.27,-85.54 8.5,-48.3 31.33,-88.05 41.24,-132.88 3.87,-17.56 -7.41,-35.48 -10.7,-48.87 -5.54,-22.57 -4.86,-56.52 0,-79.43 15.38,-72.41 42.41,-133.87 56.52,-213.84 16.02,-90.88 -8.21,-184.8 -35.13,-245.9 -14.2,-32.22 -38.36,-59.49 -45.83,-97.76 -9.79,-50.14 40.56,-106.49 54.99,-142.04 13.27,-32.72 16.22,-72.44 35.13,-99.29 44.19,-62.73 180.05,-21.79 271.87,-38.18 1.03,1.01 2.04,2.04 3.06,3.05 -23.09,39.08 -59.69,65.36 -77.89,111.51 -23.92,60.6 -15.1,144.57 -35.14,210.77 z m -946.98,96.23 c -16.29,22.91 -32.59,45.82 -48.88,68.73 -23.13,53.96 -25.53,119.61 -36.66,184.82 v 68.73 c 8.12,49.96 4.28,91.71 15.28,134.41 19.23,74.7 51.61,137.32 73.31,206.2 20.9,66.3 14.59,132.08 -67.2,129.83 -19.38,-9.71 -90.36,-37.02 -116.09,-32.08 -14.76,6.11 -29.53,12.22 -44.29,18.33 -8.66,-27.49 -17.31,-54.99 -25.97,-82.48 -20.23,-46.76 -50.89,-84.26 -61.09,-142.05 -7.99,-45.27 21.18,-87.39 33.6,-117.61 27.74,-67.48 51.47,-134.31 68.73,-213.83 12.67,-58.35 13.21,-149.04 -3.05,-203.14 -10.39,-34.56 -39.57,-73.78 -29.02,-123.72 9.56,-45.26 52.82,-66.88 76.37,-99.29 28.3,-38.94 30.88,-109.74 68.73,-138.99 48.2,-37.24 178.48,-21.7 259.66,-21.38 0.51,1.02 1.02,2.03 1.53,3.05 -34.41,45.35 -80.72,76.39 -105.39,132.89 -29.48,67.49 -29.97,156.49 -59.57,227.58 z m 517.79,835.49 c -176.5,-35.77 -398.35,36.56 -505.58,100.8 -27.99,20.88 -56,41.76 -84,62.62 -40.66,32.78 -75.2,99 -138.99,105.4 -3.06,-1.02 -6.11,-2.04 -9.17,-3.06 -35.88,-58.24 62.1,-163.14 94.7,-189.4 21.94,-17.66 41.7,-39.01 65.68,-54.98 116.35,-77.48 250.21,-110.91 420.03,-139 77.83,-12.87 172.18,-0.09 230.64,19.86 17.31,6.62 34.62,13.24 51.93,19.86 1.02,42.25 2.04,84.52 3.05,126.77 -13.74,-7.63 -27.49,-15.27 -41.24,-22.91 -26.26,-11.43 -56.44,-19.76 -87.05,-25.96"
         style="fill:url(#linearGradient971);fill-opacity:1;fill-rule:evenodd;stroke:none"
         id="path973" />
      <path
         d="m 5963.75,1706.44 c -5.55,1.66 -146.86,-31.32 -169.8,-36.16 -120.51,-25.44 -285.05,-16.86 -396.24,11 -48.74,12.21 -123.37,42.77 -172.95,42.45 -1.57,-1.04 -3.14,-2.1 -4.72,-3.14 -0.52,-4.19 -1.05,-8.39 -1.57,-12.58 28.14,-31.56 86.82,-41.19 132.08,-55.03 131.77,-40.3 336.83,-56.86 484.27,-17.29 37.62,10.09 122.21,26.57 138.36,53.45 1.06,1.05 2.1,2.09 3.15,3.15 -3.05,5.74 -6.02,12.19 -12.58,14.15 z M 6347.4,1418.7 c -13.21,-13.78 -14.55,-36.75 -20.44,-58.17 -17.34,-63.04 -25.01,-114.04 -6.29,-180.82 4.54,-2.29 8.29,-4.01 14.15,-1.57 1.58,0.52 3.15,1.04 4.72,1.57 v 94.34 c 8.44,45.06 25.68,83.73 26.73,135.22 -2.62,2.62 -5.24,5.24 -7.86,7.86 -3.67,0.52 -7.35,1.05 -11.01,1.57 z m -371.07,1308.18 c -22.33,-9.3 -44.18,-9.34 -62.89,-20.44 -97.74,-58.02 -139.33,-180.91 -165.1,-311.32 -31.58,-159.84 32.82,-349.84 155.66,-371.07 69.3,-11.98 119.38,38.29 146.23,72.32 35.73,45.29 65.51,98.52 84.91,160.38 54.52,173.98 50.2,472.87 -158.81,470.13 z m -1380.5,-78.61 c -15.2,-5.25 -30.4,-10.49 -45.6,-15.74 -66.08,-39.08 -105.04,-115.42 -124.21,-201.25 -30.53,-136.71 3.81,-315.88 114.78,-338.05 52.47,-10.48 91.64,31.4 111.63,56.61 30.53,38.47 55.86,84.07 72.33,136.78 43.79,140.15 44.24,364.23 -128.93,361.65 z m 721.7,-778.31 c 105.3,24.15 149.35,170.91 117.92,305.03 -11.24,47.96 -24.26,93.75 -42.45,135.22 -24.26,55.28 -60.7,101.3 -77.04,165.1 -26.91,105.03 39.3,225.55 106.91,254.71 0.53,1.05 1.05,2.09 1.57,3.15 -56.59,0.53 -113.21,1.04 -169.81,1.57 -55.55,4.19 -111.11,8.39 -166.66,12.58 -65.42,11.49 -128.83,25.96 -201.26,25.15 -12.58,-2.61 -25.16,-5.24 -37.74,-7.86 -32.96,-13.45 -69.43,-53.1 -48.74,-103.77 35.3,-86.41 152,-108.92 201.26,-191.82 43.7,-73.54 38.21,-181.39 59.75,-279.88 20.75,-94.9 47.61,-174.81 95.91,-240.56 29.24,-39.81 81.17,-96.79 160.38,-78.62 z m -531.45,117.92 c -66.37,-41.25 -81.04,-114.25 -95.91,-207.54 -10.15,-63.68 6.27,-142.65 51.89,-152.51 35.88,-7.77 54.23,24.33 66.04,42.45 33.61,51.58 108.4,319.32 -22.02,317.6 z m 2083.33,1105.35 c -1.05,1.05 -2.1,2.1 -3.14,3.14 0.88,10.3 2.67,10.56 7.86,15.72 2.09,-0.51 4.19,-1.04 6.29,-1.57 1.04,-2.09 2.1,-4.19 3.14,-6.29 -0.82,-12.19 -4.63,-12.13 -14.15,-11 z m 48.74,102.2 c -20.04,-8.4 -35.05,-11.73 -50.31,-23.58 -46.1,-35.8 -63.05,-109.36 14.15,-128.94 17.37,-84.47 35.2,-159.79 80.19,-215.41 23.29,-28.79 70.03,-37 102.2,-11 31.97,25.83 30.73,107.16 20.44,157.23 -19.8,96.36 -49.34,222.65 -166.67,221.7 z m 492.14,-45.6 v 1.57 c 45.02,24.54 61.66,-14.3 103.77,-11.01 1.06,2.1 2.1,4.2 3.15,6.29 6.39,19.95 -23.6,27.37 -33.02,37.75 0.53,1.04 1.04,2.09 1.57,3.14 32.4,3.28 91,-14.75 95.92,15.72 -8.47,10.75 -18.98,11.63 -34.6,15.73 -68.51,17.98 -101.93,-18.49 -154.08,-23.59 -1.05,0.52 -2.1,1.05 -3.15,1.58 -3.96,5.6 -5.71,5.68 -6.29,15.72 26.9,31.22 49.15,38.58 91.2,56.6 46.62,-0.16 75.98,-13.13 110.06,-23.58 20.43,-4.72 40.88,-9.44 61.32,-14.15 1.57,-1.06 3.15,-2.1 4.72,-3.15 -7.34,-76.84 -201.78,-199.53 -240.57,-78.62 z m 22.01,-289.31 c -6.27,-8.9 -35.91,-4.72 -50.31,-4.72 -42.98,3.15 -85.95,6.29 -128.93,9.44 -126.78,-20.28 -185.36,-182.69 -78.62,-262.58 v -7.86 c -5.24,-3.66 -10.48,-7.34 -15.72,-11.01 -32.88,-12.01 -126.05,54.16 -146.23,69.19 -110.62,82.39 -151.97,192.94 -183.95,356.92 -7.74,39.62 -24.78,94.06 -15.73,141.5 14.97,78.51 104.07,165.95 171.38,193.4 20.19,8.23 44.91,5.55 67.61,14.15 144.76,-3.17 265.14,-131 319.19,-226.42 -10.78,6.76 -18.88,17.05 -33.02,20.44 -42.41,10.19 -74.3,-36.95 -62.9,-77.04 6.94,-24.42 26.44,-34.52 48.75,-44.02 17.07,-70.02 49.96,-144.05 108.48,-171.39 z m 81.76,-61.32 c 72.89,0.62 91.9,-79.68 55.04,-130.5 -11.82,-16.29 -34.08,-34.33 -55.04,-40.88 -29.58,-9.24 -245.4,-3.9 -270.44,6.29 -20.85,8.48 -37.11,29.57 -45.59,50.32 -20.76,50.75 13.52,97.03 51.88,105.34 31.7,6.86 66.26,-5.24 92.78,-9.43 49.3,-7.8 134.86,3.83 171.37,18.86 z m -45.59,-240.56 c -22.22,-43.28 -93.47,-69.48 -161.95,-48.74 -20.31,6.14 -64.47,33.76 -42.46,56.6 67.08,-1.05 134.18,-2.1 201.26,-3.15 h 3.15 z m -358.49,-14.15 c -110.21,-106.62 -211.83,-210.33 -273.58,-366.35 -18.43,-46.54 -22.67,-93.87 -31.45,-152.52 -4.86,-32.43 8.5,-67.03 0,-97.48 -17.2,-61.61 -77.49,-77.19 -111.64,-121.08 -23.62,-30.35 -26.86,-71.42 -45.6,-108.48 -25.71,-50.86 -69.92,-69.75 -127.36,-89.63 -1.57,1.58 -3.14,3.15 -4.72,4.73 5.78,52.4 11.54,104.82 17.3,157.22 17.11,111.3 1.27,242.88 -15.72,336.48 -5.41,3.16 -7.75,4.62 -17.3,4.71 -2.62,-2.09 -5.23,-4.19 -7.86,-6.29 -5.83,-23.98 1.33,-58.18 -3.14,-86.47 -13.28,-84.04 1.18,-172.28 -12.58,-251.57 -29.97,-172.73 -56.13,-336.14 -89.62,-504.72 -4.19,-48.21 -8.39,-96.43 -12.58,-144.65 -8.42,-53.17 -2.86,-119.019 4.72,-166.671 3.67,-41.918 7.33,-83.848 11,-125.778 7.25,-40.89 15.23,-98.968 4.72,-141.511 l -6.29,-3.149 c -14.36,-5.531 -40.57,3.328 -53.46,6.289 -42.41,9.731 -87.42,18.731 -75.47,80.192 11,33.019 22.02,66.039 33.02,99.058 6.28,37.719 12.58,75.469 18.87,113.2 13.76,83.79 -14.37,182.61 -29.87,245.29 -37.75,152.59 -80.08,289.87 -117.93,440.25 -15.93,63.27 -11.91,131.59 -23.59,202.82 -7.53,45.91 10.07,107.07 -6.29,143.09 h -15.72 c -31.7,-51.35 -25.33,-230.12 -12.58,-301.89 4.12,-23.16 14.51,-52.64 11.01,-75.46 -40.27,-24.32 -89.73,-38.1 -138.37,-53.47 -250.25,-79.06 -569.54,-67.29 -795.59,25.15 -37.79,15.46 -174.54,67.9 -188.68,94.35 5.76,36.16 11.53,72.33 17.29,108.49 14.08,77.57 14.21,201.24 -6.29,270.44 -2.09,1.57 -4.19,3.14 -6.29,4.71 -3.14,-0.51 -6.28,-1.04 -9.43,-1.57 -19.95,-33.89 -3.32,-99.75 -11,-146.22 -15.71,-95.02 -17.17,-181.69 -47.17,-257.86 -72.19,-183.29 -212.25,-306.05 -287.74,-489 -30.63,-74.23 -59.63,-190.12 -39.31,-297.16 16.29,-85.82 42.73,-155.71 64.47,-232.71 -1.57,-1.571 -3.15,-3.141 -4.72,-4.719 -11.37,-4.461 -102.46,-1.75 -114.78,3.148 -7.34,6.293 -14.68,12.582 -22.01,18.871 -20.43,30.45 -6.42,100.039 -6.29,143.071 0.33,113.101 25.38,246.009 1.57,353.779 -12.47,56.43 -70.57,143.93 -61.32,201.26 6.73,41.74 26.83,66.32 40.88,99.05 16.74,39 18.18,104.89 7.86,154.1 -48.73,236.86 -97.48,473.81 -146.22,710.68 -29.45,140.04 -9.95,301.05 51.88,389.94 46.9,67.42 134.06,147.37 262.58,124.21 113.85,-20.52 227.04,-44.28 344.34,-67.61 65.49,-13.02 131.34,-7.27 201.26,-18.86 53.06,-8.8 136.76,-10.41 191.82,-1.58 57.08,9.15 108.75,2.59 161.95,12.58 120.14,22.57 231.45,46.51 336.48,83.33 68.99,24.19 127.86,64.28 220.12,62.9 114.21,-1.71 232.73,-65.06 308.18,-111.64 20.52,-12.66 93,-74.92 113.21,-70.75 l 9.43,9.43 c 5.38,18.24 -21.48,32.98 -31.45,42.45 -36.31,34.5 -85.91,81.97 -136.79,99.06 -1.04,1.57 -2.1,3.15 -3.14,4.71 41.92,9.96 83.86,19.93 125.78,29.89 108.49,36.86 200.18,82.66 257.86,169.8 3.15,-32.49 6.29,-64.99 9.43,-97.48 11.22,-63.65 19.97,-122.08 40.89,-174.53 40.89,-102.55 109.77,-182.16 198.11,-237.42 28.3,-13.63 56.61,-27.26 84.91,-40.88 z M 6655.58,659.27 c -9.68,-12.918 -47.35,-3.45 -66.04,-3.141 -106.58,1.691 -75.49,95.691 -75.48,196.543 0.02,86.519 -5.1,167.388 -25.15,235.848 -12.05,35.11 -24.12,70.22 -36.17,105.34 5.25,37.21 10.49,74.42 15.73,111.63 12.06,76.52 24.11,153.05 36.16,229.56 16.25,3.15 32.5,6.29 48.75,9.44 31.96,9.29 66,23.81 89.62,42.45 h 3.14 c -8.39,-48.22 -16.77,-96.44 -25.15,-144.65 -14.68,-96.95 -29.36,-193.94 -44.03,-290.88 -32.17,-188.922 30.51,-363.961 78.62,-492.14 z m 36.16,-100.629 v -1.582 c -52.39,-15.77 -130.22,0.8 -122.64,47.183 32.49,-1.57 64.99,-3.14 97.48,-4.711 9.74,-5.59 21.74,-29.551 25.16,-40.89 z m -396.22,80.191 c 1.04,1.566 2.09,3.148 3.14,4.719 31.44,-5.25 62.89,-10.492 94.34,-15.719 9.43,-13.223 17.16,-36.812 17.29,-58.184 -71.12,-20.566 -104.53,20.122 -114.77,69.184 z M 5119.41,1478.45 c -42.31,-63.57 -96.53,-120.19 -125.78,-194.97 -77.01,-196.82 65.2,-502.058 163.52,-594.339 -9.99,-24.801 -132.35,-31.719 -149.37,-4.711 -16.31,25.883 -15.02,64.222 -22.01,99.05 -12.26,61.079 -18.48,125.872 -39.31,179.25 -30.43,78.01 -69.67,146.95 -111.64,213.84 -19.91,31.44 -39.83,62.89 -59.75,94.33 -5,21.73 48.92,91.49 59.75,106.93 56.37,80.36 106.31,162.9 146.23,259.43 19.91,-13.63 39.83,-27.26 59.75,-40.89 36.3,-22.17 76.67,-36.81 114.78,-58.17 -4.59,-22.56 -24.63,-42.42 -36.17,-59.75 z m 70.76,-844.329 c 11.74,-6.449 29.85,-34.582 33.02,-48.75 -58.85,-0.359 -108.86,-1.551 -141.51,22.02 v 3.14 c 0.52,1.051 1.04,2.09 1.57,3.149 33.01,7.332 66.04,14.66 99.06,22.011 2.62,-0.531 5.24,-1.062 7.86,-1.57 z m -507.86,-31.449 c 7.86,-15.723 15.72,-31.461 23.58,-47.18 -60.75,-12.613 -127.91,0.168 -130.5,50.317 35.64,-1.047 71.28,-2.098 106.92,-3.137 z m -352.2,2081.758 c -28.53,-59.04 -39.55,-120.91 -51.89,-199.69 -0.52,-96.95 -1.05,-193.94 -1.57,-290.88 -2.62,-79.13 -5.24,-158.29 -7.86,-237.42 -5.25,-49.27 -10.48,-98.54 -15.73,-147.8 -20.85,-103.83 -49.11,-197.36 -97.48,-273.59 -27.21,-42.87 -65.01,-90.2 -117.92,-106.91 -77.27,-24.4 -147.62,29.5 -149.37,95.91 l 3.14,3.14 c 33.81,-9.28 74.63,-62.76 121.07,-31.44 v 3.14 c -12.23,14.7 -35.05,18.14 -51.89,28.3 -56.45,34.1 -87.69,83.93 -84.91,174.53 1.05,0.53 2.1,1.05 3.15,1.57 2.62,-13.1 5.24,-26.21 7.86,-39.3 11.28,-38 28.97,-75.66 56.61,-97.49 122.44,-96.76 204.01,55.52 232.7,147.8 28.07,90.29 29.93,193.61 47.17,298.74 2.09,41.4 4.19,82.81 6.29,124.22 1.57,62.35 3.14,124.74 4.71,187.1 v 80.19 c 0,76.51 -1.59,159.16 20.44,215.4 25.71,65.62 54.93,81.31 102.21,122.65 4.53,-6.85 -20.73,-45.76 -26.73,-58.17 z m 2154.08,542.45 v 1.57 c 53.49,15.87 101.93,19.18 152.52,39.31 60.57,0.66 114.83,-21.84 132.07,-62.89 v -9.44 l -1.57,-4.71 c -37.84,-4.01 -174.19,76.25 -207.54,9.43 -3.51,-7.81 -0.21,-12.86 6.29,-15.72 24.63,-8.81 74.47,19.06 99.05,-1.57 v -1.58 c -28.92,6.46 -49.71,-9.01 -51.88,-34.6 24.08,-23.49 41.42,9.83 62.89,15.73 19.39,-3.15 38.78,-6.29 58.17,-9.44 1.81,-14.52 -36.75,-55.64 -51.89,-59.74 -19.39,2.1 -38.78,4.2 -58.17,6.29 -61.66,18.33 -121.35,66.66 -139.94,127.36 z m 977.99,-199.69 c 24.04,-4.02 51.24,1.21 70.75,6.29 76.67,19.94 128.87,70.66 165.1,132.07 13.51,22.92 32.28,63.06 15.72,97.49 -21.32,44.35 -204.26,94.83 -275.16,73.9 -34.71,-10.25 -69.39,-43.38 -94.33,-48.74 -20.44,19.91 -40.89,39.83 -61.33,59.74 -61.22,47.7 -130.21,90.04 -240.57,88.06 -16.24,-2.63 -32.49,-5.24 -48.74,-7.87 -27.41,-6.99 -54.97,-17.99 -77.04,-31.45 -31.22,-19.02 -67.07,-45.86 -89.62,-73.89 -8.91,-11.01 -17.82,-22.01 -26.73,-33.02 -2.1,-0.53 -4.19,-1.05 -6.28,-1.57 -92.37,69.21 -154.76,58.39 -270.45,23.58 -37.83,-11.38 -77.48,-13.73 -95.91,-44.02 -17.34,-28.51 -5.87,-66.92 4.71,-91.19 29.03,-66.53 85.94,-120.92 163.53,-138.37 v -1.58 c -15.15,-14.33 -46.26,-17.66 -67.61,-25.15 -59.43,-20.85 -121.28,-25.8 -194.97,-37.74 -19.91,-1.05 -39.83,-2.1 -59.75,-3.14 -52.93,10.92 -108.88,41.39 -182.39,28.3 -99.11,-17.65 -180.8,-59.38 -272.01,-88.05 -93.15,-29.27 -187.79,-40.91 -295.6,-59.75 -56.6,-9.89 -157.39,-21.3 -223.27,-11.01 -107.04,16.74 -211.86,8.51 -311.32,28.3 -149.57,29.78 -345.71,96.42 -490.57,31.45 -31.38,-14.07 -54.34,-41.82 -83.33,-56.6 -24.1,-7.34 -48.22,-14.67 -72.32,-22.02 -80.21,-34.98 -139.71,-103.67 -166.67,-191.82 -17.39,-56.86 -18.87,-125.66 -18.87,-199.68 v -94.34 c -1.05,-51.88 -2.1,-103.78 -3.14,-155.66 -2.1,-49.78 -4.2,-99.59 -6.29,-149.37 -22.24,-143.21 -18.58,-292.24 -86.48,-388.36 -73.75,-104.43 -108.48,72.76 -117.92,132.07 -4.46,27.94 2.53,53.84 -7.87,73.89 -14.19,27.39 -56.36,25.8 -73.9,3.15 -27.34,-35.32 -72.89,-136.56 -64.46,-202.82 3.46,-27.17 13.51,-51.16 15.72,-73.91 -1.05,-18.87 -2.09,-37.74 -3.14,-56.6 9.31,-53.57 29.38,-99.58 64.46,-127.36 97.99,-77.59 227.38,-44.97 294.03,37.74 115.5,143.33 182.07,345.32 177.67,608.48 h 1.57 c 10.49,-52.4 20.97,-104.82 31.45,-157.22 14.68,-70.75 29.35,-141.53 44.03,-212.27 8.58,-35.56 25.23,-85.01 17.29,-130.51 -9.99,-57.32 -45.13,-89.17 -55.03,-149.36 -13.22,-80.3 30.12,-136.97 50.31,-188.68 8.57,-21.94 11.55,-49.78 15.73,-75.47 -0.53,-41.92 -1.05,-83.87 -1.58,-125.79 -2.09,-66.55 -4.19,-133.129 -6.28,-199.691 -5.38,-35.149 -10.4,-98.399 0,-132.07 6.46,-20.95 22.72,-43.989 40.87,-53.457 8.39,-3.672 16.78,-7.34 25.16,-11 23.82,-29.5 35.78,-89.883 75.47,-102.211 24.18,-7.512 142.27,-9.2 165.1,0 10.07,4.058 20.82,15.539 23.58,26.73 9.38,37.899 -28.9,74.531 -40.88,97.488 1.09,18.282 14.47,24.231 11.01,45.59 -6.78,41.84 -24.31,78.582 -36.16,116.352 -14.01,44.64 -21.37,90.488 -29.88,141.519 -18.32,109.83 25.58,198.32 48.74,272.01 h 6.29 c 47.82,-97.31 114.44,-175.74 149.37,-289.31 20.56,-66.829 19.15,-201.77 50.32,-254.719 24.62,-41.821 71.63,-37.891 97.48,-72.321 43.12,-57.429 74.2,-55.031 172.96,-55.039 24.99,0 61.46,-4.293 77.04,6.289 55.77,37.891 -35.73,102.899 -44.02,133.649 0.52,8.91 1.05,17.82 1.57,26.73 -11.08,47.723 -65.8,102.52 -91.2,143.09 -44.76,71.461 -76.27,151.961 -94.33,249.991 -29.16,158.2 54.03,237.31 111.63,319.19 19.91,34.06 39.83,68.13 59.75,102.19 36.68,-9.43 73.38,-18.86 110.06,-28.3 61.7,-15.17 127.22,-17.63 194.97,-28.3 40.35,-0.52 80.72,-1.04 121.07,-1.57 56.02,8.42 106.23,2.58 157.23,12.58 114.19,22.38 216.21,49.67 309.75,89.62 12.31,-12.46 31.67,-113.2 39.31,-138.36 33.88,-111.71 100.41,-307.05 75.46,-454.408 -11.6,-68.562 -68.07,-186.82 -42.45,-254.711 6.64,-17.601 17.48,-36.66 31.45,-47.172 5.24,-3.148 10.49,-6.289 15.72,-9.429 4.72,-18.868 9.44,-37.75 14.15,-56.61 25.23,-82.57 42.76,-81.031 146.23,-83.34 20.55,-0.449 50.03,-4.031 64.47,6.289 34.62,24.77 -4.49,67.922 6.28,99.071 v 3.14 c 54.49,-2.359 52.68,-67.871 77.06,-100.629 20.24,-27.222 77.16,-20.429 124.2,-20.441 31.23,0 68.4,-3.879 81.76,14.152 30.95,41.758 -33.96,80.93 -26.73,110.059 2.17,8.738 9.25,18.328 11.01,29.879 5.55,36.351 -49.52,158.289 -61.32,198.109 -32.29,108.992 -32.04,260.981 -9.43,382.071 26.2,167.18 52.41,334.4 78.61,501.58 20.09,57.92 100.83,80.45 128.94,150.94 9.96,25 20.1,64.78 14.15,102.2 -1.06,16.24 -2.1,32.5 -3.15,48.74 6.74,42.18 11.73,78.84 25.16,113.21 42.42,108.63 110.7,198.23 183.96,276.73 31.44,27.78 62.89,55.56 94.34,83.33 h 6.29 c 17.91,-15.73 27.46,-37.24 48.74,-50.31 64.36,-39.52 187.92,-31.81 243.71,9.43 18.97,14.03 40.64,40.19 50.31,62.89 3.15,9.96 6.29,19.93 9.44,29.88 15.72,8.39 31.45,16.77 47.17,25.15 35.09,26.05 79.88,85.52 69.18,154.09 -28.03,179.67 -244.67,128.08 -245.28,297.17 15.07,3.28 31.69,-5.27 47.17,-7.86 z m -209.12,-272.01 c -7.79,-5.06 -13.35,-6.6 -17.3,-15.72 -19.16,-43.62 55.08,-73.57 91.2,-72.33 2.62,3.15 5.24,6.29 7.86,9.44 12.69,30.44 -54.1,77.84 -81.76,78.61 z m -526.73,-100.63 c -62.65,-41.67 -76.86,-160.73 -91.19,-250 -9.18,-57.13 1.89,-118.77 36.16,-135.22 38.08,0.97 47.92,32.43 59.74,59.75 25.14,58.07 77.31,265.73 15.73,323.9 -6.81,0.52 -13.63,1.05 -20.44,1.57 z m 764.15,18.87 c 26.68,0.15 80.58,46 64.46,73.9 l -9.43,9.43 c -4.19,0.53 -8.38,1.05 -12.58,1.57 -27.1,-13.67 -65.49,-37.21 -53.46,-78.61 3.67,-2.1 7.35,-4.2 11.01,-6.29 z M 4864.7,1347.95 c -3.15,1.57 -6.29,3.15 -9.44,4.71 -42.72,-31.86 -21.23,-159.09 17.3,-177.67 h 14.15 c 12.34,27.75 -17.25,63.34 -22.01,91.2 -5.1,29.79 9.27,55.96 0,81.76 z m -295.6,133.65 c -1.57,3.14 -3.14,6.28 -4.72,9.43 -3.67,1.04 -7.33,2.1 -11,3.14 -19.86,-29.1 -75.71,-182.29 -20.44,-212.26 7.23,-3 11.42,-0.1 14.15,6.29 7.63,22.3 -13.55,51.79 -7.86,83.34 6.96,38.64 24.43,68.58 29.87,110.06 z m -125.78,1111.63 c 11.48,38.39 25.28,76.52 42.45,110.06 10.03,19.59 31.11,41.06 23.58,67.61 -4.1,2.03 -5.48,2.8 -12.58,3.15 -32.61,-44.51 -107.84,-175.66 -91.19,-257.86 2.1,-1.58 4.19,-3.15 6.29,-4.72 h 6.29 c 13.95,22.83 16.41,52.54 25.16,81.76"
         style="fill:url(#linearGradient983);fill-opacity:1;fill-rule:evenodd;stroke:none"
         id="path985" />
      <path
         d="m 1948.09,1360.56 c -43.91,8.59 -87.84,17.2 -131.75,25.8 -33.59,9.94 -62.2,24.75 -105.93,24.44 -21.82,-8.89 -40.27,-9.97 -52.97,-27.15 -41.43,-56.05 34.87,-126.07 57.04,-157.55 13.58,-19.92 27.17,-39.85 40.74,-59.77 14.55,-8.67 57.76,-1.19 67.91,5.44 18.66,83.58 -91.27,125.64 -101.86,177.92 0.91,0.45 1.81,0.91 2.71,1.36 53.79,-22.46 100.08,-71.34 120.88,-127.67 8.39,-22.7 17.13,-61.21 1.36,-82.85 -24.06,-33.04 -95.54,-38.53 -139.89,-50.25 -10.55,-23.17 11.14,-76.99 27.17,-84.21 28.09,-12.679 84.17,-1.36 116.8,-1.36 h 282.5 c 30.73,0 109.35,-6.819 127.67,5.43 16.13,10.79 27.25,49.95 27.17,76.06 -39.82,27.68 -115.42,15.58 -143.97,54.33 -15.54,21.09 -7.56,60.63 1.35,82.85 20.25,50.48 73.16,110.72 124.96,127.67 0.9,-0.91 1.81,-1.81 2.72,-2.72 -27.81,-46.03 -121.12,-102.95 -104.58,-177.92 12.42,-6.96 51.01,-11.82 67.91,-4.08 14.61,6.71 26.04,37.15 35.31,50.26 23.04,32.61 106.37,109.47 65.19,165.7 -18.65,25.46 -64.38,35.19 -104.58,23.08 -76.93,-23.16 -180.54,-62.55 -283.86,-44.81 z m 1828.12,1469.56 c -10.23,-49.3 -132.6,-159.95 -169.77,-196.94 -13.83,-13.76 -39.17,-52.34 -69.27,-46.18 -26.33,5.39 -43.6,35.33 -63.84,48.89 -35.31,23.67 -94.28,37.11 -152.11,25.81 l -2.72,-2.71 c 12.68,-3.18 25.35,-6.34 38.03,-9.51 41.72,-17.07 85.46,-47.81 97.79,-93.71 12.63,-47.05 -30.93,-68.56 -54.33,-85.57 -69.07,-50.23 -130.65,-63.73 -234.97,-81.5 -19.91,-0.9 -39.84,-1.8 -59.76,-2.71 -81.29,13.67 -147.28,25.09 -210.51,52.97 -27.17,14.48 -54.33,28.97 -81.5,43.47 -13.12,9.05 -26.26,18.1 -39.38,27.15 -0.46,1.81 -0.91,3.63 -1.36,5.43 23.09,-10.41 46.18,-20.82 69.27,-31.23 85.1,-33.83 222.46,-64.72 324.6,-25.81 32.77,12.48 62.83,25.48 81.5,51.61 38.82,54.37 -27.53,129.67 36.67,177.92 36.08,27.13 84.17,25.46 141.25,33.96 35.07,5.22 75.27,-7.26 91,16.3 29.49,44.21 -67.71,110.47 -95.08,119.52 -0.45,0.91 -0.9,1.82 -1.35,2.71 v 1.36 c 72.46,-13.5 115.8,-67.82 177.92,-90.99 69.1,-25.79 140.4,20.66 158.91,62.48 -0.8,40.49 -49,60.29 -78.78,73.34 -82.3,36.06 -228.97,59.16 -340.91,31.24 -127.48,-31.8 -236.42,-99.43 -306.94,-188.79 -29.92,-37.9 -65.84,-112.14 -105.95,-135.82 -78.36,-46.28 -191.55,79.47 -199.65,137.17 v 1.36 c 26.87,7.55 54.96,5.92 78.78,14.94 44.14,16.73 84.45,42.43 123.59,65.2 66.02,38.4 142.52,70.73 220.03,95.07 54.75,17.19 113.57,25.89 175.2,36.67 28.52,2.26 57.05,4.53 85.57,6.79 127.79,0.4 231.63,-20.4 309.67,-69.26 19.24,-12.05 65.84,-34.78 58.4,-70.63 z m -1163.97,95.07 c -39.09,38.57 -77.87,75.09 -127.67,103.22 l -2.71,-2.71 c 99.98,-129.15 188.56,-295.2 184.71,-525.62 -0.45,-0.46 -0.91,-0.91 -1.36,-1.37 -12.22,3.63 -24.45,7.25 -36.67,10.87 -24.38,4.43 -48.74,-4.64 -63.83,-10.87 -63.26,-26.04 -85.35,-80.81 -105.95,-149.39 -4.97,-19.92 -9.96,-39.84 -14.93,-59.77 v -2.71 h -4.08 c 2.05,91.12 21.46,191.62 84.21,218.67 v 4.07 c -17.2,-7.69 -34.41,-15.39 -51.61,-23.08 -0.9,0.9 -1.81,1.8 -2.72,2.71 28.56,64.09 64.04,116.06 162.99,105.94 -6.6,41.52 -71.53,70.51 -124.96,57.04 -44.59,-11.23 -77.73,-46.61 -99.14,-81.48 -51.64,-84.09 -72.28,-193.5 -93.72,-308.31 -9.34,-49.99 -4,-98.85 -12.23,-152.12 -7.54,-48.85 -5.68,-119.72 1.36,-167.06 11.64,-78.27 -1.32,-160.96 23.09,-226.82 -0.9,-0.45 -1.81,-0.91 -2.71,-1.36 -19.67,34.29 -21.92,86.26 -31.24,129.04 -16.98,77.87 -42.56,211.67 -27.17,309.65 3.63,29.89 7.25,59.77 10.87,89.65 8.15,33.5 16.3,67 24.45,100.51 h -1.36 c -30.14,-31.87 -45.97,-148.52 -57.05,-205.09 -41.63,-212.7 23.01,-441.77 86.93,-586.74 28.66,-65.02 82.39,-114.59 103.22,-183.36 8.15,-26.9 6.94,-67.95 0,-95.06 -3.87,-15.12 -13.04,-34.94 -9.51,-55.7 16.79,-98.7 84.77,-187.92 -33.95,-239.03 -51.79,-22.301 -152.26,-24.847 -222.74,-13.578 -36.67,0.449 -73.35,0.887 -110.02,1.348 h -82.85 c -136.82,0 -329.36,-30.75 -408.81,32.601 -70.41,56.129 -4.89,148.469 6.79,220.019 2.96,18.13 -6.94,35.65 -10.86,48.9 -8.03,27.08 -9.95,69.78 -1.37,97.79 12.64,41.2 39.3,71.04 59.76,104.58 31.25,51.19 55.81,107.94 78.78,167.06 45.86,118.04 85.31,330.76 54.33,493.02 -10.48,54.88 -19.38,109.07 -35.31,158.9 -7.7,19.02 -15.4,38.04 -23.09,57.06 h -1.36 c -0.91,-0.46 -1.81,-0.91 -2.72,-1.36 12.47,-27.7 14.33,-61.41 21.73,-95.08 39.23,-178.39 -0.57,-384.9 -39.39,-533.77 h -1.35 c -0.91,0.46 -1.82,0.91 -2.72,1.36 24.77,72.4 8.39,161.43 21.73,245.84 5.53,34.95 6.76,85.52 1.36,120.87 -1.81,38.02 -3.62,76.06 -5.43,114.09 -21.27,126.85 -32.05,250.97 -85.57,344.98 -25.04,43.98 -54.06,84.86 -103.22,104.58 -57.32,22.99 -130.54,-8.6 -142.61,-52.97 84.44,1.29 115.89,-15.86 146.69,-66.55 7.89,-12.99 19.18,-27.27 20.37,-46.17 -18.56,9.05 -37.13,18.1 -55.69,27.15 7.99,-21.16 35.98,-34.7 48.89,-52.96 27.74,-39.23 34.77,-99.09 33.96,-167.07 -8.15,29.89 -16.3,59.77 -24.45,89.65 -25.17,64.69 -54.56,117.46 -131.74,130.38 -26.86,4.51 -45.61,-7.62 -66.55,-9.5 -0.12,158.13 39.13,298.64 99.15,400.67 19.91,31.68 39.84,63.37 59.76,95.06 8.15,10.87 16.3,21.74 24.44,32.6 h -1.36 c -25.8,-17.65 -51.61,-35.31 -77.41,-52.97 -16.3,-16.74 -32.6,-33.5 -48.9,-50.25 -24.51,-9.59 -136.52,46.36 -152.12,55.68 -103.61,62.03 -189.55,158.68 -137.17,328.68 11.03,35.82 24.09,75.1 42.1,105.94 9.51,15.85 19.02,31.7 28.53,47.54 h 1.35 l 1.36,-1.36 c -68.48,-173.07 4.67,-320.01 143.97,-368.06 36.96,-12.76 92.45,-20.38 138.53,-9.51 114.98,27.13 184.04,98.04 244.48,179.28 h 5.43 c 5.55,-12.61 10.51,-22.48 17.65,-32.6 51.27,-10.77 123.4,41.99 160.27,32.6 0.91,-16.76 1.82,-33.5 2.72,-50.25 43.64,8.46 66,74.28 122.23,76.05 0.46,-0.9 0.91,-1.8 1.36,-2.71 -15.25,-21.44 -32.27,-50.47 -33.95,-84.21 28.29,-7.31 66.44,11.99 92.36,17.66 58.2,12.72 139.81,8.87 192.86,-5.43 52.86,-14.26 99.13,-34.51 141.25,-59.77 40.92,-24.54 79.32,-52.89 131.74,-66.55 171.28,-44.62 297.34,68.31 323.26,199.66 13.18,66.82 -13.26,120.33 -21.74,172.49 26.56,-22.45 40.64,-71.23 54.33,-105.94 7.69,-24 15.4,-47.99 23.09,-71.98 41.68,-175.44 -69.75,-272.55 -182,-321.9 -31.64,-13.91 -68.88,-34.11 -111.37,-35.31 z m -78.77,-483.52 c 3.95,8.51 9.53,9.34 17.65,13.59 6.34,-0.45 12.68,-0.91 19.02,-1.36 7.87,-8.12 17.52,-16.66 12.22,-33.95 -0.9,-2.27 -1.81,-4.54 -2.72,-6.8 -7.39,-5.35 -22.11,-12.66 -33.95,-5.43 -9.93,4.11 -20.4,20.9 -12.22,33.95 z m 85.56,-237.68 c -44.5,-18.58 -82.65,14.11 -115.45,21.74 -28.15,6.54 -40.91,-10.03 -59.75,-13.59 -9.98,36.34 22.75,71.67 48.89,78.77 0.45,0.91 0.91,1.82 1.36,2.73 -5.77,5.12 -11.31,5.93 -14.94,13.57 0.45,11.32 0.9,22.64 1.36,33.96 0.9,0.45 1.81,0.9 2.71,1.35 53.31,-48.01 142.68,8.89 158.91,59.77 h 4.08 c -5.33,-57.27 -30.19,-110.91 -91,-111.38 -0.45,-1.8 -0.91,-3.62 -1.36,-5.43 33.11,-0.07 52.27,4.85 74.7,13.59 49.22,-3.95 17.2,-83.93 -9.51,-95.08 z m -95.07,-278.43 c -12.68,-81.48 -25.36,-162.99 -38.03,-244.47 -9.96,-54.78 -19.92,-109.56 -29.88,-164.34 -0.9,-0.46 -1.81,-0.91 -2.72,-1.36 -0.9,52.96 -1.81,105.94 -2.71,158.91 v 131.74 c 17.34,97.9 46.62,183.39 92.35,253.98 3.1,-3.98 -15.26,-116.73 -19.01,-134.46 z M 2166.76,860.75 c -114.86,-49.781 -277.81,-60.449 -377.58,12.211 -13.89,10.121 -33.11,20.699 -40.75,36.668 -2.66,3.543 -1.32,1.281 -1.35,5.441 41.64,1.809 83.3,3.629 124.95,5.43 88.27,-0.449 176.57,-0.91 264.85,-1.359 32.14,-4.871 86.09,-11.102 118.16,-2.711 1.36,-0.45 2.71,-0.91 4.07,-1.36 -5.74,-16.48 -72.9,-45.898 -92.35,-54.32 z m -723.92,1195.2 c 15.36,-5.89 41.92,-77.38 50.26,-96.43 16.27,-37.2 32.34,-76.42 42.1,-120.88 19.25,-87.76 9.24,-219.1 8.15,-320.53 -1.36,0.45 -2.72,0.9 -4.08,1.36 -32.14,178.81 -64.29,357.67 -96.43,536.48 z m -36.67,381.65 c 3.9,9.59 9.41,11.21 17.66,16.3 7.69,-0.91 15.39,-1.82 23.08,-2.71 15.3,-19.36 1.94,-64.72 -29.87,-44.83 -10.09,4.31 -15.58,16.81 -10.87,31.24 z m -58.4,-211.87 c -13.42,20.26 -8.36,44.8 0,65.18 11.67,7.62 63.67,-4.23 89.64,-6.79 0.45,0.91 0.91,1.81 1.35,2.72 -9.95,3.17 -19.91,6.34 -29.87,9.51 -39.7,16.96 -60.23,50.4 -62.48,104.58 6.34,-9.05 12.68,-18.11 19.01,-27.17 20.37,-26.31 71.92,-62.13 122.24,-47.54 7.7,4.98 15.4,9.97 23.09,14.95 1.36,-12.22 2.72,-24.45 4.07,-36.67 -4.52,-4.52 -7.75,-7.37 -14.94,-9.51 v -5.44 c 37.69,-4.76 43.07,-34.33 51.61,-67.91 v -9.5 c -17.38,2.64 -27.88,18.63 -51.61,14.94 -49.79,-7.74 -113.6,-59.51 -152.11,-1.35 z m -949.375,545.98 c 60.921,21.28 103.089,75.44 172.488,88.28 -15.153,-24.08 -123.188,-65.32 -93.715,-119.52 12.934,-26.64 62.637,-17.33 100.508,-19.01 49.898,-2.21 96.508,-8.85 127.668,-29.87 74.914,-50.56 -0.824,-126.42 40.746,-182.01 62.765,-83.93 239.262,-80.36 351.77,-44.82 40.24,12.71 88.27,41.06 124.95,48.9 v -1.36 c -17.19,-19.78 -48.74,-31.21 -71.98,-44.82 -140.83,-82.5 -345.6,-111.73 -509.322,-28.52 -32,16.26 -69.633,35.5 -90.996,62.48 -57.574,72.69 59.367,146.39 119.515,157.55 0.457,0.9 0.911,1.8 1.364,2.71 v 1.36 c -56.911,7.27 -116.442,-3.06 -152.118,-28.53 -20.613,-14.7 -35.386,-43.03 -63.835,-48.89 -28.012,-5.76 -49.879,26.81 -62.477,39.39 -48.508,48.43 -94.5,96.18 -138.535,149.4 -10.949,13.23 -44.758,42.81 -36.672,70.62 17.684,60.84 149.656,99.9 220.027,115.45 26.707,3.18 53.426,6.34 80.133,9.51 195.715,-2.31 334.039,-37.27 468.574,-96.43 76.202,-33.51 178.262,-120.15 275.712,-119.52 -8.78,-58.39 -120.69,-183.17 -201.01,-142.61 -50.47,25.48 -70.92,100.74 -104.581,143.96 -61.293,78.71 -180.785,150.92 -292.007,179.29 -114.899,29.3 -274.329,11.7 -358.567,-31.24 -26.68,-13.6 -63.918,-32.68 -67.91,-67.91 18.242,-45.57 92.875,-87.37 160.27,-63.84 z m 3462.025,58.41 c -14.13,86.36 -101.47,131.44 -175.21,160.26 -249.46,97.52 -587.29,9.79 -764.66,-93.72 -46.27,-26.99 -145.04,-59.92 -209.16,-21.72 -1.36,1.35 -2.72,2.71 -4.08,4.07 12.48,12 65.73,29.67 84.21,40.75 57.63,34.56 112.63,76.45 148.05,133.1 16.01,25.6 27.98,56.02 36.67,88.29 19.66,73.07 2.7,163.34 -19.02,218.66 -55.19,140.61 -141.57,225.66 -255.34,306.95 l -2.71,-2.71 c 47.24,-65.88 139.17,-285.15 91,-402.02 -29.75,-72.17 -88.54,-110.04 -176.57,-124.97 -70.68,-11.97 -159.02,36.86 -186.07,70.63 -14.81,18.49 -28.6,40.12 -47.54,54.34 -26.89,20.17 -63.58,34.12 -104.58,39.38 15.07,20.15 57.78,20.66 65.2,47.54 -34.46,34.2 -211,-5.05 -249.91,-14.94 l -2.72,2.71 c 17.68,22.81 51.36,46.31 51.61,84.21 -2.71,3.17 -5.43,6.34 -8.14,9.5 -79.27,20.04 -118.5,-69.13 -172.49,-77.41 h -1.37 c -11.52,43.91 26.74,84.91 33.96,120.88 v 1.36 c -22.78,13.91 -48.55,-7.13 -63.84,-17.66 -40.2,-27.71 -102.93,-88.07 -123.59,-133.1 -3.62,-3.17 -7.24,-6.34 -10.87,-9.51 -3.04,26.28 22.24,56.68 13.59,88.29 -1.89,4.18 -1.83,4.42 -5.44,6.78 -31.97,23.39 -110.78,-48.3 -123.59,-61.11 -78.51,-78.55 -110.16,-175.43 -239.05,-206.45 -15.65,-3.77 -40.06,-9.1 -61.11,-5.44 -88.72,15.46 -146.85,53.13 -176.57,126.32 -51.22,126.15 46.56,319.71 88.29,399.31 -1.36,0.45 -2.72,0.9 -4.08,1.36 -120.13,-74.93 -216.46,-189.69 -262.13,-338.2 -62.008,-201.64 55.48,-328.4 171.13,-399.3 26.37,-16.18 54.09,-35.37 86.93,-44.82 0.45,-0.91 0.9,-1.81 1.35,-2.72 -0.45,-1.36 -0.9,-2.72 -1.35,-4.07 -56.62,-14.09 -125.23,-19.92 -175.21,5.43 -70.7,35.86 -143.307,70.82 -222.744,100.5 -157.922,59.04 -423.114,71.77 -582.661,6.8 -52.972,-21.57 -178.105,-94.57 -165.703,-171.13 9.547,-58.9 100.262,-126.22 138.536,-164.35 140.328,-139.75 264.902,-289.76 502.535,-332.75 159.996,-28.95 310.777,34.33 415.607,77.42 24.23,9.95 98.95,48.88 112.73,8.14 17.23,-50.98 -29.85,-90.27 -19.02,-146.68 8.26,-43.01 36.59,-63.66 51.61,-97.79 17.18,-39.05 9.86,-95.35 17.66,-145.33 1.36,-18.11 2.72,-36.21 4.07,-54.33 -5.82,-33.92 -21.15,-64.46 -32.59,-93.71 -22.64,-57.95 -45.28,-115.91 -67.91,-173.85 -66.37,-169.52 -125.02,-334.33 -179.28,-518.82 -28.46,-96.79 -61.46,-254.22 -39.39,-381.65 7.46,-43.11 12.14,-86.399 24.45,-124.961 8.15,-21.719 16.3,-43.457 24.44,-65.188 2.75,2.028 1.35,71.399 1.36,88.278 0.08,74.64 5.72,149.351 19.02,217.312 30.03,153.559 56.49,290.619 108.65,418.329 20.82,47.08 41.65,94.17 62.48,141.25 12.22,23.53 24.45,47.08 36.67,70.62 0.91,0.45 1.81,0.91 2.72,1.36 0.45,-0.91 0.9,-1.81 1.36,-2.72 -25.48,-55.65 -34.09,-127.84 -48.9,-191.5 -5.43,-38.94 -10.87,-77.88 -16.3,-116.81 -35.15,-206.49 95.08,-395.208 176.57,-499.81 21.73,-24 43.46,-47.988 65.19,-71.98 76.96,-89.629 153.93,-179.29 230.89,-268.93 47.08,-52.961 94.17,-105.942 141.25,-158.91 15.64,-19.399 45.2,-36.719 54.33,-61.11 1.81,-0.461 3.62,-0.91 5.43,-1.359 -12.22,126.75 -24.45,253.539 -36.67,380.301 -7.24,47.968 -14.48,95.968 -21.73,143.957 -8.6,33.051 -17.2,66.101 -25.81,99.152 47.53,-3.141 98.13,-29.121 161.63,-19.019 43.88,6.988 86.26,18.179 127.67,20.378 -8.15,-24.449 -16.3,-48.898 -24.45,-73.351 -9.5,-39.379 -19.02,-78.77 -28.52,-118.16 -18.56,-88.278 -37.13,-176.571 -55.69,-264.848 -18.1,-89.629 -36.22,-179.289 -54.32,-268.9218 h 1.35 c 15.04,11.6914 23.96,32.0625 35.32,47.5308 35.49,48.399 70.93,97.122 105.93,146.692 79.94,113.199 172.41,224.859 217.32,370.777 14.31,46.512 12.2,98.653 21.73,152.121 4.98,40.75 9.96,81.5 14.94,122.239 1.36,0.91 2.71,1.82 4.07,2.722 h 29.88 c 34.07,6.532 66.03,23.391 84.21,46.18 99.4,124.609 -20,294.629 9.51,464.499 6.84,39.37 9.64,78.37 20.37,114.09 10.41,26.25 20.83,52.52 31.24,78.77 23.12,58.96 39.2,122.32 55.68,186.07 20.02,77.39 22.84,162.72 38.03,245.83 4.53,34.41 9.06,68.82 13.59,103.23 9.46,37.5 33.05,60.83 44.82,95.08 6.16,17.93 10.92,49.07 5.43,71.98 -5.41,22.53 -30.66,62.7 -14.94,93.71 17.48,34.48 91.48,-2.75 114.09,-12.23 60.3,-25.27 120.72,-49.91 191.5,-66.54 30.79,-3.62 61.58,-7.25 92.36,-10.87 28.97,-0.45 57.95,-0.91 86.92,-1.36 53.44,8.92 103.88,11.33 148.04,28.53 133.18,51.82 214.88,145.09 316.46,226.81 l 78.78,78.77 c 40.89,32.91 81.45,74.29 114.08,115.45 11.77,14.85 33.47,33.65 28.53,63.84"
         style="fill:url(#linearGradient995);fill-opacity:1;fill-rule:evenodd;stroke:none"
         id="path997" />
    </g>
    <text
       xml:space="preserve"
       transform="matrix(0.31027169,0,0,0.31027169,-5.7926483,-26.429201)"
       id="text6522"
       style="font-size:40px;line-height:1.25;font-family:Arial;-inkscape-font-specification:Arial;word-spacing:0px;white-space:pre;shape-inside:url(#rect6524);stroke-width:0.999124;stroke-miterlimit:4;stroke-dasharray:none"><tspan
         x="163.61719"
         y="490.10635"
         id="tspan54566"><tspan
           style="font-weight:bold;font-family:monospace;-inkscape-font-specification:'monospace Bold'"
           id="tspan54564">
</tspan></tspan><tspan
         x="163.61719"
         y="540.74591"
         id="tspan54570"><tspan
           style="font-family:monospace;-inkscape-font-specification:monospace"
           id="tspan54568">KIT</tspan></tspan></text>
    <text
       xml:space="preserve"
       transform="matrix(0.31027169,0,0,0.31027169,-6.4661292,-22.346835)"
       id="text6522-9"
       style="font-size:40px;line-height:1.25;font-family:Arial;-inkscape-font-specification:Arial;word-spacing:0px;white-space:pre;shape-inside:url(#rect6524-1);stroke-width:0.966895;stroke-miterlimit:4;stroke-dasharray:none"><tspan
         x="163.61719"
         y="490.10635"
         id="tspan54574"><tspan
           style="font-weight:bold;font-family:monospace;-inkscape-font-specification:'monospace Bold';stroke:#000000"
           id="tspan54572">COW</tspan></tspan></text>
  </g>
</svg>
