<?xml version="1.0" encoding="UTF-8" standalone="no"?>
<!-- Created with Inkscape (http://www.inkscape.org/) -->

<svg
   width="120.81064mm"
   height="70.94239mm"
   viewBox="0 0 120.81064 70.942393"
   version="1.1"
   id="svg5"
   inkscape:version="1.1.2 (0a00cf5339, 2022-02-04)"
   sodipodi:docname="cowkit_logo.svg"
   xmlns:inkscape="http://www.inkscape.org/namespaces/inkscape"
   xmlns:sodipodi="http://sodipodi.sourceforge.net/DTD/sodipodi-0.dtd"
   xmlns:xlink="http://www.w3.org/1999/xlink"
   xmlns="http://www.w3.org/2000/svg"
   xmlns:svg="http://www.w3.org/2000/svg">
  <sodipodi:namedview
     id="namedview7"
     pagecolor="#ffffff"
     bordercolor="#666666"
     borderopacity="1.0"
     inkscape:pageshadow="2"
     inkscape:pageopacity="0.0"
     inkscape:pagecheckerboard="0"
     inkscape:document-units="mm"
     showgrid="false"
     inkscape:zoom="1.2837739"
     inkscape:cx="129.69574"
     inkscape:cy="100.09551"
     inkscape:window-width="1920"
     inkscape:window-height="1016"
     inkscape:window-x="0"
     inkscape:window-y="27"
     inkscape:window-maximized="1"
     inkscape:current-layer="layer1" />
  <defs
     id="defs2">
    <rect
       x="163.61681"
       y="454.07574"
       width="230.46045"
       height="200.0742"
       id="rect6524" />
    <linearGradient
       x1="0"
       y1="0"
       x2="1"
       y2="0"
       gradientUnits="userSpaceOnUse"
       gradientTransform="matrix(3760.93,-3986.82,-3986.82,-3760.93,7627.52,4186.97)"
       spreadMethod="pad"
       id="linearGradient933">
      <stop
         style="stop-opacity:1;stop-color:#b9973d"
         offset="0"
         id="stop925" />
      <stop
         style="stop-opacity:1;stop-color:#562013"
         offset="0.413953"
         id="stop927" />
      <stop
         style="stop-opacity:1;stop-color:#7b421a"
         offset="0.689944"
         id="stop929" />
      <stop
         style="stop-opacity:1;stop-color:#d3a627"
         offset="1"
         id="stop931" />
    </linearGradient>
    <linearGradient
       x1="0"
       y1="0"
       x2="1"
       y2="0"
       gradientUnits="userSpaceOnUse"
       gradientTransform="matrix(3404.69,-1471.6,-1471.6,-3404.69,196.542,6455.38)"
       spreadMethod="pad"
       id="linearGradient945">
      <stop
         style="stop-opacity:1;stop-color:#b9973d"
         offset="0"
         id="stop937" />
      <stop
         style="stop-opacity:1;stop-color:#562013"
         offset="0.350157"
         id="stop939" />
      <stop
         style="stop-opacity:1;stop-color:#7b421a"
         offset="0.858471"
         id="stop941" />
      <stop
         style="stop-opacity:1;stop-color:#d3a627"
         offset="1"
         id="stop943" />
    </linearGradient>
    <linearGradient
       x1="0"
       y1="0"
       x2="1"
       y2="0"
       gradientUnits="userSpaceOnUse"
       gradientTransform="matrix(3828.7,2575.05,2575.05,-3828.7,7576.07,4342.18)"
       spreadMethod="pad"
       id="linearGradient957">
      <stop
         style="stop-opacity:1;stop-color:#b9973d"
         offset="0"
         id="stop949" />
      <stop
         style="stop-opacity:1;stop-color:#562013"
         offset="0.413953"
         id="stop951" />
      <stop
         style="stop-opacity:1;stop-color:#7b421a"
         offset="0.689944"
         id="stop953" />
      <stop
         style="stop-opacity:1;stop-color:#d3a627"
         offset="1"
         id="stop955" />
    </linearGradient>
    <linearGradient
       x1="0"
       y1="0"
       x2="1"
       y2="0"
       gradientUnits="userSpaceOnUse"
       gradientTransform="matrix(4351.43,1364.35,1364.35,-4351.43,3875.23,4530.71)"
       spreadMethod="pad"
       id="linearGradient971">
      <stop
         style="stop-opacity:1;stop-color:#b9973d"
         offset="0"
         id="stop961" />
      <stop
         style="stop-opacity:1;stop-color:#562013"
         offset="0.413953"
         id="stop963" />
      <stop
         style="stop-opacity:1;stop-color:#7b421a"
         offset="0.689944"
         id="stop965" />
      <stop
         style="stop-opacity:1;stop-color:#d3a627"
         offset="0.998575"
         id="stop967" />
      <stop
         style="stop-opacity:1;stop-color:#d3a627"
         offset="1"
         id="stop969" />
    </linearGradient>
    <linearGradient
       x1="0"
       y1="0"
       x2="1"
       y2="0"
       gradientUnits="userSpaceOnUse"
       gradientTransform="matrix(287.515,-3614.47,-3614.47,-287.515,5658.05,3706.43)"
       spreadMethod="pad"
       id="linearGradient983">
      <stop
         style="stop-opacity:1;stop-color:#b9973d"
         offset="0"
         id="stop975" />
      <stop
         style="stop-opacity:1;stop-color:#562013"
         offset="0.413953"
         id="stop977" />
      <stop
         style="stop-opacity:1;stop-color:#7b421a"
         offset="0.689944"
         id="stop979" />
      <stop
         style="stop-opacity:1;stop-color:#d3a627"
         offset="1"
         id="stop981" />
    </linearGradient>
    <linearGradient
       x1="0"
       y1="0"
       x2="1"
       y2="0"
       gradientUnits="userSpaceOnUse"
       gradientTransform="matrix(4619.28,3580.23,3580.23,-4619.28,-546.957,231.4)"
       spreadMethod="pad"
       id="linearGradient995">
      <stop
         style="stop-opacity:1;stop-color:#b9973d"
         offset="0"
         id="stop987" />
      <stop
         style="stop-opacity:1;stop-color:#562013"
         offset="0.413953"
         id="stop989" />
      <stop
         style="stop-opacity:1;stop-color:#7b421a"
         offset="0.689944"
         id="stop991" />
      <stop
         style="stop-opacity:1;stop-color:#d8b24b"
         offset="1"
         id="stop993" />
    </linearGradient>
    <clipPath
       clipPathUnits="userSpaceOnUse"
       id="clipPath1150">
      <rect
         style="fill:#00bbc2;fill-opacity:0.186203;stroke:#ffffff;stroke-width:0.825;stroke-linejoin:round;stroke-miterlimit:10;paint-order:fill markers stroke"
         id="rect1152"
         width="3860.0676"
         height="3561.2771"
         x="141.12527"
         y="-7310.894"
         transform="scale(1,-1)" />
    </clipPath>
    <rect
       x="163.61681"
       y="454.07574"
       width="230.46045"
       height="200.0742"
       id="rect6524-1" />
    <clipPath
       clipPathUnits="userSpaceOnUse"
       id="clipPath54458">
      <rect
         style="fill:#00bbc2;fill-opacity:0.186203;stroke:#000000;stroke-width:8.50395;stroke-linejoin:round;stroke-miterlimit:4;stroke-dasharray:none;stroke-opacity:1;paint-order:fill markers stroke"
         id="rect54460"
         width="3507.6201"
         height="2814.2041"
         x="69.026161"
         y="-7085.8403"
         transform="scale(1,-1)" />
    </clipPath>
    <radialGradient
       inkscape:collect="always"
       xlink:href="#linearGradient957"
       id="radialGradient54865"
       cx="1889.2279"
       cy="5540.6289"
       fx="1889.2279"
       fy="5540.6289"
       r="1672.7073"
       gradientTransform="matrix(1,0,0,0.91055901,14.999999,495.55933)"
       gradientUnits="userSpaceOnUse" />
    <rect
       x="163.61681"
       y="454.07574"
       width="230.46045"
       height="200.0742"
       id="rect6524-4" />
    <rect
       x="163.61681"
       y="454.07574"
       width="280.7178"
       height="213.61824"
       id="rect6524-1-5" />
    <rect
       x="163.61681"
       y="454.07574"
       width="280.7178"
       height="213.61824"
       id="rect6524-1-5-5" />
    <rect
       x="163.61681"
       y="454.07574"
       width="280.7178"
       height="213.61824"
       id="rect6524-1-5-7" />
  </defs>
  <g
     inkscape:label="Layer 1"
     inkscape:groupmode="layer"
     id="layer1"
     transform="translate(-20.725696,-58.276203)">
    <rect
       style="opacity:1;fill:#ffccd4;fill-opacity:1;stroke:#000000;stroke-width:0;stroke-linejoin:round;paint-order:fill markers stroke"
       id="rect1395"
       width="120.81064"
       height="70.94239"
       x="20.725697"
       y="58.276203"
       ry="9.6373148"
       rx="9.6373148" />
    <g
       id="g921"
       transform="matrix(0.02100608,0,0,-0.02100608,17.985638,210.52019)"
       clip-path="url(#clipPath1150)"
       style="stroke-width:0.999711;stroke-miterlimit:4;stroke-dasharray:none">
      <path
         d="m 10188.7,2116.42 c -38.9,-8.9 -61.4,35.67 -42.2,63.38 7.1,10.39 18.8,12.06 31.6,17.16 52.8,0.49 54.9,-70.4 10.6,-80.54 z m 76.6,-60.74 c -16.2,-39.27 -46.2,-74.4 -92.4,-83.18 -50.2,-9.53 -96.2,13.49 -146.6,2.64 -44.92,-9.67 -61.82,-44.06 -95.07,-58.1 l -2.64,1.32 c 28.13,65.16 63.32,131.64 92.41,198.06 16.8,38.37 32.6,87.56 63.4,112.23 13.6,10.91 31.9,23.72 50.2,29.05 8.8,1.32 17.6,2.64 26.4,3.95 57.5,1.07 105.3,-5.18 114.8,-50.16 -14.9,3.51 -29.9,7.04 -44.8,10.55 -142.6,25.08 -203.5,-129.45 -244.31,-212.57 v -1.32 c 15.01,5.28 29.91,10.56 44.91,15.85 30.8,5.53 64.8,-4.91 91.1,-9.25 88.4,-14.58 143.5,47.89 154.5,112.23 0.8,0.45 1.7,0.89 2.6,1.32 8.9,-22.64 -8.2,-57.23 -14.5,-72.62 z m -42.3,-364.42 c -22,-105.77 -39.9,-203.62 -69.9,-298.39 -16.9,-53.34 -45.5,-102.99 -60.8,-153.17 l -2.6,-1.32 c 0.9,65.35 10.8,133.06 22.4,191.46 33.8,169.99 51.9,292.68 132.1,414.59 h 2.6 c -7.9,-51.06 -15.8,-102.12 -23.8,-153.17 z m -130.7,-914.998 c -7.6,-44.043 -11.4,-83 -30.3,-114.871 -54.6,-91.68 -227.91,-81.442 -353.9,-60.731 -24.44,4.012 -54.61,1.961 -73.95,-3.969 -7.92,-3.519 -15.84,-7.043 -23.76,-10.562 -13.2,4.84 -26.41,9.68 -39.61,14.531 -43.99,7.75 -123.61,-8.039 -163.73,-14.531 -78.96,-12.789 -191.62,2.113 -236.34,35.652 -22.27,16.711 -34.75,50.379 -44.89,79.219 -54.62,155.359 3.85,338.52 22.44,483.25 13.2,0.88 26.42,1.76 39.61,2.64 42.73,8.34 86.66,25.5 109.59,54.14 50.15,62.63 81.9,250.59 62.06,373.65 -6.6,55.01 -13.2,110.04 -19.8,165.05 -38.4,183.76 -77.84,366.12 -170.33,496.45 -23.46,33.07 -55.3,72.38 -97.71,85.83 -33.95,10.76 -88.11,-5.91 -106.94,19.8 -27.56,37.6 24.23,138.83 39.61,165.04 24.28,41.43 52.81,76.93 87.14,108.27 22.81,20.83 49.81,40.2 80.54,52.81 161.28,66.22 271.08,-112.93 326.12,-205.97 33.21,-56.1 50.33,-129.92 153.17,-110.91 161.74,29.89 173.33,221.85 257.47,330.09 16.87,21.71 40.78,31.07 64.7,46.21 6.16,-0.44 12.32,-0.88 18.48,-1.32 2.74,-2.16 11.13,-87.07 14.53,-96.39 23.9,-66.4 104.4,-90.47 118.8,-162.4 -13.5,-16.05 -41.6,-21.9 -56.7,-40.93 -33.3,-41.61 -55.7,-93.2 -88.51,-134.68 -31.28,-39.55 -75.71,-67.08 -96.39,-117.51 -14.91,-36.35 -12.9,-81.45 -21.12,-124.11 -11.95,-61.96 -21.57,-122.09 -42.26,-176.93 -48.98,-129.91 -118.33,-345.36 -62.05,-520.21 18.27,-56.78 47.55,-101.29 104.31,-120.15 34.18,-11.37 71.56,-5.17 96.38,-23.77 26.59,-19.92 43.54,-59.08 60.74,-88.47 52.9,-90.13 98.1,-236.429 72.6,-384.218 z M 8938.33,2171.87 c 5.32,13.09 18.49,19.51 30.37,26.41 57.3,2.62 69.44,-64.97 25.09,-80.54 -34.93,-12.27 -69.12,20.55 -55.46,54.13 z m 51.49,-200.69 c -75.78,12.57 -120.6,67.48 -120.15,154.48 h 2.64 c 13.42,-57.71 48.96,-99.07 109.59,-109.59 71.38,-12.37 112.4,23.45 174.29,-10.56 h 1.32 c -6.68,27.84 -26.11,56.11 -39.61,79.22 -56.71,97.1 -93.82,156.92 -245.59,126.76 6.99,32.76 34.86,38.81 64.7,50.16 30.49,0.27 64.74,1.37 87.14,-7.92 41.4,-17.15 62.4,-56.61 80.55,-97.7 34.85,-78.99 75.04,-159.66 110.91,-236.35 -0.88,-0.88 -1.77,-1.76 -2.65,-2.64 -29.29,17.14 -47.98,45.26 -85.82,55.46 -44.74,12.05 -97.61,-7.91 -137.32,-1.32 z m 84.51,-705.07 h -1.32 c -18.49,16.2 -25.77,56.46 -35.66,80.54 -33.64,82.02 -52.58,175.58 -73.93,270.68 -5.71,25.37 -23.03,91.42 -15.85,116.19 15.02,-8.33 32.47,-73.6 40.94,-93.75 26.44,-62.91 42.81,-140.17 58.09,-212.58 9.24,-51.92 18.49,-103.87 27.73,-155.8 z m -270.68,1654.4 c -127.11,23.81 -64.26,175.82 -39.61,256.15 l 2.64,1.32 c 6.29,-39.94 1.81,-81.16 19.8,-110.91 77.41,-127.94 229.48,29.48 298.41,58.1 31.47,13.07 66.42,11.87 106.95,18.49 28.79,4.68 55.76,-2.11 77.9,6.6 54.53,21.43 83.62,70.37 129.39,100.34 14.52,7.04 29.05,14.08 43.58,21.12 10.11,1.33 20.24,2.65 30.37,3.97 79.67,-0.58 113.36,-40.05 175.6,-51.5 29.35,-5.4 44.42,10.29 62.05,17.17 33.04,12.89 85.46,20.7 122.8,6.6 58.63,-22.15 81.96,-75.72 130.71,-105.63 29.53,-18.12 76.76,-14.21 112.26,-27.73 50.7,-19.33 85.6,-60.68 138.6,-77.9 73,-23.7 105.9,13.79 118.8,72.62 3.2,14.18 7.4,39.98 2.7,56.78 0.9,0.44 1.7,0.88 2.6,1.32 53.8,-90.76 3.6,-186.3 -73.9,-213.9 -15.9,-5.65 -38.5,-12.89 -60.7,-7.92 -65.7,14.67 -99.6,66.52 -140,106.94 -11.8,11.77 -35.7,37.18 -59.4,19.82 -17.68,-12.93 -16.66,-46.63 -7.95,-68.66 10.25,-25.9 63.55,-117.7 48.85,-153.17 l -1.3,-3.95 c -27.3,2.47 -45.04,30.97 -58.11,48.84 -39.79,54.42 -57.74,127.03 -81.87,198.06 -13.08,38.55 -21.93,79.14 -59.41,92.42 -100.85,35.75 -111.34,-181.99 -97.7,-270.67 h -5.29 c -10.12,20.24 -20.24,40.5 -30.37,60.74 -19.02,46.32 -27.86,112.75 -68.65,137.31 -20.85,12.56 -59.02,8.18 -77.9,-2.63 -45.35,-25.97 -112.77,-97.74 -129.4,-150.53 -1.75,-0.44 -3.52,-0.88 -5.28,-1.32 3.22,74.46 48.64,120.63 71.3,175.61 8.91,21.61 10.05,52.83 -10.57,62.06 -47.64,21.33 -74.18,-42.96 -88.45,-67.35 -28.58,-48.78 -55.01,-97.65 -88.47,-141.26 -18.62,-24.28 -43.13,-43.89 -62.06,-67.35 L 9209,2876.94 h -1.32 c 22.45,47.09 44.9,94.19 67.34,141.28 6.41,14.13 16.37,43.38 1.32,55.46 -37.8,6.85 -63.73,-43.82 -80.54,-64.7 -35.6,-44.23 -133.94,-138.27 -187.49,-159.77 l -2.65,-2.63 h -1.31 c 16.3,59.92 80.78,100.11 81.86,172.95 -3.96,3.09 -7.93,6.17 -11.88,9.25 -23.72,-1.62 -41.38,-20.16 -58.1,-30.37 -36.67,-22.39 -151.4,-89.35 -212.58,-77.9 z M 11171,2608.91 c -139.8,86.03 -425.6,139.5 -596.8,38.29 -22.2,-13.14 -47.5,-30.39 -63.3,-50.17 -26.4,-33.08 -50.5,-88.25 -95.1,-101.67 -54.5,-16.39 -112.5,55.15 -133.3,84.5 h -5.3 c 2.7,-37.1 21,-72.84 34.3,-102.98 v -6.6 h -1.3 c -38.5,23.19 -71.1,140.43 -81.9,198.04 -4.1,21.9 -8.3,65.98 0,85.82 6.2,9.34 73.9,30.55 88.5,36.98 62,27.33 130.3,71.62 163.7,128.07 25.4,42.96 28.8,126.39 11.9,182.21 -33.4,109.95 -101,192.13 -173,264.07 -22.4,22.38 -75.7,79.08 -112.2,81.86 -11.5,-19.89 22.5,-51.92 31.7,-67.34 27.8,-46.46 114.9,-244.45 23.7,-289.16 -21.8,-10.73 -53.9,6.28 -69.9,13.21 -29.5,14.97 -59,29.93 -88.5,44.89 -24.6,10.22 -50.1,13.16 -77.9,21.13 -66.5,19.07 -88.13,89.42 -147.88,116.19 -45.52,20.4 -116.96,20.23 -170.32,6.61 -20.31,-5.19 -44.03,-17.47 -73.95,-11.89 -58.21,10.85 -106.27,55.3 -186.16,40.93 -112.21,-20.19 -121.14,-93.77 -200.7,-128.08 -34.01,-14.66 -84.98,-6.26 -126.75,-14.52 -46.53,-9.21 -80.74,-27.44 -114.88,-48.85 -29.76,-18.68 -124,-87.42 -172.95,-51.49 -83.72,61.42 -2.03,245.59 31.68,298.4 11.3,17.7 32.39,38.83 35.65,62.05 v 1.32 c -5.74,4.02 -8.11,6.5 -18.49,6.6 -117.01,-74.5 -205.33,-170.8 -261.42,-306.32 -26.94,-65.06 -32.9,-166.51 3.95,-225.78 54.53,-87.67 196.81,-131.94 289.16,-184.85 -7.92,-39.96 -96.89,-145.51 -129.39,-165.04 -12.45,-7.48 -40.11,-14 -60.73,-7.92 -31.59,9.29 -50.84,37.25 -73.95,55.45 -27.18,21.42 -60.76,42.1 -93.74,56.77 -141.95,63.16 -344.76,75.36 -503.06,15.85 h -5.28 c 21.09,19 62.41,23.99 92.42,33.01 110.3,33.13 286.03,25.59 396.12,-2.64 59.06,-15.15 110.09,-37.38 172.95,-48.85 60.27,-11.01 91.07,25.94 128.08,38.29 0.44,2.19 0.88,4.4 1.32,6.6 -16.28,6.6 -32.57,13.2 -48.85,19.8 -25.92,5.29 -42.55,-11.58 -60.74,-15.84 -22.29,-5.22 -40.58,3.54 -56.77,7.92 -0.44,1.76 -0.88,3.52 -1.33,5.29 12.33,12.75 24.65,25.52 36.98,38.28 v 3.96 l -47.53,47.53 h -1.32 c -27.43,-3.96 -52.38,-51.5 -76.58,-63.37 -17.75,-6.41 -54.67,10.36 -72.62,14.52 -41.47,9.6 -136.86,20.33 -188.82,11.89 -34.77,-3.97 -69.54,-7.93 -104.31,-11.89 -112.46,-24.88 -236.33,-65.87 -297.08,-141.28 -11.87,-16.27 -23.76,-32.56 -35.64,-48.85 7.61,-55.66 93.11,-148.37 129.39,-182.21 123.41,-115.11 366.14,-288.48 624.53,-216.53 55.31,15.4 80.15,44.48 121.47,68.65 25.97,-24.64 51.93,-49.29 77.9,-73.94 3.09,-43.12 6.16,-86.27 9.25,-129.39 10.99,-90.66 22,-181.34 33.01,-271.99 34.13,-171.13 59.58,-337.6 117.51,-484.57 17.14,-43.51 34.88,-89.41 58.09,-128.08 11.89,-16.28 23.77,-32.57 35.65,-48.85 -0.44,-7.48 -0.88,-14.97 -1.32,-22.45 -1.1,-50.77 -9.96,-88.37 -19.81,-128.07 -21.36,-86.18 -22.59,-219.891 14.52,-287.84 v -1.309 c -15.38,-1.652 -73.89,34.27 -89.77,43.571 -66.15,38.699 -127.02,76.75 -186.17,121.457 -19.37,17.171 -38.73,34.343 -58.1,51.504 -48.7,39.078 -92.1,86.808 -130.71,135.987 -133.21,169.64 -212.08,315.85 -274.64,559.84 -11.16,43.55 -16.91,93.61 -25.09,141.28 -1.76,31.24 -3.51,62.5 -5.28,93.74 -0.44,31.69 -0.88,63.38 -1.32,95.07 2.65,34.32 5.28,68.66 7.92,102.98 6.6,44.01 13.21,88.03 19.81,132.04 -11.25,13.51 -56.14,25.66 -75.26,29.05 h -1.32 c -56.05,-175.01 -42.09,-460.07 2.64,-633.77 107.38,-417.03 332.24,-700.249 661.49,-893.882 70.47,-41.437 151.63,-78.136 235.03,-104.308 31.69,-9.949 65.41,-10.75 97.71,-23.758 7.48,-9.691 14.96,-19.371 22.44,-29.062 16.67,-20.758 47.07,-43.028 72.62,-54.129 37.3,-16.192 77.01,-15.719 126.75,-23.77 h 211.26 c 33.44,1.32 66.9,2.649 100.35,3.969 51.35,11.269 98.74,37.461 126.75,72.609 9.35,11.731 18,36.953 31.69,43.582 24.64,8.36 49.34,16.731 73.94,25.09 66.7,27.129 131.9,58.34 191.5,93.738 193.7,115.121 336.8,267.7 463.4,450.241 103.7,149.47 165.1,327.26 211.3,536.07 12.5,56.92 7,114.73 17.1,176.92 13.4,82.28 1.2,186.17 -11.9,258.79 -6.7,37.48 -5.3,82.63 -21.1,113.55 -7.3,7.63 -61,-16.38 -77.9,-18.48 -5.7,-26.77 10.5,-72.2 15.9,-100.35 11.1,-58.22 11.8,-119.03 11.8,-186.18 -0.4,-25.95 -0.9,-51.93 -1.3,-77.9 -14.7,-97.8 -18.9,-186.52 -42.2,-270.66 -14.1,-44.01 -28.2,-88.04 -42.3,-132.04 -9.7,-24.2 -19.4,-48.42 -29,-72.62 h -1.4 c -5.7,26.41 -11.4,52.81 -17.1,79.22 -14,46.24 -33.6,98.08 -64.7,128.08 h -6.6 c -5.7,-8.3 -8.4,-17.94 -7.9,-33.01 -1.8,-0.44 -3.6,-0.88 -5.3,-1.32 -65.7,35.86 -112.8,142.25 -147.9,211.25 -16.2,31.88 -33.9,89.82 -71.3,99.03 -64.6,15.88 -69.1,-152.01 -58.1,-209.94 30.2,-159.44 77.5,-287.52 110.9,-446.28 8.3,-39.18 24.1,-156.88 11.9,-203.332 -4.4,-16.898 -56.4,-56.726 -71.3,-68.656 -80.3,-64.293 -158.1,-137 -256.2,-183.531 l -2.6,2.641 c 13.6,37.3 15.4,79.828 23.8,122.789 16.5,84.558 18.4,179.659 33,269.359 2.2,31.68 4.4,63.38 6.6,95.06 0.9,55.9 1.7,111.8 2.6,167.68 17.6,59.86 35.2,119.72 52.8,179.57 22.6,89.09 33.4,181.84 51.5,277.28 7.9,85.37 15.9,170.77 23.8,256.15 1.3,36.09 2.6,72.18 4,108.26 25.9,24.21 51.9,48.42 77.9,72.62 34.3,-17.71 63.5,-40.61 106.9,-51.48 48.1,-12.04 117.3,-14.43 170.3,-5.29 205.7,35.43 301.4,99.22 433.1,204.65 27.9,22.34 122.2,119.09 128.1,154.48 -16.2,21.49 -44,35.8 -67.4,50.18 z M 9797.88,1122.19 c -60.37,-9.21 -119.62,-15.84 -187.49,-15.84 h -54.14 c -70.54,10.79 -138.65,16.3 -217.85,15.84 -12.33,-2.2 -24.65,-4.39 -36.97,-6.6 -38.3,-11.67 -67.66,-36.86 -80.54,-73.94 -37.37,-107.58 40.59,-171.81 101.66,-202.009 17.72,-8.77 55.88,-33.239 84.5,-22.45 35.19,13.258 14.07,62.7 0,81.872 -22.35,30.449 -124.71,88.296 -113.54,135.987 3.3,14.09 14.9,21.74 22.44,31.69 1.32,0.44 2.64,0.88 3.96,1.32 0.44,-0.88 0.88,-1.76 1.32,-2.65 -19.3,-39.58 13.17,-59.82 38.29,-75.25 43.89,-26.961 95.9,-51.14 106.94,-110.91 17.95,-97.07 -67.64,-125.668 -118.82,-155.801 -19.99,-11.777 -77.57,-30.238 -58.1,-69.98 14.84,-30.258 87.52,-35.047 134.68,-27.719 109.45,16.969 236.24,18.422 345.93,1.309 43.95,-6.848 116.52,-4.879 139.96,15.839 23.44,20.743 7.34,47.383 -11.89,60.754 -57.58,40.008 -148.03,53.52 -162.4,135.989 -14.89,85.531 48.34,117.019 93.75,143.922 26.42,15.636 66.54,32.117 51.49,76.577 1.76,0.88 3.52,1.76 5.28,2.64 63.06,-48.36 -33.49,-107.96 -63.37,-132.03 -12.01,-9.68 -20.52,-23.719 -29.05,-36.98 -7.98,-12.399 -25.52,-44.27 -11.89,-64.688 20.31,-30.41 82.11,2.297 102.99,14.52 59.46,34.789 126.48,106 83.18,207.288 -22.05,51.59 -85.88,84.18 -170.32,71.3 z m 645.62,1674.21 c 13.2,-14.08 26.4,-28.17 39.6,-42.26 -30.2,-33.14 -78.9,-5.66 -113.5,0 -26.8,4.4 -40.9,-13.91 -59.4,-19.8 -1.3,-1.76 -2.7,-3.52 -4,-5.27 26.7,-29.9 98.7,-52.68 154.5,-35.66 143.1,43.7 314.6,91.2 505.7,54.13 45.7,-8.85 89.6,-17.51 129.4,-33.01 21.5,-10.11 43.1,-20.24 64.7,-30.36 v 1.32 c -19.6,23.07 -60.5,37.34 -89.8,50.18 -62,27.18 -128.8,43.47 -207.3,58.08 -19.8,0.89 -39.6,1.77 -59.4,2.65 -24.2,0.44 -48.4,0.88 -72.6,1.32 -30.4,-3.08 -60.8,-6.16 -91.1,-9.24 -20.1,-3.96 -38.4,-10.24 -62.1,-10.57 -15.1,14.85 -69,71.14 -88.5,73.95 -11.7,-19.48 -40.2,-32.17 -46.2,-55.46"
         style="fill:url(#linearGradient933);fill-opacity:1;fill-rule:evenodd;stroke:none;stroke-width:0.999711;stroke-miterlimit:4;stroke-dasharray:none"
         id="path935" />
      <path
         d="m 1928.25,4192.25 c -15.28,42.49 -26.11,87.26 -36.27,134.07 -7.05,32.49 -6.13,67.92 -20.88,92.31 -26.67,44.13 -79.76,67.96 -123.07,95.61 -29.14,18.59 -54.81,42.33 -81.33,63.73 -23.1,18.65 -46.2,46.23 -63.73,70.33 -5.74,7.9 -8.71,19.51 -17.58,24.18 l -5.5,1.1 c -5.86,-1.1 -11.72,-2.2 -17.58,-3.3 -2.55,-15.67 13.01,-38.9 18.68,-52.75 16.48,-39.92 32.97,-79.86 49.45,-119.78 43.34,-102.4 87.6,-201.97 131.87,-302.19 26.37,-54.58 52.75,-109.17 79.12,-163.74 16.91,-11.08 123.48,-3.05 153.85,-5.5 3.61,11.02 -13.22,34.74 -18.68,46.15 -16.12,39.93 -32.24,79.86 -48.35,119.78 z m 1489.02,2140.68 c -12.74,-54.99 -92.63,-112.24 -142.86,-131.87 -30.77,-8.42 -61.54,-16.85 -92.31,-25.27 -29.85,-12.83 -23.12,-23.58 -38.46,-48.35 -12.45,-11.72 -24.91,-23.45 -37.36,-35.17 -33.36,-23.57 -69.65,-41.79 -118.68,-49.45 -67.47,-10.53 -141.82,67.83 -161.55,108.8 v 1.09 c 13.93,-10.62 27.85,-21.25 41.76,-31.87 32.13,-21.38 69.03,-40.33 106.6,-54.94 5.34,0.08 7.06,0.5 9.89,2.19 -10.13,22.52 -22.94,40.55 -26.38,70.34 10.26,-2 14.55,-8.67 21.98,-13.19 26.3,-16 61.32,-26.51 98.9,-16.49 0.74,1.1 1.47,2.2 2.2,3.3 -16.01,21.27 -43.23,51.26 -68.13,62.64 -3.29,3.66 -6.6,7.33 -9.89,10.99 16.85,-4.76 33.7,-9.52 50.55,-14.28 39.52,-7.87 71.85,5.54 95.61,15.38 0.36,1.47 0.73,2.93 1.09,4.4 -42.07,9.62 -76.45,27.08 -113.18,38.46 v 1.1 c 0.36,0.73 0.73,1.46 1.09,2.19 37.22,-12.82 98.13,-16.78 137.37,-4.39 29.98,9.46 54.02,25.58 87.91,32.96 31.07,6.77 89.38,9.66 94.51,40.66 4.59,17.19 -20.37,29.17 -31.87,35.17 -26.93,14.05 -106.65,37.86 -117.58,62.63 v 8.8 c 13.26,8.43 28.45,6.61 46.15,13.19 66.62,0.53 179.41,-16.63 162.64,-89.02 z m -685.72,-69.23 c -0.37,0.73 -0.73,1.47 -1.1,2.2 42.06,2.48 126.97,17.59 142.86,42.86 5.79,9.21 0.45,25.62 0,36.26 11.48,8.61 22.82,9.11 38.46,15.38 90.5,-1.07 133.96,-31.27 189.01,-65.93 20.03,-12.61 41.06,-30.63 65.94,-37.36 0.36,-0.73 0.73,-1.47 1.1,-2.2 -30.56,1.64 -57.04,16.37 -82.42,25.27 -33.28,11.68 -64.84,17.21 -103.3,25.28 -13.35,2.8 -33.26,7.31 -50.55,4.4 -41.86,-7.06 -51.48,-23.06 -82.42,-35.17 -32.56,-12.74 -74.54,-11.21 -117.58,-10.99 z m -291.21,-174.73 c 21.24,-0.84 38.34,-13.32 39.56,-34.06 -18.09,-4.59 -55.73,1.98 -78.02,0 -0.37,1.83 -0.74,3.66 -1.1,5.49 13.74,13.28 20.1,19.42 39.56,28.57 z m 139.56,0 c -23.09,6.74 -38.54,22.96 -63.74,28.58 -48.15,10.73 -102.48,-15.78 -120.88,-40.66 -32.71,-44.25 -13.22,-135.37 60.44,-116.49 57.81,14.82 66.46,113.74 8.79,132.97 -0.36,0.74 -0.73,1.47 -1.1,2.2 v 1.1 c 27.32,0 67.5,-22.41 75.83,-39.56 5.08,-20.96 -55.87,-124.62 -70.33,-130.77 -14.01,-3.36 -45.84,7.05 -69.23,0 -14.79,-4.46 -31.35,-12.26 -42.86,-20.88 -6.55,-4.91 -9.78,-12.54 -18.68,-15.39 21.78,72.74 24.18,193.54 64.83,247.26 21.27,28.09 40.39,26.79 74.73,40.66 50.27,-0.6 58.27,-45.39 90.11,-64.84 21.22,-12.96 51.31,-1.6 74.73,2.2 -5.76,-17.67 -35.41,-34.31 -62.64,-26.38 z m -146.15,-696.71 c -13.55,-56.03 -27.11,-112.09 -40.66,-168.13 -0.74,-0.36 -1.47,-0.73 -2.2,-1.09 -2.93,28.93 -5.87,57.87 -8.8,86.81 -16.39,91.11 -31.01,218.36 1.1,303.3 27.19,71.9 80.78,120.75 101.11,200 h 3.29 c -0.65,-146.96 -23.05,-298.03 -53.84,-420.89 z m -156.05,453.86 c -5.86,-23.81 -11.72,-47.63 -17.58,-71.43 h -1.1 c -5.98,16.86 3.31,82.77 6.59,102.19 15.02,88.97 21.79,168.45 49.45,242.86 v 3.3 c -16.03,-4.06 -32.14,-12.25 -47.25,-1.1 -8.9,34.63 9.41,66.42 23.08,89.02 26.98,44.6 62.35,84.08 112.08,105.49 15.02,4.03 30.04,8.06 45.06,12.09 55.53,1.28 62.84,-20.23 75.83,-60.44 -0.18,-4.85 0.13,-5.41 -2.2,-7.7 -12.09,-2.93 -24.18,-5.86 -36.27,-8.78 -18.86,-5.94 -37.32,-18.36 -51.64,-29.68 -47.71,-37.67 -68.67,-108.75 -89.02,-173.63 -21.14,-67.41 -45.93,-131.44 -67.03,-202.19 z m 124.18,870.33 v 1.1 c 31.13,4.03 62.27,8.06 93.4,12.09 104.25,25.54 202.36,59.2 256.05,135.16 h 2.2 c -4.78,-35.66 -32.06,-66.23 -50.55,-90.1 -57.74,-74.54 -149.4,-125.54 -243.96,-162.65 -5.72,1.01 -53.35,92.95 -57.14,104.4 z M 1366.7,6643.93 c -13.55,-21.98 -27.11,-43.97 -40.66,-65.94 -15.38,6.96 -30.77,13.92 -46.15,20.88 -84.77,37.11 -163.62,84.7 -215.39,154.95 -12.11,16.43 -48.52,63.97 -47.25,85.71 11.39,-5.56 17.21,-20.5 25.27,-29.67 19.51,-22.2 46.47,-40.61 72.53,-56.04 49.11,-29.09 109.32,-48.44 172.53,-62.64 29.67,-4.03 59.34,-8.06 89.01,-12.09 h 13.19 c -2.9,-13.74 -16.05,-24.46 -23.08,-35.16 z m 74.73,-407.7 c 9.62,-15.35 43.63,-75.53 7.69,-84.61 -9.52,1.09 -19.05,2.19 -28.57,3.29 -0.36,-0.73 -0.74,-1.46 -1.1,-2.2 36.68,-88.94 77.18,-215.82 82.42,-331.87 -11.36,27.1 -22.71,54.22 -34.07,81.32 -19.78,42.49 -39.56,84.99 -59.34,127.47 -38.86,91.72 -61.43,204.26 -174.72,220.89 -5.05,34.38 31.33,78.69 54.94,91.2 66.87,0.84 126.55,-63.71 152.75,-105.49 z m 94.51,-515.39 c -3.34,-79.79 -54.6,-223.53 -105.5,-248.36 59.09,90.72 103.82,212.67 101.1,362.65 11.06,-20.23 5.58,-85.94 4.4,-114.29 z M 1370,5491.17 c -37.69,85.47 -82.85,176.9 -97.8,283.52 17.4,-8.76 36.23,-58.52 46.15,-78.03 28.63,-56.29 45.39,-122.18 65.94,-186.81 11.35,-36.99 22.71,-74 34.06,-110.99 -18.52,14.77 -37.63,68 -48.35,92.31 z m -312.09,763.74 c -33.97,-1.51 -79.004,-1.05 -102.195,13.19 -5.867,5.86 -11.727,11.72 -17.586,17.58 -15.613,12.3 -36.156,18.21 -60.441,21.98 -92.153,14.31 -151.969,-45.03 -223.079,-52.75 h -1.097 c -0.367,0.73 -0.735,1.47 -1.102,2.2 47.977,22.16 84.488,57.71 131.871,79.12 22.961,10.37 48.313,11.78 73.629,21.98 35.52,0.04 57.426,-4.28 80.219,-13.19 5.676,-11.05 0.172,-30.21 7.691,-40.66 19.176,-26.65 114.76,-45.15 162.64,-45.05 -16.85,-1.47 -33.7,-2.93 -50.55,-4.4 z M 777.688,6042.82 c -46.575,13.34 -97.715,38.34 -124.176,72.53 -9.696,12.52 -11.52,36.62 -24.176,46.15 -29.481,22.2 -71.098,26.07 -107.695,41.76 -35.219,15.1 -65.883,44.05 -94.508,67.04 -25.078,20.13 -70.547,61.75 -50.547,110.98 20.914,51.49 82.992,71.55 143.957,83.52 20.512,1.83 41.027,3.67 61.535,5.5 39.192,-1.1 78.395,-2.2 117.586,-3.3 -16.848,-2.2 -33.703,-4.39 -50.547,-6.6 -44.918,-8.72 -92.754,-12.73 -131.871,-26.37 -20.43,-7.12 -45.746,-11.17 -46.152,-38.46 33.258,-35.25 154.297,-37.29 224.176,-36.26 -12.704,-7.03 -32.832,-3.73 -49.45,-6.6 -39.769,-6.85 -144.582,-6.59 -159.343,-34.06 0.597,-31.53 39.414,-43.15 62.632,-52.75 42.008,-17.35 84.551,-33.58 134.075,-41.76 31.507,-5.21 60.179,5.36 86.812,7.69 -16.187,-18.58 -102.73,-38.78 -138.465,-39.56 v -1.09 c 21.727,-23.36 94.43,-29.31 129.668,-12.09 0.371,-0.37 0.735,-0.74 1.106,-1.1 -19.539,-23.99 -44.168,-38.13 -61.543,-65.94 3.156,-13.17 30.586,-13.05 46.156,-9.89 21.074,4.28 41.125,12.06 58.242,20.88 8.516,4.39 14.274,11.37 25.274,13.19 -1.543,-32.27 -20.379,-45.77 -24.172,-71.43 17.703,-4.6 37.054,11.27 49.445,17.58 41.856,21.3 75.66,44.2 110.992,70.33 h 1.098 C 954.34,6104.09 854.68,6020.78 777.688,6042.82 Z m 571.432,16.49 c -0.73,-1.1 -1.46,-2.2 -2.2,-3.3 -13.08,-2.81 -20.55,7.84 -34.06,4.39 -11.87,-3.02 -13.87,-13.73 -30.78,-14.28 -2.56,2.93 -5.12,5.86 -7.69,8.79 -0.36,3.3 -0.73,6.59 -1.09,9.89 8.69,9.89 16.82,13.69 28.57,20.88 26.34,0.73 40.09,-8.25 47.25,-26.37 z m 2219.8,336.26 c -56.85,143.72 -348.78,233.46 -552.75,169.23 -73.47,-23.13 -141.12,-55.65 -202.21,-92.31 -31.49,-19.77 -63,-39.56 -94.5,-59.34 -20.54,-6.46 -59.16,-2.93 -79.12,2.2 -55.07,14.15 -147.52,80.47 -156.04,139.56 27.83,13.55 55.68,27.11 83.51,40.66 106.36,62.36 187.54,128.64 227.47,258.25 15.67,50.83 26.12,155.43 -2.19,202.2 -0.37,1.09 -0.74,2.19 -1.1,3.29 -15.01,-5.26 -22.2,-40.4 -28.57,-54.94 -17.99,-41.03 -40.73,-78.31 -67.04,-110.99 -51.42,-63.9 -130.32,-88.12 -229.67,-105.5 -19.45,-3.4 -69.98,-11.51 -92.31,-5.49 -7.32,5.86 -14.65,11.72 -21.97,17.58 -12.83,6.96 -25.65,13.92 -38.47,20.88 -17.21,5.86 -34.43,11.72 -51.65,17.58 -8.78,0.73 -17.58,1.46 -26.37,2.2 -6.64,2.6 -8.43,51.34 -10.99,61.54 -8.22,32.78 -32.41,98.28 -60.44,107.69 7.68,-45.33 1.59,-60.22 -12.09,-94.5 -1.1,-0.73 -2.2,-1.47 -3.29,-2.2 -4.59,14.43 -1.95,34.31 -7.69,48.35 -24.72,60.33 -92,103.21 -180.23,102.2 -12.45,-2.93 -24.91,-5.86 -37.36,-8.79 -11.72,-6.23 -23.44,-12.46 -35.16,-18.69 -0.74,-1.46 -1.47,-2.93 -2.2,-4.39 37.59,2.84 65.87,-16.27 75.82,-45.05 -0.37,-1.1 -0.73,-2.2 -1.1,-3.3 -12.92,0.78 -20.08,7.1 -29.67,10.99 -24.04,9.75 -62.99,19.45 -96.7,13.18 -92.06,-17.11 -173.45,-105.89 -280.22,-84.61 -27.48,5.47 -46.49,21.13 -69.23,27.47 1.5,-19.88 6.79,-38.13 8.78,-54.95 -0.73,-0.36 -1.46,-0.73 -2.19,-1.09 -47.07,17.98 -88.61,-19.37 -128.57,-27.47 -56,-11.36 -90.89,17.71 -123.08,32.96 -1.47,0.73 -2.93,1.46 -4.4,2.2 2.74,-19.47 15.97,-37.63 25.28,-51.65 29.22,-44.03 62.97,-79.83 136.26,-73.63 -2.61,-7.09 -7.77,-6.94 -13.18,-10.99 -7.7,-6.95 -15.39,-13.92 -23.08,-20.88 -25.8,-8.31 -117.87,17.49 -136.27,24.18 -136.83,49.78 -195.44,141.25 -236.264,285.72 h -4.395 c -8.672,-26.57 -16.453,-54.49 -21.976,-86.81 -5.008,-29.33 -1.602,-69.43 3.297,-94.51 28.386,-145.29 97.898,-222.6 204.398,-287.92 28.56,-15.01 57.14,-30.04 85.71,-45.05 11.32,-4.96 25.67,-7.43 34.07,-15.39 -1.82,-20.24 -19.17,-34.92 -31.87,-45.05 -41.33,-32.99 -58.27,-54.38 -123.08,-67.04 -11.57,-2.26 -33.69,-4.62 -45.05,0 -38.1,23.81 -76.194,47.63 -114.288,71.43 -62.238,37.22 -131.836,66.27 -207.695,89.01 -167.598,50.24 -356.281,-21.23 -452.746,-92.3 -31.961,-23.55 -62.535,-52.65 -76.926,-93.41 -22.273,-63.08 16.809,-112.51 42.855,-145.06 47.364,-59.19 121.754,-97.01 189.008,-136.26 30.77,-15.02 61.543,-30.04 92.313,-45.06 37.781,-24.73 62.816,-64.58 103.301,-85.72 34.796,-18.16 92.636,-40.1 151.644,-29.66 76.484,13.52 128.02,36.62 176.926,75.82 27.738,22.23 50.808,74.78 96.708,75.83 12.9,-12.7 26.36,-29.89 43.95,-37.37 7.69,-1.83 15.39,-3.66 23.08,-5.49 -23.34,-19.86 -73.03,10.33 -87.91,14.28 3.98,-12.98 19.95,-20.87 30.77,-27.47 86.39,-52.69 118.71,29.11 178.02,49.46 h 3.29 c -6.04,-13.53 -24.29,-18.56 -30.76,-34.07 -21.49,-51.5 18.68,-95.61 57.14,-103.3 16.43,-3.28 28.19,4.37 36.27,9.89 37.67,25.74 36.66,85.52 6.59,118.68 -20.65,22.77 -81.03,36.47 -121.98,20.88 -16.48,-8.42 -32.97,-16.85 -49.45,-25.27 -22.52,-8.57 -53.68,1.15 -61.54,17.58 -1.75,2.17 -1.49,1.5 -2.2,5.49 19.05,4.58 33.18,-15.46 54.95,-6.59 35.41,14.44 47.31,59.77 86.81,68.13 36.95,7.83 64.67,-14.21 80.22,-29.67 53.04,-52.73 54.29,-158.79 82.42,-236.27 v -1.09 c -15.27,4.95 -28.43,24.94 -51.65,31.87 -21.23,6.33 -45.35,-2.4 -68.13,2.19 -31.88,6.43 -57.95,52.21 -65.94,83.52 -0.73,0.37 -1.46,0.73 -2.19,1.1 -0.74,-0.37 -1.47,-0.73 -2.2,-1.1 11.59,-30.59 10.35,-88.38 4.39,-125.28 v -93.4 c 7.25,-44.75 2.12,-86.41 9.9,-127.47 15.89,-83.92 32.51,-159.95 58.24,-232.97 23.09,-65.56 50.2,-126.72 63.73,-202.2 8.44,-47.04 -3.48,-99.75 -9.89,-137.37 10.27,4.01 14.99,24.12 20.88,32.97 19.78,26.73 39.57,53.48 59.34,80.22 74.14,92.88 190.86,138.66 253.85,243.96 14.97,25.02 69.3,145.84 13.19,161.54 -48.78,13.64 -94.75,-64.04 -127.47,-78.02 l -4.4,-2.2 v 1.1 c 29.22,40.29 52.33,86.94 68.13,140.66 18.26,62.06 15.51,160.54 2.2,225.27 -32.4,157.51 -85.64,276.3 -167.04,382.42 -32.42,42.28 -97.14,110.72 -156.04,123.08 -0.73,1.1 -1.47,2.2 -2.2,3.3 23.02,7.1 42.28,10 59.34,21.98 50.3,35.31 58.32,96.12 90.11,150.55 22.58,38.65 53.09,69.35 95.61,87.91 36.42,15.89 78.71,22.07 124.17,29.67 91.39,15.28 212.58,-11.45 223.09,82.42 5.91,2.26 69.55,-25.45 89,-29.67 50.24,-10.92 105.34,2.56 134.07,24.18 5.87,6.59 11.73,13.18 17.58,19.77 15.93,-22.13 24.78,-40.4 51.66,-51.64 26.4,-11.05 63.35,-7.45 91.21,-19.79 h 2.19 c -6.55,-19.04 -29.23,-24.23 -34.06,-47.25 -5.34,-25.38 16.53,-37.94 29.67,-46.15 28.47,-17.79 62.12,-29.64 94.5,-43.96 20.15,-10.25 40.3,-20.51 60.44,-30.77 0.73,-1.1 1.47,-2.2 2.2,-3.3 -4.66,-3.01 -16.17,-1.09 -25.28,-1.09 -42.24,0.02 -101.25,11.76 -115.38,-20.88 1.59,-41.33 76.41,-27.39 101.1,-47.25 v -1.1 c -69.11,-9.28 -127.77,-47.7 -163.74,-91.21 -21.79,-26.36 -46.33,-50.03 -64.83,-80.22 -71.37,-116.47 -120.93,-306.72 -140.66,-472.54 19.77,57.51 39.56,115.03 59.34,172.53 66.62,162.98 177.81,418.22 398.9,415.39 -24.17,-7.32 -48.35,-14.65 -72.53,-21.98 -38.19,-16.33 -69.81,-39.44 -100,-63.74 -40.61,-32.68 -68.44,-82.27 -95.6,-128.57 -111.11,-189.36 -164.42,-589.29 -65.94,-839.57 20.02,-50.86 44.46,-94.96 75.83,-134.06 17.58,-17.22 35.16,-34.44 52.74,-51.65 26.23,-32.63 45.57,-63.43 62.64,-106.6 6.95,-17.56 16.52,-36.86 16.49,-60.43 0.73,-0.37 1.46,-0.74 2.2,-1.1 5.86,12.45 11.72,24.91 17.58,37.36 18.46,42.18 35.7,85.71 50.55,132.97 53.6,170.64 95.77,366.02 92.31,591.21 h 2.19 c 29.12,-216.23 23.22,-473.63 -32.96,-657.15 -18.18,-59.34 -39.02,-115.67 -62.64,-169.23 -13.19,-24.17 -26.38,-48.35 -39.56,-72.53 0.73,-19.04 1.46,-38.09 2.19,-57.14 -7.18,-43.58 -15.01,-76.12 -36.26,-104.39 -22.4,-29.81 -56.13,-46.29 -101.1,-53.85 -15.09,-2.54 -34.3,4.48 -46.15,1.1 -16.49,-15.38 -32.97,-30.78 -49.46,-46.16 -53.63,-41.78 -124.15,-78.81 -152.74,-145.05 -57.23,-132.57 58.43,-282.07 107.69,-360.45 10.68,-16.99 49.53,-92.39 63.74,-97.8 -7.76,39.67 -48.61,114.6 -30.77,164.84 15.44,43.49 79.58,25 113.18,49.45 52.43,38.14 70.27,152.71 107.7,209.89 11.61,17.74 36.96,52.74 71.43,35.16 76.41,-38.95 50.04,-222.27 34.07,-314.28 -4.65,-26.75 -12.03,-84.68 1.09,-107.7 1.1,-1.1 2.2,-2.2 3.3,-3.29 40.68,37.44 73.07,104.25 102.2,153.84 74.62,127.03 115.57,269.64 147.25,442.86 3.67,45.05 7.33,90.12 10.99,135.17 v 38.46 c 7.11,43.86 3.27,117.85 -3.3,159.34 -11.07,69.99 -6.54,135.94 -18.68,202.21 -21.68,118.36 -39.54,233.68 -70.33,337.36 17.17,-15.16 25.68,-49.07 36.27,-70.33 30.63,-61.51 57.64,-124.95 85.71,-191.21 53.18,-125.54 91.74,-263.1 128.57,-405.5 18.68,-84.24 37.37,-168.51 56.05,-252.75 16.48,-55.3 32.97,-110.63 49.45,-165.93 11.72,-33.33 23.44,-66.67 35.17,-100 0.73,-0.37 1.46,-0.74 2.19,-1.1 0.74,0.73 1.47,1.46 2.2,2.19 -14.93,44.76 -19.24,220.85 10.99,243.96 32.47,4.46 56.38,-66.14 65.94,-93.4 41.22,-117.68 49.97,-257.03 79.12,-387.92 h 1.1 c 0.73,0.73 1.46,1.47 2.19,2.2 -5.49,57.14 -10.99,114.29 -16.48,171.42 -21.14,122.25 -30.12,241.63 -62.64,350.56 -25.84,86.58 -54.67,169.91 -96.7,240.66 -38.46,64.74 -87.42,123.5 -118.68,194.51 -19.91,45.19 -35.85,95.06 -48.36,147.25 -14.37,59.96 -22.1,119.66 -42.86,172.53 -38.62,98.42 -85.44,187.33 -138.46,271.43 -49.07,77.85 -108.52,145.84 -134.06,247.25 -11.37,45.13 -5.18,104.61 -6.6,154.95 0.74,0.37 1.47,0.74 2.2,1.1 37.31,-19.26 74.55,-21.66 112.09,1.1 8.79,6.23 17.58,12.45 26.37,18.68 1.47,1.83 2.93,3.67 4.4,5.5 v 1.1 c -8.43,-4.4 -16.85,-8.8 -25.28,-13.19 -23.05,-8.01 -53.1,-8.53 -75.82,-2.2 v 3.3 c 45.45,-4.24 64.77,32.49 91.21,51.65 56.83,-3.98 79.17,-65.24 114.29,-93.41 48.56,-38.97 97.6,-62.09 173.62,-75.83 60.58,-10.94 121.63,11.47 160.44,29.68 45.05,21.12 71.86,61.21 113.19,85.71 21.98,9.52 43.96,19.05 65.94,28.57 74.75,38.05 170.99,90.44 220.88,152.75 27.02,33.75 62.61,88.4 38.46,149.45 z m -1616.5,-1709.9 c -112.47,-17.08 -231.46,11.12 -337.36,3.29 -0.37,-1.09 -0.73,-2.19 -1.1,-3.29 58.58,-85.89 213.09,-213.84 357.14,-128.58 44.41,26.29 75.91,64.59 115.39,95.61 12.32,9.68 24.44,23.12 39.56,29.67 0.73,2.2 1.46,4.4 2.2,6.59 -18.6,6.35 -44.27,5.91 -69.24,5.5 -35.52,-2.93 -71.06,-5.86 -106.59,-8.79 z m -123.07,74.72 c 38.82,6.62 86.66,0.42 120.87,-6.59 85.08,-17.44 154.91,-45.55 235.17,-64.84 40.15,-9.64 94.35,-9.23 124.18,8.8 38.26,23.11 54.48,57.91 64.83,109.89 5.01,25.14 6.06,63.98 1.1,91.21 -6.73,36.94 -10.44,73.83 -20.88,107.69 -16.33,53 -43.61,96.15 -61.53,143.96 -1.1,0.73 -2.2,1.46 -3.3,2.19 -0.37,-0.73 -0.74,-1.46 -1.1,-2.19 15.63,-32.08 17.5,-90.98 17.58,-135.17 0.15,-82.8 9.1,-193.16 -28.57,-240.66 -9.25,-11.66 -26.1,-16.57 -41.76,-21.98 -103.57,-35.74 -199.23,30.48 -275.83,50.55 -0.36,0.73 -0.73,1.47 -1.1,2.2 49.17,7.52 137.62,-12.7 151.65,35.16 6.19,21.08 -12.57,33.05 -24.17,40.66 -33.56,22.03 -82.75,35.25 -106.6,67.03 -21.59,28.79 -11.46,74.98 4.4,101.11 36.34,59.88 98.79,102.98 169.23,128.57 3.3,-0.74 6.6,-1.47 9.89,-2.2 20.79,-80.31 -175.64,-114.44 -149.45,-198.9 12.81,-41.31 88.31,-38.04 124.18,-19.78 50.38,25.64 65.94,86.32 65.93,162.64 0,30.88 -2.62,56.5 -14.28,75.82 -19.39,32.11 -72.01,39.73 -123.08,29.67 -74.66,-14.71 -194.96,-38.52 -285.72,-23.08 -64.82,11.04 -114.15,31.44 -186.81,30.77 -10.63,-3.29 -21.25,-6.59 -31.87,-9.88 -27.69,-16.65 -38.13,-52.8 -46.16,-89.02 -18.79,-84.77 35.47,-213.52 127.48,-187.91 33.51,9.33 50.63,45.65 29.67,80.22 -28.71,47.36 -98.53,74.73 -98.91,147.25 0.38,0.74 0.74,1.47 1.11,2.2 16.97,6.12 45.86,-22.01 58.24,-30.77 41.11,-29.09 118.62,-93.71 94.5,-173.62 -21.41,-70.96 -140.03,-67.99 -153.85,-129.68 -12.41,-55.41 99.15,-56.54 148.36,-56.04 -16.64,-15.94 -60.44,-30.86 -84.62,-39.56 -53.34,-19.2 -156.89,-39.89 -195.6,8.79 -43.59,54.8 -35.5,244.75 -19.78,328.57 5.36,28.57 5.25,57.65 16.48,79.12 v 3.3 c -21.73,-13.64 -32.97,-51.18 -46.15,-73.63 -46.6,-79.32 -139.66,-316.16 -29.67,-393.4 36.8,-25.85 112.11,-31.29 168.13,-18.69 65.07,14.64 119.12,39.57 179.12,58.25 37.01,11.52 77,14.87 118.69,21.97 z m 49.44,1471.44 c 61.42,18.88 101.78,140.22 75.83,226.38 -20.92,69.47 -88.54,130.9 -179.12,129.67 -16.81,-7.1 -30.79,-7.51 -40.66,-20.88 -14.17,-19.18 -9.9,-53.05 -1.1,-74.73 20.5,-50.49 56.02,-88.22 72.53,-142.85 13.13,-43.48 4.14,-138.61 72.52,-117.59"
         style="fill:url(#radialGradient54865);fill-opacity:1;fill-rule:evenodd;stroke:none;stroke-width:0.999711;stroke-miterlimit:4;stroke-dasharray:none"
         id="path947" />
    </g>
    <text
       xml:space="preserve"
       transform="matrix(0.14853248,0,0,0.14853248,72.322079,23.988926)"
       id="text6522-4"
       style="font-size:40px;line-height:1.25;font-family:Arial;-inkscape-font-specification:Arial;word-spacing:0px;white-space:pre;shape-inside:url(#rect6524-4);stroke-width:0.999124;stroke-miterlimit:4;stroke-dasharray:none"><tspan
         x="163.61719"
         y="490.10635"
         id="tspan11173"><tspan
           style="font-weight:bold;font-family:monospace;-inkscape-font-specification:'monospace Bold'"
           id="tspan11171">
</tspan></tspan><tspan
         x="163.61719"
         y="540.74591"
         id="tspan11177"><tspan
           style="font-family:monospace;-inkscape-font-specification:monospace"
           id="tspan11175">KIT</tspan></tspan></text>
    <text
       xml:space="preserve"
       transform="matrix(0.14853248,0,0,0.14853248,72.772528,12.547422)"
       id="text6522-9-6"
       style="font-size:40px;line-height:1;font-family:Arial;-inkscape-font-specification:Arial;letter-spacing:0px;word-spacing:0px;white-space:pre;shape-inside:url(#rect6524-1-5);stroke-width:1.62381;stroke-miterlimit:4;stroke-dasharray:none"><tspan
         x="163.61719"
         y="485.10635"
         id="tspan11181"><tspan
           style="font-weight:bold;font-family:monospace;-inkscape-font-specification:'monospace Bold';stroke:#000000"
           id="tspan11179">C
</tspan></tspan><tspan
         x="163.61719"
         y="525.74591"
         id="tspan11185"><tspan
           style="font-weight:bold;font-family:monospace;-inkscape-font-specification:'monospace Bold';stroke:#000000"
           id="tspan11183">O
</tspan></tspan><tspan
         x="163.61719"
         y="566.38546"
         id="tspan11189"><tspan
           style="font-weight:bold;font-family:monospace;-inkscape-font-specification:'monospace Bold';stroke:#000000"
           id="tspan11187">W
</tspan></tspan></text>
    <text
       xml:space="preserve"
       transform="matrix(0.14853248,0,0,0.14853248,76.906104,12.496264)"
       id="text6522-9-6-1"
       style="font-size:40px;line-height:1;font-family:Arial;-inkscape-font-specification:Arial;letter-spacing:0px;word-spacing:0px;white-space:pre;shape-inside:url(#rect6524-1-5-7);fill:#000000;fill-opacity:0.704903;stroke-width:0;stroke-miterlimit:4;stroke-dasharray:none"><tspan
         x="163.61719"
         y="485.10635"
         id="tspan11193"><tspan
           style="font-family:monospace;-inkscape-font-specification:'monospace Bold';stroke:#000000"
           id="tspan11191">omfortable
</tspan></tspan><tspan
         x="163.61719"
         y="525.74591"
         id="tspan11197"><tspan
           style="font-family:monospace;-inkscape-font-specification:'monospace Bold';stroke:#000000"
           id="tspan11195">pen
</tspan></tspan><tspan
         x="163.61719"
         y="566.38546"
         id="tspan11201"><tspan
           style="font-family:monospace;-inkscape-font-specification:'monospace Bold';stroke:#000000"
           id="tspan11199">riting
</tspan></tspan></text>
  </g>
</svg>
