<?xml version="1.0" encoding="UTF-8" standalone="no"?>
<!-- Uploaded to: SVG Repo, www.svgrepo.com, Generator: SVG Repo Mixer Tools -->

<svg
   width="710.55029"
   height="666.64691"
   viewBox="0 0 63.949526 59.998222"
   id="emoji"
   version="1.1"
   sodipodi:docname="cowicon.svg"
   inkscape:version="1.1.2 (0a00cf5339, 2022-02-04)"
   xmlns:inkscape="http://www.inkscape.org/namespaces/inkscape"
   xmlns:sodipodi="http://sodipodi.sourceforge.net/DTD/sodipodi-0.dtd"
   xmlns="http://www.w3.org/2000/svg"
   xmlns:svg="http://www.w3.org/2000/svg">
  <defs
     id="defs36" />
  <sodipodi:namedview
     id="namedview34"
     pagecolor="#ffffff"
     bordercolor="#666666"
     borderopacity="1.0"
     inkscape:pageshadow="2"
     inkscape:pageopacity="0.0"
     inkscape:pagecheckerboard="0"
     showgrid="false"
     inkscape:zoom="0.87875"
     inkscape:cx="355.61878"
     inkscape:cy="332.85917"
     inkscape:window-width="1920"
     inkscape:window-height="1016"
     inkscape:window-x="0"
     inkscape:window-y="27"
     inkscape:window-maximized="1"
     inkscape:current-layer="emoji" />
  <g
     id="color"
     transform="translate(-4.0496377,-6.0477189)">
    <path
       fill="#ffffff"
       stroke="none"
       d="m 15,10 v 3 l 6,4 -1,8 2,8 -1,8 2,8 3,2 1,7 c 0,0 0,4 3,5 3,1 7,2 7,2 l 6,-2 c 0,0 4,-4 4,-6 0,-2 0,-5 0,-5 l 3,-7 1,-13 1,-6 -2,-9 4,-1 3,-4 V 9 l -9,2 -5,-2 -8,-2 -6,2 -4,2 z"
       id="path2" />
    <path
       fill="#a57939"
       stroke="none"
       d="m 67,16.4511 -5.5804,0.379 -7.3319,2.5057 -2.8846,1.2896 c 0,0 -10.3654,1.4604 -10.1987,7.2938 0,0 -0.4646,3.6003 1.951,6.1473 1.8803,1.9826 2.9889,4.6478 2.5192,7.3395 -0.3101,1.7768 -1.2515,3.5306 -3.4702,4.594 v 0 0 l 3.5899,1.2603 1.5524,4.4368 c 0,0 2.1911,-0.6947 3.5244,-4.1114 0,0 0.9791,-5.9167 0.9167,-6.1042 -0.0625,-0.1875 -0.375,-6.0625 -0.375,-6.0625 l -0.3125,-2.0625 1.5043,-1.1515 6.1201,-1.5565 4.7972,-3.3019 2.923,-4.998 z"
       id="path4" />
    <path
       fill="#a57939"
       stroke="none"
       d="m 5.0488,16.4511 5.5804,0.379 7.3319,2.5057 2.8846,1.2896 c 0,0 10.3654,1.4604 10.1987,7.2938 0,0 0.4645,3.6003 -1.951,6.1473 -1.8803,1.9826 -2.9889,4.6478 -2.5192,7.3395 0.3101,1.7768 1.2515,3.5306 3.4702,4.594 v 0 0 l -3.5899,1.2603 -1.5524,4.4368 c 0,0 -2.1911,-0.6947 -3.5244,-4.1114 0,0 -0.9792,-5.9167 -0.9167,-6.1042 0.0625,-0.1875 0.375,-6.0625 0.375,-6.0625 L 21.1485,33.3565 19.6442,32.205 13.5241,30.6485 8.727,27.3467 5.804,22.3487 Z"
       id="path6" />
    <polygon
       fill="#f4aa41"
       stroke="none"
       points="26.1616,57.6691 28.0487,57.8419 36.4227,57.1785 45.4213,58.1709 47.0116,56.6179 47.2811,50.9368 44.9172,46.3213 34.7544,46 27.921,45.3358 25.5643,52.4191 "
       id="polygon8" />
  </g>
  <g
     id="hair"
     transform="translate(-4.0496377,-6.0477189)" />
  <g
     id="skin"
     transform="translate(-4.0496377,-6.0477189)" />
  <g
     id="skin-shadow"
     transform="translate(-4.0496377,-6.0477189)" />
  <g
     id="line"
     transform="translate(-4.0496377,-6.0477189)">
    <path
       fill="#000000"
       stroke="none"
       d="m 26.1616,31.0595 c 0,0 -3.0474,-0.219 -3.8284,-1 -0.781,-0.781 -0.781,-2.0474 0,-2.8284 0.781,-0.781 2.0474,-0.781 2.8284,0 0.7811,0.781 1,3.8284 1,3.8284 z"
       id="path14" />
    <path
       fill="none"
       stroke="#000000"
       stroke-linecap="round"
       stroke-linejoin="round"
       stroke-miterlimit="10"
       stroke-width="2"
       d="m 19.6191,26.2353 2.0377,-9.248 c 0,0 -7.6806,-0.627 -6.505,-7.4454 0,0 9.9534,3.2917 12.7748,0.4702 0,0 6.2375,-6.6642 16.1956,-0.0429 3.3226,2.2093 12.7748,-0.4702 12.7748,-0.4702 1.1756,6.8184 -6.505,7.4454 -6.505,7.4454 l 2.0377,9.248"
       id="path16" />
    <path
       fill="none"
       stroke="#000000"
       stroke-linecap="round"
       stroke-linejoin="round"
       stroke-miterlimit="10"
       stroke-width="2"
       d="M 28.4825,46 H 44.209 c 0.272,0 0.5324,0.1138 0.7082,0.3213 0.8467,0.9992 3.1442,4.3471 2.0943,10.2966 -0.1836,1.0404 -1.1647,1.7418 -2.2037,1.5503 -3.4759,-0.6406 -11.324,-1.7893 -16.7592,-0.3263 -1.1058,0.2976 -2.2065,-0.454 -2.3432,-1.5909 -0.302,-2.5115 -0.3157,-6.6284 2.0103,-9.8682 C 27.8908,46.139 28.1824,46 28.4825,46 Z"
       id="path18" />
    <path
       fill="none"
       stroke="#000000"
       stroke-linecap="round"
       stroke-linejoin="round"
       stroke-miterlimit="10"
       stroke-width="2"
       d="m 29.8671,50.277 c 0,0 -0.6865,2.855 3.1538,2.926"
       id="path20" />
    <path
       fill="none"
       stroke="#000000"
       stroke-linecap="round"
       stroke-linejoin="round"
       stroke-miterlimit="10"
       stroke-width="2"
       d="m 29.1276,61.4663 c 0,0 6.3482,7.9157 13.7936,0.3135"
       id="path22" />
    <path
       fill="none"
       stroke="#000000"
       stroke-linecap="round"
       stroke-linejoin="round"
       stroke-miterlimit="10"
       stroke-width="2"
       d="m 17.5177,20.1544 c -3.0642,-1.9576 -7.3791,-4.5873 -12.4353,-3.3426 0,0 -1.4891,14.0288 15.3611,15.5179 l 1.2133,0.881 c 0,0 -2.2906,8.9177 1.2618,16.1018"
       id="path24" />
    <path
       fill="#000000"
       stroke="none"
       d="m 45.8871,31.0139 c 0,0 3.0474,-0.219 3.8284,-1 0.7811,-0.781 0.7811,-2.0474 0,-2.8284 -0.781,-0.781 -2.0474,-0.781 -2.8284,0 -0.781,0.781 -1,3.8284 -1,3.8284 z"
       id="path26" />
    <path
       fill="none"
       stroke="#000000"
       stroke-linecap="round"
       stroke-linejoin="round"
       stroke-miterlimit="10"
       stroke-width="2"
       d="m 43.1817,50.2341 c 0,0 0.6865,2.855 -3.1538,2.926"
       id="path28" />
    <path
       fill="none"
       stroke="#000000"
       stroke-linecap="round"
       stroke-linejoin="round"
       stroke-miterlimit="10"
       stroke-width="2"
       d="m 54.7743,19.9585 c 3.0474,-1.888 7.2683,-4.4017 12.1921,-3.1896 0,0 1.4891,14.0288 -15.3611,15.5179 l -1.2133,0.881 c 0,0 2.5382,7.9772 -1.0141,15.1613"
       id="path30" />
  </g>
</svg>
